<?xml version="1.0" standalone="no"?>
<!DOCTYPE svg PUBLIC "-//W3C//DTD SVG 1.1//EN" "http://www.w3.org/Graphics/SVG/1.1/DTD/svg11.dtd" >
<svg xmlns="http://www.w3.org/2000/svg">
<metadata>Generated by IcoMoon</metadata>
<defs>
<font id="icomoon" horiz-adv-x="1024">
<font-face units-per-em="1024" ascent="960" descent="-64" />
<missing-glyph horiz-adv-x="1024" />
<glyph unicode="&#x20;" horiz-adv-x="512" d="" />
<glyph unicode="&#xe900;" glyph-name="arch" horiz-adv-x="819" d="M723.838 960h-507.866c-42.809 0-79.131-28.994-90.806-68.53h478.028c81.724 0 148.53-67.871 148.53-150.899v-677.397c38.919 11.865 67.461 48.763 67.461 92.256v709.024c-0.649 52.715-42.81 95.547-95.348 95.547zM603.211 836.783h-508.514c-52.538 0-94.697-42.831-94.697-96.206v-708.362c0-53.378 42.16-96.208 94.697-96.208h508.514c51.889 0 94.7 42.831 94.7 96.208v708.362c-0.649 53.375-42.81 96.206-94.7 96.206zM590.888 111.288h-484.515v54.688h484.515v-54.688zM590.888 239.78h-484.515v54.692h484.515v-54.692zM590.888 361.026h-484.515v54.692h484.515v-54.692zM590.888 482.271h-484.515v54.693h484.515v-54.693zM590.888 603.517h-484.515v54.693h484.515v-54.693z" />
<glyph unicode="&#xe901;" glyph-name="arrow" horiz-adv-x="1609" d="M1501.652 409.192c21.416 21.424 21.416 56.158 0 77.58l-349.114 349.109c-21.424 21.423-56.156 21.423-77.58 0s-21.424-56.157 0-77.579l310.319-310.319-310.319-310.319c-21.424-21.424-21.424-56.158 0-77.58 21.424-21.424 56.156-21.424 77.58 0l349.114 349.108zM91.429 393.125h1371.429v109.714h-1371.429v-109.714z" />
<glyph unicode="&#xe902;" glyph-name="arrow_down" horiz-adv-x="640" d="M621.254 402.746c24.995 24.993 24.995 65.516 0 90.509l-407.293 407.294c-24.993 24.994-65.516 24.994-90.509 0s-24.994-65.516 0-90.509l362.038-362.039-362.038-362.039c-24.994-24.993-24.994-65.516 0-90.509 24.994-24.995 65.516-24.995 90.509 0l407.293 407.293zM512 384h64v128h-64v-128z" />
<glyph unicode="&#xe903;" glyph-name="arrs" horiz-adv-x="896" d="M233.373-22.63c12.497-12.493 32.758-12.493 45.254 0l203.647 203.648c12.497 12.499 12.497 32.762 0 45.254-12.497 12.499-32.758 12.499-45.254 0l-181.020-181.018-181.020 181.018c-12.497 12.499-32.758 12.499-45.255 0-12.497-12.493-12.497-32.755 0-45.254l203.647-203.648zM224 896v-896h64v896h-64zM662.63 918.627c-12.499 12.497-32.761 12.497-45.258 0l-203.647-203.647c-12.497-12.497-12.497-32.758 0-45.254s32.758-12.497 45.254 0l181.020 181.019 181.018-181.019c12.499-12.497 32.762-12.497 45.254 0 12.499 12.497 12.499 32.758 0 45.254l-203.642 203.647zM672 0v896h-64v-896h64z" />
<glyph unicode="&#xe904;" glyph-name="big_arr" horiz-adv-x="647" d="M242.526 960h161.684v-646.737h-161.684v646.737zM346.705-50.526c-10.372-17.966-36.301-17.966-46.673 0l-280.046 485.053c-10.372 17.966 2.593 40.421 23.337 40.421h560.091c20.744 0 33.708-22.455 23.336-40.421l-280.045-485.053z" />
<glyph unicode="&#xe905;" glyph-name="cab1" horiz-adv-x="1331" d="M203.462 960c-12.892 0-24.662-5.007-33.63-13.908s-14.012-21.14-14.012-33.379v-709.306c0-26.148 21.299-47.288 47.643-47.288 110.979 0 296.505-23.368 424.859-156.324v742.128c0 8.901-2.243 17.246-6.728 23.922-104.253 168.565-306.592 194.156-418.131 194.156zM1175.373 203.407v709.306c0 12.795-5.048 24.478-14.013 33.379-8.97 8.901-20.741 13.908-33.633 13.908-110.976 0-313.318-25.591-418.693-194.156-4.485-6.675-6.728-15.021-6.728-23.922v-742.128c128.358 132.956 313.882 156.324 424.863 156.324 26.906 0 48.205 21.14 48.205 47.288zM1284.106 796.441h-34.749v-593.038c0-66.202-54.369-120.719-121.631-120.719-94.162 0-249.421-18.36-359.281-121.836 190.013 46.177 390.108 16.133 504.453-9.457 14.013-3.338 29.143 0 40.356 8.904 11.208 8.899 17.935 22.252 17.935 36.716v752.143c0.558 26.147-20.741 47.287-47.084 47.287zM82.394 203.402v593.038h-34.751c-26.344 0-47.643-21.14-47.643-47.287v-751.585c0-14.464 6.726-27.817 17.936-36.721 11.21-8.899 26.344-12.237 40.356-8.899 114.342 25.59 314.441 55.634 504.452 9.457-109.86 103.475-265.118 121.277-359.283 121.836-66.699-0.558-121.068 53.96-121.068 120.161z" />
<glyph unicode="&#xe906;" glyph-name="cab3" horiz-adv-x="1126" d="M264.481 876.463h597.441c23.439 0 42.624 18.796 42.624 41.769s-19.185 41.769-42.624 41.769h-597.441c-23.443 0-42.623-18.796-42.623-41.769s19.181-41.769 42.623-41.769zM152.239 722.612h821.923c23.444 0 42.624 18.796 42.624 41.769s-19.18 41.769-42.624 41.769h-821.923c-23.443 0-42.623-18.796-42.623-41.769s19.181-41.769 42.623-41.769zM1111.265 642.556c-10.655 11.834-26.281 18.1-41.912 18.1h-1012.306c-15.629 0-31.257-6.265-41.913-18.1s-16.339-27.15-14.918-42.465l53.99-568.752c2.842-28.544 26.995-50.816 56.831-50.816h904.326c29.128 0 53.99 21.576 56.832 50.816l53.99 568.752c1.418 15.315-4.265 30.63-14.92 42.465zM815.744 126.71h-505.088c-19.891 0-36.23 18.796-36.23 41.769s16.339 41.769 36.23 41.769h505.088c19.891 0 36.229-18.796 36.229-41.769s-16.338-41.769-36.229-41.769zM842.030 278.472h-557.659c-22.022 0-39.782 18.796-39.782 41.769s17.76 41.769 39.782 41.769h557.659c22.021 0 39.782-18.796 39.782-41.769s-17.761-41.769-39.782-41.769zM861.921 430.93h-597.441c-23.443 0-42.623 18.794-42.623 41.767s19.181 41.768 42.623 41.768h597.441c23.439 0 42.624-18.796 42.624-41.768s-19.185-41.767-42.624-41.767z" />
<glyph unicode="&#xe907;" glyph-name="cab4" horiz-adv-x="614" d="M26.563 246.489c-24.037 23.208-32.551 57.033-22.285 88.633 10.516 31.605 37.559 54.071 70.86 59.007l99.405 14.32c4.006 0.496 7.512 3.211 9.515 6.668l44.319 88.879c0.751 1.233 1.502 2.716 2.254 3.949-22.535 20.492-36.807 49.625-36.807 82.215 0 15.801 3.255 30.614 9.264 44.193-31.799 13.085-54.334 44.193-54.334 80.486 0 48.143 39.562 87.151 88.387 87.151h139.968c48.827 0 88.386-39.008 88.386-87.151 0-36.293-22.532-67.154-54.333-80.486 6.009-13.579 9.265-28.639 9.265-44.193 0-32.589-14.273-61.722-36.808-82.215 0.751-1.233 1.502-2.716 2.254-3.949l44.319-88.879c1.753-3.707 5.259-6.173 9.515-6.668l99.406-14.565c33.3-4.69 60.342-27.406 70.857-59.007 10.519-31.601 2.007-65.425-22.282-88.633l-71.864-69.128c-3.002-2.961-4.256-6.914-3.502-10.863l16.773-97.522c5.759-32.588-7.762-65.18-34.804-84.685-15.274-11.108-33.3-16.54-51.581-16.54-14.021 0-28.041 3.211-40.812 10.121l-88.888 46.17c-3.756 1.974-8.013 1.974-11.768 0l-88.888-46.17c-29.796-15.553-65.101-12.837-92.394 6.668-27.292 19.501-40.563 51.847-34.804 84.681l17.027 97.522c0.751 3.949-0.751 8.147-3.506 10.863l-72.112 69.128zM503.054 885.933h-391.86c-20.782 0-37.558 16.542-37.558 37.033s16.776 37.033 37.558 37.033h391.86c20.783 0 37.556-16.542 37.556-37.033s-16.773-37.033-37.556-37.033z" />
<glyph unicode="&#xe908;" glyph-name="cab5" horiz-adv-x="829" d="M243.502 831.586h-243.502v-763.885h243.502v763.885zM459.949 752.565h-162.335v-684.859h162.335v684.859zM54.112 960h135.279c30.438 0 54.112-19.756 54.112-42.804v-42.804h-243.502v42.804c0 23.048 23.674 42.804 54.112 42.804zM351.725 871.098h54.112c30.438 0 54.112-19.756 54.112-42.804v-42.804h-162.335v42.804c0 23.048 23.674 42.804 54.112 42.804zM815.055 77.58l-158.954-29.633-128.512 674.984 158.949 29.634 128.517-674.985zM558.026 851.343l50.727 9.878c30.442 6.585 57.495-9.878 60.879-32.926l6.763-42.804-158.954-29.634c0 0-3.384 19.756-10.147 42.804 0 23.048 20.295 46.096 50.732 52.681zM821.819 44.656c0 0 3.384-19.758 6.763-42.803 3.384-23.050-16.906-46.1-43.964-52.682l-50.732-9.879c-30.437-6.583-57.49 9.879-60.874 32.929l-10.142 42.803 158.949 29.633zM459.949 21.606v-42.803c0-23.050-23.674-42.803-54.112-42.803h-54.112c-30.438 0-54.112 19.753-54.112 42.803v42.803h162.335zM243.502 21.606v-42.803c0-23.050-23.674-42.803-54.112-42.803h-135.279c-30.438 0-54.112 19.753-54.112 42.803v42.803h243.502z" />
<glyph unicode="&#xe909;" glyph-name="cab6" horiz-adv-x="683" d="M610.48 521.2h-9.957v189c0 137.8-116.37 249.8-259.293 249.8s-259.086-112-259.086-249.8v-189h-9.957c-39.827 0-72.187-31.2-72.187-69.601v-377.997c0-75.8 64.097-137.601 142.715-137.601h397.235c78.619 0 142.716 61.801 142.716 137.601v377.997c0 38.401-32.358 69.601-72.187 69.601zM372.345 189.001v-49.801c0-16.599-13.898-29.998-31.115-29.998s-31.115 13.4-31.115 29.998v49.801c-34.019 12.2-58.289 43.798-58.289 80.798 0 47.401 40.034 86.201 89.404 86.201s89.404-38.6 89.404-86.201c0-37.001-24.27-68.598-58.289-80.798zM445.776 521.2h-208.886v190c0 55.6 46.88 100.6 104.339 100.6s104.34-45.2 104.34-100.6v-190h0.207zM341.229 295.799c-14.935 0-27.174-11.8-27.174-26.2 0-14.404 12.239-26.2 27.174-26.2s27.174 11.796 27.174 26.2c0 14.599-12.032 26.2-27.174 26.2z" />
<glyph unicode="&#xe90a;" glyph-name="cab7" d="M512 960c-282.078 0-512-229.922-512-512 0-282.076 229.922-512 512-512 282.076 0 512 229.924 512 512 0 282.078-229.924 512-512 512zM710.333 249.667c-8.812-8.817-19.83-12.488-30.848-12.488s-22.774 4.403-30.853 12.488l-136.632 136.627-135.897-136.627c-8.815-8.817-19.834-12.488-30.852-12.488s-22.772 4.403-30.853 12.488c-16.895 16.891-16.895 44.805 0 61.701l135.897 135.9-136.631 136.629c-16.895 16.895-16.895 44.809 0 61.705s44.809 16.895 61.704 0l135.897-135.897 135.898 135.897c16.896 16.895 44.81 16.895 61.706 0 16.891-16.895 16.891-44.809 0-61.705l-135.163-135.897 135.895-135.895c17.628-17.633 17.628-44.81 0.732-62.438z" />
<glyph unicode="&#xe90b;" glyph-name="cab8" horiz-adv-x="1081" d="M1028.745 515.884c-2.111 5.098-4.989 9.804-8.829 13.726l-122.834 125.49c-15.929 16.275-41.842 16.275-57.964 0-15.929-16.274-15.929-42.745 0-59.216l52.975-54.117h-228.779c-22.647 0-40.88-18.824-40.88-41.765s18.233-41.961 40.88-41.961h228.779l-52.975-54.118c-15.929-16.276-15.929-42.747 0-59.216 8.061-8.232 18.426-12.351 28.985-12.351 10.553 0 20.918 4.119 28.979 12.351l122.834 125.491c3.84 3.922 6.719 8.432 8.829 13.726 4.028 10.196 4.028 21.765 0 31.961zM745.262 374.312c-22.647 0-40.88-18.819-40.88-41.762v-209.215h-163.905v669.41c0 18.431-11.9 34.706-29.173 40l-142.219 43.529h335.11v-209.216c0-23.137 18.233-41.764 40.88-41.764s40.88 18.823 40.88 41.764v250.981c0.188 23.137-18.045 41.961-40.693 41.961h-655.242c-1.535 0-2.879-0.588-4.223-0.784-1.919-0.196-3.647-0.588-5.565-0.98-4.223-1.176-8.061-2.941-11.708-5.294-0.96-0.588-2.111-0.588-2.879-1.176-0.384-0.392-0.384-0.784-0.767-0.98-4.415-3.529-8.253-8.039-10.94-13.137-0.576-1.176-0.768-2.353-1.152-3.529-1.344-3.137-2.687-6.275-3.263-9.804-0.192-1.176 0.192-2.353 0.192-3.725 0-0.784-0.576-1.569-0.576-2.353v-836.668c0-19.996 13.819-37.057 33.011-40.977l409.384-83.729c2.687-0.586 5.374-0.785 8.061-0.785 9.404 0 18.617 3.334 25.91 9.415 9.405 8.038 14.971 19.803 14.971 32.353v41.762h204.785c22.647 0 40.88 18.825 40.88 41.768v251.176c0 23.137-18.233 41.762-40.88 41.762z" />
<glyph unicode="&#xe90c;" glyph-name="check" horiz-adv-x="1320" d="M16.259 392.262c-6.261 12.654-12.522 25.309-12.522 37.963 0 12.657 6.261 25.312 12.522 37.966l68.872 69.602c18.784 18.982 50.089 18.982 68.873 0l6.261-6.327 281.752-303.718c12.522-12.654 25.045-12.654 37.567 0l663.679 708.673h6.263c18.782 18.982 50.090 18.982 68.872 0l68.872-69.602c18.785-18.982 18.785-50.62 0-69.602l-795.166-847.876c-12.52-6.327-25.042-12.654-37.565-12.654s-25.045 6.327-37.567 12.654l-388.191 430.266-12.522 12.654z" />
<glyph unicode="&#xe90d;" glyph-name="checkbox" horiz-adv-x="1434" d="M512-64l-512 492.307 143.36 137.847 368.64-354.462 778.24 748.307 143.36-137.846-921.6-886.154z" />
<glyph unicode="&#xe90e;" glyph-name="close" d="M658 435.485c-11.48 11.552-11.48 23.104 0 34.656l344.381 346.562c11.48 11.552 11.48 23.104 11.48 34.656s-5.739 23.104-11.48 34.656l-63.136 63.536c-11.48 0-22.958 5.776-34.438 5.776s-22.958-5.776-34.438-11.552l-344.381-346.562c-11.48-11.554-22.96-11.554-34.438 0l-344.382 346.562c-5.74 5.776-17.219 11.552-28.698 11.552-5.74 0-22.959-5.776-28.699-11.552l-68.876-69.312c-5.74-5.776-11.479-23.104-11.479-28.88 0-11.552 5.74-23.104 11.479-34.656l344.382-346.562c11.48-11.552 11.48-23.104 0-34.656l-344.382-346.563c-5.74-5.776-11.479-17.328-11.479-28.88s5.74-23.104 11.479-34.656l63.137-63.536c11.479-11.552 22.959-11.552 34.438-11.552s22.959 5.776 34.438 11.552l344.382 346.562c11.48 11.552 22.958 11.552 34.438 0l344.382-346.562c11.478-11.552 22.958-11.552 34.437-11.552s22.96 5.776 34.438 11.552l63.138 63.536c11.478 11.552 11.478 23.104 11.478 34.656s-5.739 23.104-11.478 34.656l-350.122 346.563z" />
<glyph unicode="&#xe90f;" glyph-name="com-bg" d="M151.29 97.497c88.599-91.316 206.443-144.906 332.902-151.734l0.292-0.587h13.018c5.178-0.245 10.101-0.245 14.467-0.245h16.163l454.861 0.984c2.824 0 16.692 1.313 25.587 12.969l0.001-0.001 0.060 0.083c4.011 5.649 8.519 15.089 5.377 29.12-0.602 3.158-1.84 7.806-14.569 29.071-12.738 21.28-37.16 59.467-84.418 129.756 65.557 87.428 100.026 191.157 100.026 300.966 0 277.437-225.711 503.192-503.063 503.192s-503.063-225.755-503.063-503.192c0-131.79 50.653-256.174 142.36-350.381zM527.391-19.619v0.002l-0.124-0.006c-5.798-0.243-10.629-0.243-15.274-0.243-1.702 0-3.465 0.055-5.366 0.114l-0.255 0.007c-1.985 0.062-4.104 0.125-6.355 0.125h-2.154c-254.524 7.593-453.649 212.988-453.649 467.496 0 257.927 209.847 467.742 467.779 467.742s467.777-209.814 467.535-467.985v-0.004c0-106.258-34.728-206.388-100.306-289.435l-0.026-0.033-7.918-10.323 7.325-10.608c0.002-0.004 0.005-0.007 0.007-0.011 35.062-51.847 59.606-89.242 75.777-114.739 8.087-12.751 14.069-22.511 18.222-29.609 3.183-5.439 5.222-9.201 6.324-11.514l-451.542-0.978z" />
<glyph unicode="&#xe910;" glyph-name="comm" d="M350 757.98c-193 0-350-157.015-350-350.033 0-133.611 75-254.027 193.4-313.028l-24.4-123.014c-2.399-12 2.801-24.205 13-31.002 10.2-6.598 23.6-6.598 33.6 0.397l170.6 118.413c177.6 18.202 313.998 168.019 313.998 348.235-0.198 194.819-158.399 350.033-350.198 350.033zM493 387.745l-60-72.205c-5.6-6.803-14.2-10.803-23-10.803s-17.4 4-23 10.803l-97 116.61-37-44.404c-10.6-12.801-29.599-14.401-42.2-3.8-12.8 10.601-14.4 29.603-3.8 42.204l60 72.207c5.8 6.801 14.2 10.801 23 10.801s17.4-4.001 23-10.801l97-116.611 37 44.404c10.6 12.801 29.6 14.401 42.2 3.8 12.8-10.601 14.4-29.403 3.8-42.204zM1024 609.966c0 193.019-156.998 350.034-350.003 350.034-115.797 0-219.397-56.405-282.996-144.014 208-20.602 369-196.219 369-408.039 0-68.607-16.8-135.416-49.997-196.222l98.598-68.403c9.997-7.002 23.2-7.2 33.6-0.403 10.202 6.803 15.398 19.002 12.998 31.008l-24.403 123.008c118.003 59.007 193.203 179.419 193.203 313.032z" />
<glyph unicode="&#xe911;" glyph-name="doc1" horiz-adv-x="960" d="M954.118 683.626l-260 270.468c-3.533 3.543-8.237 5.905-14.118 5.905h-385.882c-43.53 0-78.824-35.433-78.824-79.133v-275.192h-156.471c-32.941 0-58.824-25.984-58.824-59.054v-295.274c0-33.069 25.882-59.053 58.824-59.053h156.471v-177.165c0-43.699 35.294-79.13 78.824-79.13h587.060c43.526 0 78.822 35.43 78.822 77.952v655.501c-1.178 5.905-2.355 10.63-5.882 14.173zM684.704 906.851l212.941-222.044h-212.941v222.044zM58.824 232.454c-10.588 0-20 8.262-20 20.077v295.27c0 10.63 8.235 20.079 20 20.079h528.235c10.589 0 20-8.268 20-20.079v-295.27c0-10.63-8.235-20.077-20-20.077h-528.235zM920 16.314c0-21.261-17.645-38.976-38.822-38.976h-587.060c-21.176 0-38.824 17.715-38.824 38.976v177.165h332.941c32.941 0 58.824 25.984 58.824 59.053v295.27c0 33.070-25.883 59.054-58.824 59.054h-334.118v274.012c0 21.26 17.647 38.976 38.824 38.976h351.763v-255.114c0-10.63 8.237-20.079 20-20.079h254.118v-628.337h1.178zM209.43 478.138c-5.883 1.181-20 2.362-40 2.362h-54.118v-168.897h34.118v63.78h22.353c15.294 0 27.059 1.181 35.294 2.362 5.882 1.181 11.764 3.543 17.647 8.268 5.882 3.543 10.588 9.448 14.117 16.535s5.883 15.354 5.883 25.984c0 12.992-3.53 24.803-9.412 33.070-8.236 8.268-15.294 14.173-25.882 16.535zM204.724 414.359c-2.353-3.543-5.883-7.086-10.588-8.268s-12.941-2.362-27.059-2.362h-18.824v48.425h16.471c11.764 0 20 0 24.706-1.181 5.882-1.181 10.588-3.543 14.117-7.087s5.883-9.448 5.883-15.354c-1.177-5.906-2.353-9.449-4.706-14.173zM390.563 461.603c-7.059 7.087-15.294 12.992-25.882 15.354-7.059 2.362-17.647 3.543-31.765 3.543h-62.353v-168.897h63.53c12.941 0 22.353 1.184 30.588 3.546 10.588 3.546 17.647 8.267 23.529 12.991 8.236 7.087 14.118 17.716 17.647 29.527 3.53 10.63 4.706 22.44 4.706 35.432 0 15.354-2.353 29.527-5.882 40.157-1.176 11.811-7.059 21.26-14.118 28.346zM374.092 364.754c-2.353-7.087-4.706-12.992-9.412-16.536-3.53-3.543-8.236-5.905-14.118-7.086-4.706-1.181-10.588-1.181-20-1.181h-24.706v112.204h15.294c14.118 0 23.53 0 28.236-1.181 5.882-1.181 11.764-3.543 15.294-8.268 4.706-3.543 7.059-9.449 9.412-16.535s3.529-16.535 3.529-29.527c0-14.173-1.176-23.622-3.529-31.889zM441.187 311.603h34.118v72.048h70.588v28.346h-70.588v40.157h81.177v28.346h-115.295v-168.897z" />
<glyph unicode="&#xe912;" glyph-name="doc2" horiz-adv-x="904" d="M898.379 670.471l-244.375 255.059c-3.512 3.529-8.192 5.647-13.342 5.647h-363.986c-40.729 0-73.968-33.412-73.968-74.353v-259.294h-147.467c-30.43 0-55.242-24.941-55.242-55.529v-278.115c0-30.594 24.812-55.531 55.242-55.531h147.467v-166.822c0-40.942 33.239-74.12 73.968-74.12h552.884c40.731 0 73.969 33.178 73.969 74.12v615.997c0 4.706-1.873 9.412-5.15 12.941zM645.343 881.059l200.602-209.412h-200.602v209.412zM55.242 245.531c-10.065 0-18.492 8.234-18.492 18.589v277.88c0 10.118 8.193 18.588 18.492 18.588h497.877c10.065 0 18.492-8.235 18.492-18.588v-278.115c0-10.12-8.193-18.589-18.492-18.589l-497.877 0.235zM866.545 41.532c0-20.474-16.619-36.942-36.984-36.942h-552.884c-20.364 0-36.984 16.703-36.984 36.942v166.822h313.427c30.43 0 55.239 24.937 55.239 55.531v278.115c0 30.588-24.81 55.529-55.239 55.529h-313.427v259.294c0 20.47 16.62 37.177 36.984 37.177h331.682v-240.941c0-10.353 8.198-18.589 18.492-18.589h239.694v-592.938zM503.413 461.059c-6.554 7.058-14.512 12-23.875 14.588-7.022 2.118-16.853 3.059-30.196 3.059h-58.519v-159.296h60.158c11.704 0 21.3 1.181 28.323 3.295 9.363 3.060 16.854 7.294 22.471 12.71 7.257 7.054 13.108 16.468 17.088 28.233 3.277 9.412 4.916 20.706 4.916 33.882 0 14.823-1.639 27.529-5.15 37.647-3.511 10.353-8.661 18.824-15.215 25.883zM487.496 370c-2.106-7.059-4.915-12.236-8.426-15.293-3.511-3.060-7.725-5.415-12.874-6.59-3.98-0.94-10.3-1.41-19.428-1.41h-23.876v105.409h14.279c13.108 0 21.769-0.47 26.216-1.412 6.086-1.412 11.002-3.765 14.747-7.529 3.98-3.765 7.022-8.941 9.129-15.529s3.277-16 3.277-28.235c0-12.706-0.936-22.353-3.043-29.412zM523.15 378c-2.575-11.765-7.022-20.235-13.108-25.648-6.086-5.409-13.342-8.234-22.003-8.234-11.47 0-20.833 4.235-28.090 12.704-7.256 8.472-10.767 22.825-10.767 43.060 0 19.059 3.745 32.706 11.001 41.177s16.853 12.705 28.557 12.705c8.427 0 15.683-2.353 21.769-7.058 5.852-4.706 9.831-11.294 11.704-19.529l31.6 7.529c-3.511 12.705-8.894 22.588-16.151 29.412-12.172 11.529-27.855 17.176-47.283 17.176-22.238 0-40.027-7.294-53.603-21.882s-20.364-35.294-20.364-61.647c0-24.942 6.788-44.708 20.364-59.297 13.576-14.348 30.898-21.643 51.964-21.643 17.088 0 31.132 4.235 42.134 12.704s18.96 21.414 23.641 38.823l-31.366 9.647zM319.719 481.529c-12.874 0-24.343-2.118-34.174-6.353-7.491-3.059-14.279-8-20.365-14.353-6.32-6.353-11.235-13.647-14.746-21.882-4.916-11.059-7.257-24.706-7.257-40.941 0-25.411 7.022-45.178 20.832-59.767 13.811-14.348 32.537-21.643 56.178-21.643 23.173 0 41.899 7.294 55.71 21.877 13.81 14.589 20.832 34.591 20.832 60.238 0 25.883-7.022 46.118-21.067 60.706-14.044 14.824-32.536 22.118-55.944 22.118zM351.319 358.236c-8.193-9.178-18.726-13.882-31.366-13.882s-23.173 4.704-31.6 13.882c-8.193 9.412-12.406 23.059-12.406 40.941 0 18.353 3.979 32 12.172 41.177 7.959 9.176 18.726 13.647 31.834 13.647s23.642-4.471 31.6-13.412c7.959-8.941 11.938-22.588 11.938-40.941 0.234-18.353-3.979-32.236-12.172-41.412z" />
<glyph unicode="&#xe913;" glyph-name="edit" d="M637.029 788.909l-527.13-530.034 207.574-208.954 527.13 530.035-207.574 208.953zM0.447-34.644c-3.192-17.661 11.171-32.111 28.726-28.9l231.401 56.195-207.463 208.724-52.664-236.019zM1002.69 840.386l-92.56 93.123c-35.109 35.323-94.156 35.323-130.861 0l-89.369-89.912 207.463-208.724 103.731 104.362c30.32 27.295 30.32 73.857 1.595 101.152z" />
<glyph unicode="&#xe914;" glyph-name="eye" horiz-adv-x="1755" d="M13.86 488.398c224.444 292.007 528.339 471.602 864.107 471.602 335.318 0 639.22-179.595 863.652-471.163 18.417-23.711 18.417-57.084 0-81.235-224.432-292.007-528.783-471.602-864.101-471.602s-639.664 179.595-864.107 471.163c-17.955 24.15-17.955 57.524 0.449 81.235zM509.431 424.727c11.671-179.595 160.701-325.379 344.297-336.797 222.647-13.612 406.69 165.983 392.327 383.781-11.671 180.035-160.702 325.819-344.297 336.797-222.648 13.612-406.243-165.544-392.327-383.781zM890.557 642.523c99.204-6.148 179.555-84.748 185.84-181.791 8.079-117.242-91.124-213.846-210.978-206.381-98.755 6.148-179.105 84.309-185.838 181.791-8.081 117.242 90.675 213.846 210.976 206.381z" />
<glyph unicode="&#xe915;" glyph-name="fav" horiz-adv-x="723" d="M689.092 960h-655.36c-18.633 0-33.732-16.42-33.732-36.684v-950.284c0-12.926 6.425-25.154 16.705-31.792s23.452-6.638 33.732 0l310.975 212.763 310.977-213.112c5.138-3.144 10.921-4.891 16.703-4.891 6.102 0 11.884 1.747 17.029 4.891 10.276 6.638 16.703 18.866 16.703 31.792v950.284c0 20.613-15.101 37.033-33.732 37.033zM655.36 887.332v-850.365l-277.243 191.458c-5.14 3.144-10.922 4.891-16.705 4.891s-11.565-1.747-16.705-4.891l-277.243-191.458v850.365h587.896z" />
<glyph unicode="&#xe916;" glyph-name="fav2" horiz-adv-x="731" d="M697.295 960h-663.162c-18.855 0-34.133-16.29-34.133-36.393v-942.742c0-12.824 6.502-24.956 16.904-31.539 10.403-6.588 23.731-6.588 34.133 0l314.677 211.076 314.675-211.422c5.203-3.121 11.054-4.852 16.906-4.852 6.178 0 12.030 1.731 17.228 4.852 10.406 6.583 16.906 18.715 16.906 31.539v942.741c0 20.449-15.277 36.739-34.133 36.739z" />
<glyph unicode="&#xe917;" glyph-name="fb" horiz-adv-x="1067" d="M515.439-64c-284.684 0-515.439 229.218-515.439 512s230.755 512 515.439 512c284.642 0 515.435-229.219 515.435-512s-230.793-512-515.435-512zM563.951 591.708c0 24.97 2.487 38.361 40.137 38.361h50.253v95.744h-80.474c-96.555 0-130.569-46.474-130.569-124.534v-57.501h-60.246v-95.704h60.246v-277.82h120.533v277.82h80.397l10.667 95.704h-91.063l0.119 47.931z" />
<glyph unicode="&#xe918;" glyph-name="filter" horiz-adv-x="1109" d="M1105.178 933.574c-7.364 16.076-23.177 26.426-40.73 26.426h-1019.566c-17.549 0-33.364-10.35-40.731-26.426s-4.766-35.014 6.5-48.668l397.341-477.426v-322.173c0-17.178 9.533-33.033 24.699-40.738l203.87-103.723c6.283-3.302 13.216-4.847 19.932-4.847 8.233 0 16.466 2.202 23.615 6.827 13.216 8.371 21.233 22.903 21.233 38.758v425.895l397.343 477.647c11.264 13.433 13.867 32.372 6.494 48.447zM622.479 453.726c-6.932-8.148-10.615-18.719-10.615-29.509v-368.861l-114.393 58.138v310.723c0 10.79-3.683 21.14-10.616 29.509l-345.345 415.105h826.529l-345.56-415.105z" />
<glyph unicode="&#xe919;" glyph-name="globe" d="M833.775 769.778c-85.862 86.044-200.175 133.333-321.775 133.333s-235.911-47.289-321.778-133.333c-86.044-85.867-133.333-200.178-133.333-321.778s47.289-235.913 133.333-321.775c86.044-86.044 200.178-133.336 321.778-133.336s235.913 47.292 321.775 133.336c86.044 86.039 133.336 200.175 133.336 321.775s-47.292 235.911-133.336 321.778zM725.333 707.556l20.087 83.2c79.644-54.4 139.378-135.822 166.047-231.111l-10.49-1.956c-15.644-3.022-28.268-14.933-32-30.4l-4.090-16.356c0-0.178 0-0.356-0.353-0.356-0.358-0.178-0.358 0-0.535 0l-24.354 18.133c-12.624 9.422-29.69 10.845-43.736 3.556l-30.219-15.823c-14.581-7.644-22.938-22.577-21.868-38.933s11.201-30.045 26.487-35.911l1.422-0.533c0.182 0 0.358-0.178 0.358-0.356 0-0.356 0-0.355-0.176-0.533l-18.847-21.689c-0.176-0.178-0.535-0.356-0.711-0.178l-50.842 32.889c-11.736 7.467-26.135 8.711-38.935 3.023-12.624-5.689-21.692-17.245-23.825-30.933l-3.908-24c-2.133-13.514 2.486-27.201 12.442-36.622l26.493-24.889c0.176-0.176 0.176-0.535 0.176-0.711l-43.201-65.599c-4.090-6.224-6.4-13.511-6.753-20.981l-3.738-93.867c0-0.176 0-0.353-0.176-0.353l-57.6-56.536c-0.178-0.176-0.533-0.176-0.711-0.176l-37.333 21.868c-0.178 0-0.178 0.176-0.356 0.353 0 0-18.133 82.136-18.844 84.087l-16.534 44.271c-5.511 14.751-19.199 25.242-34.844 26.487l-75.378 6.576c-0.177 0-0.355 0.176-0.533 0.358l-42.845 73.956c0 0.176-0.177 0.176 0 0.353l10.845 71.646c0 0.178 0.177 0.356 0.177 0.356l65.778 49.6c0.178 0.178 0.356 0.178 0.534 0l63.822-26.667c3.556-1.6 7.467-2.488 11.378-2.844l88.355-9.6c10.132-1.067 20.087 1.6 28.268 7.466l58.487 41.956c15.821 11.377 21.51 32.355 13.511 50.133l-5.513 12.089c-6.224 14.045-19.729 23.467-35.197 24.178l-164.446 9.066c-0.178 0-0.178 0-0.178 0-0.177 0.178-0.177 0.178-0.177 0.178 0 0.177 0 0.711 0 0.711s0.177 0 0.356 0.178l49.422 13.334c6.577 1.778 12.622 5.155 17.422 9.777l60.447 56.889c0.176 0 0.176 0.177 0.353 0.177l90.846 9.423c17.243 2.133 31.642 14.755 35.732 31.644zM417.6 740.978l33.956 64c4.978 9.422 6.577 20.444 4.444 30.933l-4.622 22.4c19.734 2.844 40 4.444 60.623 4.444 20.8 0 41.244-1.6 61.156-4.444 0 0-4.8-5.333-5.689-5.689l-48.177-19.377c-6.934-2.844-12.978-7.111-17.956-12.8l-75.022-87.645c-1.067-1.244-2.489-1.956-4.089-1.956-2.311-0.177-3.912 1.245-4.623 1.956-2.311 2.844-0.356 7.644 0 8.178zM240.711 761.423v-60.623c0-16.889-8.533-32.534-22.756-41.778l-43.556-28.266c-10.133-6.577-18.666-14.933-25.422-24.889l-39.467-57.956c20.978 84.267 67.556 158.4 131.2 213.511zM267.2 164.267l-5.689-46.399c-64.889 49.243-114.844 117.333-141.689 195.732h25.778c3.2 0 6.044-1.599 7.822-4.267l52.089-81.067c2.311-3.556 5.155-6.935 8.356-9.956l50.666-46.222c1.956-1.957 3.022-4.801 2.667-7.822zM512 33.422c-77.867 0-150.578 21.51-212.978 59.022l8.178 67.021c1.956 16.003-3.911 32-15.823 42.843 0 0-51.733 47.292-52.267 48.003l-52.089 81.067c-9.244 14.399-24.889 22.932-41.777 22.932h-37.333c-6.934 30.225-10.667 61.69-10.667 93.868 0 3.556-0.001 6.933 0.177 10.489l84.978 124.623c3.733 5.511 8.533 10.133 14.044 13.689l43.556 28.266c25.778 16.711 41.244 44.978 41.244 75.734v91.378c39.289 26.489 83.2 46.222 130.489 57.955l4.622-22.755c0.178-1.245 0-2.667-0.534-3.734l-33.955-64c-2.133-3.911-4.8-14.4-4.8-14.4-2.845-14.045 0.889-28.089 10.311-38.934 8.889-10.311 21.511-16.177 35.023-16.177 0.711 0 20.267-0.889 35.023 16.177l75.022 87.645c0.533 0.711 1.422 1.244 2.133 1.6l48.175 19.377c6.758 2.667 12.982 7.111 17.778 12.801l18.136 21.155c32-8.533 62.401-20.622 90.846-36.089-0.535-1.066-23.29-95.644-23.29-95.644 0-0.178-0.176-0.356-0.535-0.534l-90.84-9.422c-8.892-0.889-17.425-4.8-24.001-11.023l-60.624-57.066-49.422-13.333c-16.178-4.267-27.911-17.778-30.044-34.311s5.866-32.534 20.266-40.889c5.511-3.2 11.733-4.978 18.133-5.333l164.445-9.067c0.176 0 0.358-0.177 0.535-0.355l5.507-12.089c0.182-0.177 0.006-0.533-0.176-0.711l-58.487-41.956c-0.176 0-0.176-0.177-0.353-0.177l-88.536 9.6-63.823 26.667c-13.333 5.511-28.977 3.556-40.533-5.155l-65.778-49.6c-8.711-6.578-14.223-16-15.823-26.667l-10.844-71.646c-1.422-9.244 0.356-18.665 5.155-26.664l42.845-73.956c6.756-11.56 18.666-19.2 32-20.27l75.378-6.576c0.177 0 0.355-0.176 0.533-0.358l16.534-44.265 17.244-78.399c2.489-11.201 9.422-20.799 19.377-26.67l37.334-21.862c6.4-3.732 13.511-5.689 20.622-5.689 10.486 0 20.977 4.090 28.799 11.73l57.6 56.536c7.47 7.287 11.913 17.243 12.265 27.733l3.738 93.867c0 0.176 0 0.176 0.176 0.353l43.201 65.599c11.019 16.714 8.357 38.935-6.224 52.628l-26.487 24.886c-0.182 0.178-0.182 0.356-0.182 0.533l3.914 24c0 0.177 0 0.356 0.358 0.356 0.353 0.178 0.353 0 0.529 0l50.847-32.89c17.067-11.019 39.999-7.822 53.151 7.468l18.847 21.688c8.892 10.134 12.089 24 8.892 36.978-3.379 12.978-12.806 23.645-25.424 28.267l-1.422 0.533c-0.182 0-0.358 0.178-0.358 0.178-0.176 0.178-0.176 0.533 0 0.711 0 0 0.176 0.177 0.358 0.177l30.219 15.823c0.182 0.178 0.358 0 0.711 0l24.36-18.133c11.019-8.356 25.418-10.489 38.4-5.867 12.976 4.622 22.756 15.467 26.129 28.801l4.090 16.356c0 0.177 0.176 0.356 0.535 0.356l11.73 2.311c4.090-23.467 6.224-47.467 6.224-72.178-0.711-228.981-186.664-414.933-415.289-414.933z" />
<glyph unicode="&#xe91a;" glyph-name="globe2" d="M512 960c281.6 0 512-230.4 512-512s-230.4-512-512-512c-281.6 0-512 230.4-512 512s230.4 512 512 512zM158.72 652.8h148.48c15.36 66.56 40.96 122.88 71.68 184.32-92.16-35.84-174.080-97.28-220.16-184.32zM512 857.6c-40.96-61.44-76.8-128-97.28-204.8h194.56c-20.48 71.68-56.32 143.36-97.28 204.8zM906.24 345.6c10.24 30.72 15.36 66.56 15.36 102.4s-5.12 71.68-15.36 102.4h-174.080c5.12-35.84 5.12-66.56 5.12-102.4s-5.12-66.56-5.12-102.4h174.080zM865.28 243.2h-148.48c-15.36-66.56-40.96-122.88-71.68-184.32 92.16 35.84 174.080 97.28 220.16 184.32zM716.8 652.8h148.48c-51.2 87.040-128 148.48-220.16 184.32 30.72-61.44 56.32-117.76 71.68-184.32zM512 38.4c40.96 61.44 76.8 128 97.28 204.8h-194.56c20.48-71.68 56.32-143.36 97.28-204.8zM394.24 345.6h235.52c5.12 35.84 10.24 66.56 10.24 102.4s-5.12 66.56-10.24 102.4h-240.64c-5.12-35.84-10.24-66.56-10.24-102.4s10.24-66.56 15.36-102.4zM378.88 58.88c-30.72 56.32-56.32 117.76-71.68 184.32h-148.48c46.080-87.040 128-148.48 220.16-184.32zM286.72 345.6c-5.12 35.84-5.12 66.56-5.12 102.4s5.12 66.56 5.12 102.4h-174.080c-10.24-30.72-15.358-66.56-15.358-102.4s5.12-71.68 15.358-102.4h174.080z" />
<glyph unicode="&#xe91b;" glyph-name="google" d="M227 341.201l-35.6-133.001-130.2-2.799c-39.2 72.201-61.2 154.799-61.2 242.598 0 85.001 20.6 165.001 57.2 235.401l116-21.2 50.8-115.2c-10.6-30.999-16.4-64.202-16.4-99.001 0-37.598 6.8-73.6 19.4-106.799zM1015.002 543.599c5.798-31.002 8.998-63.002 8.998-95.599 0-36.599-3.802-72.401-11.2-106.999-24.998-117.402-90.001-219.802-180.198-292.403l-146.001 7.403-20.599 128.998c59.797 35.2 106.598 90.001 131.2 155.802h-274.001v202.799h491.802zM832.602 48.802c-87.804-70.601-199.202-112.802-320.602-112.802-195 0-364.6 109.001-451 269.402l166 135.799c43.2-115.401 154.6-197.602 285-197.602 56 0 108.599 15.202 153.801 41.6l166.801-136.397zM838.801 842.2l-165.803-135.8c-46.596 29.2-101.798 46-160.998 46-133.399 0-246.799-86-288-205.4l-166.8 136.6c85.2 164.2 257 276.4 454.799 276.4 124.198 0 238.199-44.2 326.801-117.8z" />
<glyph unicode="&#xe91c;" glyph-name="group" horiz-adv-x="1229" d="M487.272 784.243c-56.817-35.275-96.657-94.969-103.911-164.261-23.171-10.721-48.888-16.886-76.154-16.886-99.54 0-180.218 79.89-180.218 178.444 0 98.569 80.678 178.459 180.218 178.459 98.589-0.030 178.562-78.494 180.065-175.757zM605.337 418.851c-99.54 0-180.218 79.906-180.218 178.459s80.693 178.444 180.218 178.444c99.523 0 180.249-79.906 180.249-178.459s-80.725-178.444-180.249-178.444zM528.892 406.688h152.921c127.235 0 230.748-102.517 230.748-228.512v-185.187l-0.478-2.901-12.882-3.994c-121.419-37.567-226.912-50.094-313.739-50.094-169.59 0-267.888 47.882-273.946 50.934l-12.037 6.028h-1.288v185.214c-0.046 125.995 103.466 228.512 230.701 228.512zM230.732 590.918h151.74c1.641-60.119 27.557-114.255 68.548-153.19-113.096-33.302-195.845-137.155-195.845-259.824v-57.064c-149.823 5.434-236.16 47.486-241.849 50.306l-12.038 6.048h-1.288v185.244c0 125.979 103.511 228.48 230.732 228.48zM921.559 603.066c-35.253 0-68.055 10.189-95.84 27.546-8.834 57.052-39.718 106.906-83.838 140.86-0.184 3.341-0.505 6.651-0.505 10.022 0 98.569 80.691 178.459 180.183 178.459 99.56 0 180.217-79.891 180.217-178.459 0-98.523-80.657-178.429-180.217-178.429zM759.712 437.727c40.796 38.738 66.621 92.585 68.506 152.34 5.625 0.41 11.196 0.85 16.93 0.85h152.904c127.235 0 230.748-102.502 230.748-228.48v-185.217l-0.478-2.854-12.882-4.028c-97.403-30.112-184.34-43.991-259.85-48.36v55.924c-0.027 122.669-82.746 226.492-195.878 259.824z" />
<glyph unicode="&#xe91d;" glyph-name="i1" horiz-adv-x="835" d="M811.394 339.452c-8.459 0-15.105-6.668-15.105-14.71v-183.18c0-1.372-0.806-2.55-2.216-3.138l-363.735-156.311v482.271l365.951 157.292v-227.897c0-8.238 6.847-14.71 15.105-14.71 8.459 0 15.105 6.668 15.105 14.71 0 8.434 0 253.785 0 250.647 0 5.884-3.625 11.179-9.064 13.532l-221.141 93.552c10.473 95.317-56.796 178.473-146.824 197.105-8.257 1.765-16.313-3.334-17.924-11.375-1.813-8.041 3.424-15.886 11.681-17.455 115.404-23.927 164.345-161.215 84.791-249.078h-32.023c95.063 75.508 41.288 230.25-84.992 230.25-125.072 0-180.86-152.586-84.589-230.25h-32.426c-79.152 87.275-31.218 225.151 84.791 248.882 8.258 1.765 13.495 9.414 11.683 17.455s-9.668 13.14-17.926 11.375c-92.645-19.024-158.907-105.123-146.42-200.44l-213.085-90.218c-5.236-2.353-9.063-7.453-9.063-13.336v-502.864c0-13.141 7.855-24.908 20.14-30.204l385.084-165.53c3.827-1.568 8.258-1.764 12.286 0l384.882 165.53c12.286 5.296 20.141 17.063 20.141 30.204v183.18c0 8.238-6.646 14.71-15.105 14.71zM411.004 871.342c45.316 0 84.993-28.242 98.487-70.408 27.592-86.491-66.463-158.47-145.414-119.049-96.27 48.051-60.42 189.457 46.927 189.457zM34.178 141.561v480.114c10.272-4.51 357.491-153.565 365.95-157.292v-482.271l-363.936 156.311c-1.208 0.392-2.014 1.765-2.014 3.138zM415.233 490.075l-358.498 153.958 175.825 74.527c5.237-16.867 13.092-32.949 23.363-48.050h-8.661c-8.459 0-15.105-6.668-15.105-14.71 0-8.238 6.847-14.709 15.105-14.709 11.278 0 306.738 0 327.885 0 8.459 0 15.105 6.668 15.105 14.709 0 8.238-6.847 14.71-15.105 14.71h-8.861c10.876 15.885 18.932 33.144 24.168 51.188l183.277-77.665-358.498-153.958zM376.37 748.755c-6.042 0-10.674-7.845-10.674-13.141 0-10.395 17.522-22.554 40.683-23.142v-5.296c0-2.353 2.82-4.707 6.446-4.707 3.222 0 6.445 2.158 6.445 4.707v5.885c21.55 3.334 36.253 16.67 36.253 39.617 0 25.496-19.133 33.93-36.253 40.009v32.754c12.89-0.981 17.321-6.865 22.758-6.865 7.049 0 10.272 8.629 10.272 12.945 0 10.787-20.342 14.317-32.829 14.709v4.904c0 2.354-3.222 4.707-6.445 4.707-3.625 0-6.446-2.157-6.446-4.707v-5.295c-19.133-2.354-37.259-12.748-37.259-36.479 0-23.927 19.738-31.184 37.259-37.656v-37.264c-17.119 2.157-22.96 14.317-30.21 14.317zM417.859 767.388c8.258-3.531 14.502-8.042 14.502-17.26 0-8.825-6.043-13.728-14.502-15.298v32.558zM392.483 811.907c0 7.061 5.84 11.571 15.307 13.141v-28.242c-8.862 3.335-15.307 6.865-15.307 15.102zM355.395 419.476l-264.644 113.752c-10.070 4.315-21.349-2.942-21.349-13.532 0-9.61 0-327.725 0-335.766 0-10.591 6.445-20.397 16.515-24.712l257.192-110.417c2.015-0.785 4.028-1.178 6.043-1.178 2.819 0 5.84 0.785 8.258 2.354 4.23 2.746 6.847 7.453 6.847 12.356 0 8.629 0 334.001 0 343.611 0.201 5.884-3.222 11.178-8.862 13.532zM334.248 84.886l-234.434 100.808v219.856l234.233-100.611v-220.053h0.201zM334.248 337.103l-234.434 100.612v59.229l234.233-100.611v-59.231h0.201zM137.111 298.27l146.421-62.956c7.653-3.335 16.717 0.196 19.939 7.452 3.424 7.453 0 16.082-7.653 19.417l-146.421 62.956c-7.653 3.334-16.514 0-19.939-7.453-3.424-7.257 0-16.082 7.653-19.416zM137.111 231.976l146.421-62.956c7.653-3.335 16.515 0 19.939 7.453s0 16.082-7.653 19.416l-146.421 62.956c-7.653 3.335-16.514 0-19.939-7.453s0-16.278 7.653-19.416z" />
<glyph unicode="&#xe91e;" glyph-name="i2" horiz-adv-x="1204" d="M1164.943 561.355c-8.627 5.441-19.585 4.258-27.045-2.603-19.817-18.216-40.102-35.014-61.086-50.628 4.663 15.378 8.627 30.283 11.891 44.951 35.206 20.346 63.416 53.941 81.836 97.237 17.019 39.983 24.947 87.064 22.849 132.961-0.466 10.41-7.461 18.927-17.487 21.292s-20.051-1.892-25.179-10.882c-13.524-23.895-27.745-46.371-43.133-68.138 0 18.691-0.933 36.908-2.332 54.416 0 0.237 0 0.708 0 0.945-3.965 54.179-13.756 108.357-29.144 161.116-2.798 9.463-12.59 14.905-21.683 12.066-9.327-2.839-14.689-12.776-11.891-22.003 9.792-33.595 17.253-67.9 22.149-102.205-19.118 18.69-38.936 36.198-59.685 52.995-7.694 6.151-18.42 6.624-26.58 1.183s-11.889-15.615-9.325-25.315c20.984-78.309 56.189-145.027 101.653-194.001-1.167-14.905-2.798-30.283-5.13-46.134-12.824 22.949-26.346 44.714-41.033 66.006-5.596 8.044-15.622 11.593-24.947 8.754-9.327-2.838-15.854-11.355-16.32-21.056-2.332-55.124 3.030-135.8 40.801-210.562-5.364-13.722-11.192-27.443-17.953-41.401-5.595 25.55-12.59 50.155-20.517 74.76-3.030 9.227-11.657 15.615-21.449 15.851h-0.234c-9.559 0-18.186-6.151-21.45-15.378-25.179-71.922-32.407-146.919-20.75-212.454-9.093-11.593-18.652-23.185-29.144-34.779 1.865 26.025 2.566 51.813 1.865 77.836-0.232 9.937-6.761 18.454-15.854 21.294-9.325 2.838-19.351-0.473-25.179-8.281-44.765-61.75-73.908-132.016-82.534-198.495-46.629-35.725-71.344-45.189-97.223-55.126-21.45-8.281-43.365-16.561-76.472-39.037-33.107 22.475-55.023 30.756-76.473 39.037-26.112 9.937-50.593 19.401-97.222 55.126-8.627 66.716-37.77 136.746-82.536 198.495-5.828 7.807-15.854 11.355-25.179 8.281-9.327-2.84-15.622-11.593-15.854-21.53-0.7-26.023 0-51.575 1.865-77.836-10.492 11.593-20.051 23.185-29.144 34.779 11.425 65.535 4.197 140.532-20.75 212.454-3.264 9.227-11.891 15.378-21.45 15.378h-0.232c-9.793 0-18.42-6.388-21.45-15.851-8.16-24.368-14.921-49.21-20.517-74.76-6.529 13.958-12.59 27.916-17.952 41.401 37.769 74.762 43.133 155.438 40.801 210.562-0.466 9.937-6.995 18.454-16.32 21.056-9.327 2.84-19.352-0.708-24.947-8.752-14.689-21.294-28.445-43.059-41.035-66.008-2.332 15.851-3.964 31.229-5.129 46.134 45.698 48.737 80.67 115.455 101.652 194.001 2.566 9.7-1.165 19.873-9.325 25.315s-18.884 4.968-26.58-1.183c-20.75-16.561-40.567-34.068-59.685-52.995 4.896 34.305 12.357 68.61 22.149 102.205 2.798 9.463-2.564 19.4-11.891 22.002-9.325 2.839-19.118-2.602-21.682-12.066-15.388-52.759-25.18-106.937-29.143-161.116 0-0.472 0-0.708 0-1.182-1.399-17.508-2.332-35.725-2.332-54.416-15.388 21.767-29.61 44.242-43.132 68.138-5.129 8.99-15.155 13.248-25.18 10.883-9.792-2.366-16.787-10.883-17.486-21.294-2.331-45.897 5.829-92.978 22.849-132.961 18.419-43.296 46.63-76.891 81.835-97.237 3.264-14.668 7.228-29.809 11.891-44.951-20.983 15.615-41.034 32.412-61.085 50.628-7.461 6.861-18.419 8.044-27.045 2.603s-12.823-15.615-10.259-25.552c20.284-79.020 79.037-165.373 165.536-185.011 7.46-13.012 15.388-26.26 24.247-39.273-24.481 8.754-48.495 18.691-72.742 30.283-9.093 4.259-19.818 2.13-26.579-5.678-6.761-7.571-7.694-18.691-2.331-27.443 40.102-66.244 115.408-128.466 199.108-128.466 4.197 0 8.16 0.237 12.357 0.473 23.082-22.004 49.427-43.532 78.105-64.115 54.323-42.349 83.467-53.469 111.678-64.351 17.485-6.626 34.739-13.25 58.286-28.154-18.184-14.195-39.168-31.702-63.882-54.415-7.228-6.624-7.926-17.744-1.399-25.078 3.498-4.021 8.16-5.914 13.057-5.914 4.196 0 8.393 1.42 11.657 4.495 28.91 26.261 51.992 45.425 71.11 59.857 19.118-14.431 42.2-33.596 71.11-59.857 3.264-3.075 7.461-4.495 11.658-4.495 4.896 0 9.559 1.893 13.056 5.914 6.527 7.334 5.828 18.454-1.399 25.078-24.947 22.712-45.931 40.22-63.882 54.415 23.548 14.668 40.801 21.294 58.286 28.154 28.211 10.882 57.355 22.002 111.678 64.351 28.91 20.582 55.023 42.111 78.337 64.115 4.197-0.237 8.16-0.473 12.357-0.473 83.701 0 159.008 62.458 199.108 128.466 5.362 8.752 4.197 19.636-2.332 27.443-6.761 7.571-17.485 9.937-26.578 5.678-24.247-11.355-48.262-21.292-72.743-30.283 8.627 13.25 16.787 26.261 24.248 39.273 86.498 19.637 145.252 105.991 165.535 185.011 1.865 10.647-2.332 20.82-10.958 26.025zM1099.429 609.382c0.466 3.075 0.933 6.388 1.399 9.464 0.232 1.892 0.465 3.785 0.699 5.678 0.466 2.84 0.699 5.914 1.165 8.754 0.234 1.893 0.466 3.785 0.7 5.914 0.232 2.84 0.699 5.678 0.933 8.517 0.232 1.893 0.466 3.786 0.466 5.678 0.232 2.84 0.466 5.679 0.699 8.281 0 0.947 0.234 2.13 0.234 3.076 18.418 22.712 35.205 46.134 51.059 70.739-5.595-48.264-24.247-97.474-58.054-130.359 0.466 1.42 0.7 2.84 0.7 4.259zM37.205 735.482c15.854-24.605 32.641-48.027 51.059-70.739 0-1.183 0.233-2.13 0.233-3.313 0.233-2.602 0.466-5.441 0.7-8.044 0.233-1.892 0.466-4.021 0.466-5.914 0.233-2.84 0.466-5.441 0.933-8.281 0.233-1.893 0.466-4.021 0.699-5.914 0.233-2.84 0.7-5.678 1.166-8.754 0.233-1.893 0.466-3.786 0.699-5.678 0.466-3.076 0.933-6.389 1.399-9.464 0.233-1.42 0.466-2.84 0.7-4.259-34.040 32.649-52.458 81.859-58.054 130.359zM175.927 630.201c-1.865-42.821-9.792-83.514-22.848-119.476-0.466 1.42-0.933 2.84-1.399 4.259-0.7 2.365-1.399 4.731-2.099 7.097-0.466 1.893-1.165 3.785-1.631 5.678-0.699 2.366-1.399 4.733-1.865 7.097-0.466 1.893-0.933 3.786-1.631 5.679-0.7 2.365-1.167 4.731-1.865 6.861-0.466 1.892-0.933 3.785-1.399 5.678-0.466 2.366-1.167 4.495-1.633 6.861-0.232 0.947-0.466 1.893-0.699 2.84 11.425 23.659 23.782 46.134 37.070 67.426zM121.138 729.568c0 2.13 0 4.021 0 6.151 0 2.603 0 4.968 0.233 7.571 0 2.13 0.233 4.023 0.233 5.914 0 2.366 0.233 4.969 0.233 7.334 0 1.893 0.233 4.023 0.233 5.916 0.233 2.365 0.233 4.968 0.466 7.334 0 0.947 0.233 2.13 0.233 3.075 18.185 19.637 36.605 38.091 55.723 55.125-14.921-42.112-34.274-79.492-57.588-110.96 0 1.42 0 3.076 0 4.496 0.233 2.84 0.233 5.441 0.233 8.044zM67.747 501.972c22.149-18.216 44.998-35.014 68.779-50.865 0.466-0.947 0.7-1.893 1.166-3.076 0.933-2.366 1.865-4.731 2.797-7.334 0.7-1.893 1.399-3.786 2.332-5.678 0.933-2.366 2.099-4.969 3.032-7.334 0.699-1.893 1.631-3.549 2.33-5.442 1.167-2.602 2.332-5.204 3.498-7.807 0.699-1.655 1.631-3.548 2.332-5.204 1.399-2.84 2.564-5.678 3.963-8.517 0.699-1.183 1.165-2.603 1.865-3.786-41.268 21.294-72.743 61.75-92.094 105.044zM230.018 445.191c10.258-40.928 14.455-81.858 12.123-120.421-0.699 1.182-1.631 2.365-2.332 3.548-1.398 2.13-2.797 4.259-4.196 6.388-1.167 1.656-2.099 3.313-3.264 4.969-1.399 2.128-2.564 4.258-3.963 6.151-0.933 1.656-2.099 3.311-3.032 4.968-1.165 2.13-2.564 4.023-3.729 6.151-0.933 1.656-2.099 3.313-3.032 4.969-1.165 1.893-2.332 4.021-3.497 5.914-0.466 0.947-0.933 1.656-1.399 2.603 4.429 25.552 9.792 50.392 16.32 74.76zM163.105 291.174c26.344-10.883 52.924-20.111 80.435-28.154 0.7-0.947 1.399-1.656 1.865-2.602 1.633-2.13 3.264-4.259 4.896-6.152 1.167-1.42 2.566-3.075 3.731-4.495 1.633-2.13 3.497-4.259 5.13-6.388 1.165-1.42 2.564-3.076 3.731-4.496 1.864-2.128 3.729-4.258 5.595-6.624 1.167-1.42 2.566-2.84 3.731-4.258 2.098-2.366 4.197-4.733 6.529-7.097 0.933-0.947 1.865-2.13 2.797-3.076-45.697 8.044-87.43 37.38-118.438 73.342zM378.534 174.773c-2.099 1.656-3.965 3.313-6.062 4.969-1.631 1.182-3.030 2.602-4.429 3.785-1.865 1.656-3.731 3.313-5.596 4.733-1.399 1.182-3.030 2.602-4.429 4.021-1.865 1.656-3.497 3.313-5.362 4.733-1.399 1.418-2.798 2.602-4.431 4.021-1.631 1.656-3.497 3.076-5.128 4.731-0.7 0.71-1.399 1.42-2.099 2.13-3.497 26.025-5.595 51.576-6.295 76.891 21.916-36.435 38.004-74.762 47.096-112.615-1.165 0.945-2.098 1.655-3.263 2.602zM852.991 207.896c-0.7-0.71-1.399-1.42-2.099-2.13-1.631-1.655-3.497-3.311-5.128-4.968-1.399-1.42-2.798-2.603-4.197-4.023-1.865-1.655-3.497-3.311-5.362-4.731-1.399-1.42-3.030-2.603-4.429-4.021-1.865-1.656-3.731-3.076-5.596-4.733-1.631-1.183-3.030-2.602-4.663-3.785-1.865-1.656-3.731-3.076-5.828-4.733-1.165-0.947-2.332-1.892-3.497-2.838 9.325 37.853 25.413 76.18 47.096 112.615-0.7-25.078-2.798-50.63-6.295-76.655zM963.969 445.191c6.529-24.368 11.891-48.972 16.32-74.76-0.466-0.947-0.933-1.656-1.399-2.603-1.165-1.893-2.332-4.021-3.497-5.914-0.933-1.656-2.098-3.313-3.030-4.969-1.167-1.892-2.332-4.021-3.731-5.914-0.933-1.656-2.098-3.311-3.030-4.968-1.167-2.13-2.566-4.023-3.731-6.151-1.167-1.656-2.098-3.313-3.264-4.969-1.399-1.893-2.564-4.021-3.963-5.914-0.933-1.183-1.633-2.366-2.566-3.786-2.564 37.855 1.633 79.021 11.891 119.949zM1030.883 291.174c-31.009-35.725-72.743-65.298-118.439-73.105 0.933 1.183 2.098 2.366 3.030 3.311 2.099 2.13 3.963 4.496 6.062 6.626 1.399 1.418 2.564 3.075 3.963 4.495 1.865 2.13 3.731 4.259 5.596 6.388 1.399 1.42 2.564 3.076 3.963 4.496 1.631 2.128 3.497 4.021 5.13 6.151 1.165 1.656 2.564 3.076 3.729 4.731 1.633 2.13 3.264 4.023 4.897 6.152 0.699 0.945 1.399 1.655 2.098 2.602 27.045 8.044 53.624 17.271 79.97 28.154zM1015.261 828.224c19.118-17.27 37.537-35.488 55.722-55.125 0-0.945 0.234-2.128 0.234-3.075 0.232-2.366 0.232-4.733 0.466-7.097 0.232-1.893 0.232-4.023 0.232-5.916 0.234-2.365 0.234-4.968 0.234-7.334 0-1.892 0.232-4.021 0.232-5.914 0-2.603 0.234-5.204 0.234-7.807 0-1.893 0-4.021 0-5.914 0-2.603 0-5.206 0-7.807 0-1.42 0-2.84 0-4.496-23.082 30.993-42.434 68.374-57.355 110.486zM1018.059 630.201c13.29-21.529 25.413-43.768 37.070-67.426-0.232-0.947-0.466-1.893-0.699-2.84-0.466-2.13-0.933-4.495-1.633-6.624-0.466-1.893-0.933-3.786-1.399-5.678-0.465-2.366-1.165-4.733-1.864-6.862-0.466-1.892-0.933-3.785-1.399-5.678-0.7-2.366-1.399-4.731-2.099-7.334-0.466-1.893-0.933-3.785-1.631-5.441-0.7-2.603-1.399-4.969-2.332-7.571-0.466-1.42-0.699-2.603-1.165-4.023-13.057 35.962-20.751 76.891-22.849 119.476zM1033.913 397.164c0.699 1.183 1.167 2.603 1.865 3.786 1.399 2.84 2.798 5.678 3.963 8.517 0.7 1.656 1.633 3.548 2.332 5.204 1.167 2.603 2.332 5.206 3.497 7.807 0.7 1.893 1.633 3.549 2.332 5.442 1.167 2.602 2.099 4.968 3.264 7.571 0.699 1.892 1.399 3.548 2.332 5.441 0.933 2.366 1.865 4.968 3.030 7.334 0.466 0.947 0.7 1.893 1.167 2.84 23.78 15.851 46.629 32.649 68.778 50.865-19.585-43.294-51.059-83.751-92.56-104.808zM459.919 661.417c5.362-7.334 13.756-11.357 22.615-11.357 6.761 0 13.056 2.366 18.186 6.862l51.992 44.241v-261.9h-79.036c-13.057 0-23.782-10.883-23.782-24.132v-71.922c0-13.25 10.724-24.132 23.782-24.132h282.576c13.056 0 23.78 10.882 23.78 24.132v71.922c0 13.248-10.724 24.132-23.78 24.132h-65.748v39.51c0 9.7-7.928 17.744-17.487 17.744s-17.485-8.044-17.485-17.744v-57.254c0-9.7 7.926-17.744 17.485-17.744h72.043v-48.973h-259.96v48.973h85.332c9.559 0 17.487 8.044 17.487 17.744v284.612c0 3.076 0 17.508 0 32.886 0 6.861-3.963 13.25-10.026 16.088-6.062 2.84-13.522 1.893-18.652-2.365l-75.539-64.351-32.176 43.294 32.176 27.681c7.46 6.388 8.393 17.508 2.098 25.078s-17.253 8.517-24.714 2.128l-37.070-31.702c-11.425-9.936-13.29-27.207-4.197-39.273l40.102-54.178zM545.699 812.839l49.427 42.586h60.153v-294.314c0-9.699 7.926-17.743 17.485-17.743s17.487 8.044 17.487 17.743v300.938c0 15.851-12.824 28.864-28.445 28.864h-69.245c-6.761 0-13.29-2.366-18.418-6.861l-51.293-44.242c-7.461-6.388-8.394-17.507-2.099-25.078 6.529-7.334 17.719-8.281 24.947-1.893z" />
<glyph unicode="&#xe91f;" glyph-name="i3" horiz-adv-x="1086" d="M758.317 52.925c-9.726 2.384-19.451-3.443-21.816-13.243l-17.875-72.308c-2.365-9.799 3.418-19.6 13.143-21.984 1.577-0.265 2.891-0.529 4.468-0.529 8.148 0 15.246 5.562 17.348 13.773l17.875 72.308c2.365 9.534-3.68 19.335-13.143 21.984zM538.585 414.988c2.366 0 4.732 0.531 6.835 1.325l197.402 82.373c9.2 3.708 13.406 14.302 9.726 23.572-3.679 9.271-14.194 13.508-23.393 9.8l-190.569-79.46-502.313 209.508v6.093c0 10.064-8.148 18.010-17.874 18.010-9.988 0-17.874-8.211-17.874-18.010v-18.011c0-7.417 4.469-14.038 11.040-16.686l520.45-216.924c1.839-1.059 4.206-1.59 6.571-1.59zM751.993 229.854c-4.468 9.006-14.983 12.714-23.919 8.212-34.172-16.952-90.947-36.817-171.38-39.465v162.097c0 10.065-8.15 18.011-17.875 18.011-9.988 0-17.874-8.211-17.874-18.011v-162.097c-222.9 7.151-294.658 143.291-305.172 165.806v122.896c0 10.065-8.15 18.011-17.875 18.011-9.988 0-17.874-8.211-17.874-18.011v-126.605c0-2.384 0.526-4.503 1.315-6.621 3.153-7.946 79.381-192.292 357.48-192.292 97.256 0 165.335 23.838 205.29 43.702 8.674 4.503 12.353 15.362 7.885 24.367zM807.727 35.179c-9.988 0-17.874-8.211-17.874-18.010v-54.298c0-10.064 8.148-18.010 17.874-18.010 9.989 0 17.874 8.211 17.874 18.010v54.298c0 10.064-7.885 18.010-17.874 18.010zM1059.017 686.219c-9.988 0-17.874-8.211-17.874-18.011v-6.092l-215.54-89.26v32.579l240.248 100.118c6.835 2.913 11.039 9.27 11.039 16.686s-4.468 14.038-11.039 16.686l-520.449 216.924c-4.469 1.854-9.201 1.854-13.669 0l-520.449-216.66c-6.571-2.913-11.040-9.534-11.040-16.686 0-7.417 4.469-14.038 11.040-16.686l520.449-216.924c2.103-0.794 4.468-1.324 6.835-1.324 2.365 0 4.732 0.529 6.835 1.324l188.202 78.4c9.2 3.709 13.406 14.304 9.726 23.573-3.68 9.271-14.194 13.508-23.393 9.8l-181.369-75.486-473.399 197.324 473.399 197.324 473.399-197.324-206.078-85.816-197.402 74.163c1.051 3.708 1.577 7.681 1.577 11.654 0 30.459-31.543 54.297-71.76 54.297s-71.759-23.838-71.759-54.297 31.543-54.297 71.759-54.297c17.875 0 33.908 5.033 46.526 12.979l204.763-77.076v-445.502c-20.766-7.417-36.011-27.281-36.011-50.854 0-29.93 24.183-54.297 53.885-54.297s53.885 24.367 53.885 54.297c0 23.573-14.983 43.438-36.011 50.854v102.502c51.52 39.2 69.919 91.378 70.708 93.762 0.526 1.854 1.051 3.974 1.051 5.827v126.606c0 10.064-8.15 18.010-17.875 18.010-9.988 0-17.874-8.211-17.874-18.010v-123.162c-3.154-7.681-13.931-31.254-36.011-54.563v224.076l239.986 99.589c6.835 2.913 11.039 9.534 11.039 16.686v18.011c0.526 10.065-7.623 18.276-17.348 18.276zM538.568 704.229c-21.817 0-36.011 10.595-36.011 18.011s13.931 18.011 36.011 18.011c22.080 0 36.011-10.595 36.011-18.011 0-7.152-14.195-18.011-36.011-18.011zM807.73 89.479c-9.989 0-17.875 8.211-17.875 18.010 0 10.065 8.15 18.011 17.875 18.011 9.988 0 17.874-8.211 17.874-18.011s-7.886-18.010-17.874-18.010zM878.964 39.681c-2.366 9.8-12.092 15.627-21.817 13.243s-15.509-12.184-13.142-21.984l17.874-72.308c2.103-8.211 9.463-13.773 17.348-13.773 1.315 0 2.892 0.265 4.469 0.529 9.726 2.384 15.507 12.184 13.142 21.984l-17.874 72.308z" />
<glyph unicode="&#xe920;" glyph-name="i4" horiz-adv-x="1132" d="M812.711 281.224c3.301-2.444 7.043-3.554 11.004-3.554 3.081 0 5.942 0.667 8.802 2.222l61.18 32.435 61.18-32.435c6.381-3.333 13.864-2.889 19.806 1.333 5.722 4.221 8.583 11.33 7.482 18.439l-11.663 68.647 49.516 48.653c5.061 5.109 7.041 12.44 4.621 19.327-2.202 6.888-7.923 11.775-15.185 12.886l-68.442 9.996-30.591 62.65c-3.080 6.442-9.682 10.441-16.725 10.441-7.262 0-13.645-3.999-16.725-10.441l-30.591-62.65-68.441-9.996c-7.043-1.112-12.985-5.998-15.185-12.886-2.202-6.886-0.441-14.217 4.841-19.327l49.516-48.653-11.664-68.647c-1.32-7.109 1.541-14.217 7.262-18.439zM861.347 423.405c6.162 0.889 11.443 4.666 14.084 10.442l18.047 37.1 18.265-37.1c2.641-5.554 7.923-9.331 14.085-10.22l40.712-5.998-29.269-28.879c-4.402-4.444-6.382-10.664-5.282-16.663l7.043-40.876-36.312 19.328c-5.503 2.887-11.884 2.887-17.386 0l-36.312-19.328 6.823 40.876c1.099 6.221-0.881 12.442-5.282 16.663l-29.49 28.879 40.273 5.776zM686.587 449.393l-68.442 9.997-30.589 62.649c-3.081 6.442-9.684 10.441-16.726 10.441-7.262 0-13.643-3.999-16.725-10.441l-30.591-62.649-68.441-9.997c-7.043-1.112-12.985-5.998-15.185-12.885-2.202-6.888-0.441-14.219 4.841-19.328l49.516-48.653-11.664-68.647c-1.32-7.109 1.541-14.217 7.483-18.439 3.301-2.444 7.041-3.554 11.003-3.554 3.081 0 5.942 0.667 8.804 2.222l61.18 32.435 61.179-32.435c6.382-3.332 13.864-2.889 19.806 1.333 5.722 4.221 8.583 11.33 7.483 18.439l-11.664 68.647 49.516 48.653c5.062 5.109 7.043 12.44 4.621 19.328-2.421 6.886-8.363 11.773-15.404 12.885zM614.403 388.522c-4.401-4.444-6.381-10.664-5.282-16.662l6.823-40.878-36.312 19.328c-5.503 2.887-11.884 2.887-17.386 0l-36.312-19.328 6.822 40.878c1.101 6.219-0.88 12.44-5.28 16.662l-29.49 28.881 40.712 5.998c6.163 0.888 11.445 4.665 14.085 10.441l18.045 37.101 18.266-37.101c2.641-5.554 7.923-9.331 14.084-10.22l40.713-5.997-29.49-29.103zM363.994 449.393l-68.442 9.997-30.589 62.649c-3.081 6.442-9.684 10.441-16.726 10.441-7.262 0-13.643-3.999-16.725-10.441l-30.589-62.649-68.442-9.997c-7.042-1.112-12.984-5.998-15.185-12.885s-0.44-14.219 4.841-19.328l49.516-48.653-11.663-68.647c-1.101-7.109 1.54-14.217 7.482-18.439 3.301-2.444 7.043-3.554 11.004-3.554 3.080 0 5.942 0.667 8.802 2.222l61.18 32.435 61.179-32.435c6.382-3.332 13.864-2.889 19.806 1.333 5.722 4.221 8.583 11.33 7.483 18.439l-11.664 68.647 49.516 48.653c5.062 5.109 7.043 12.44 4.621 19.328-2.641 6.886-8.362 11.773-15.404 12.885zM291.591 388.522c-4.402-4.444-6.382-10.664-5.282-16.662l7.043-40.878-36.312 19.328c-5.503 2.887-11.884 2.887-17.386 0l-36.531-19.328 6.822 40.878c1.101 6.219-0.88 12.44-5.282 16.662l-29.489 28.881 40.712 5.998c6.163 0.888 11.445 4.665 14.085 10.441l18.045 37.101 18.266-37.101c2.641-5.554 7.923-9.331 14.084-10.22l40.713-5.997-29.49-29.103zM847.915 721.311l-68.442 9.997-30.589 62.649c-3.081 6.442-9.684 10.441-16.725 10.441-7.262 0-13.645-3.999-16.726-10.441l-30.589-62.649-68.442-9.997c-7.043-1.112-12.985-5.998-15.185-12.885s-0.441-14.219 4.841-19.328l49.516-48.653-11.663-68.647c-1.101-7.109 1.54-14.217 7.482-18.439 3.301-2.444 7.043-3.554 11.004-3.554 3.080 0 5.942 0.667 8.802 2.222l61.18 32.435 61.18-32.435c6.381-3.332 13.864-2.889 19.806 1.333 5.721 4.221 8.583 11.33 7.482 18.439l-11.664 68.647 49.516 48.653c5.062 5.109 7.043 12.44 4.621 19.328-2.42 6.886-8.362 11.773-15.404 12.885zM775.733 660.44c-4.402-4.444-6.382-10.664-5.282-16.662l7.041-40.878-36.312 19.328c-5.501 2.887-11.884 2.887-17.385 0l-36.312-19.328 6.822 40.878c1.101 6.219-0.88 12.44-5.282 16.662l-29.49 28.881 40.713 5.998c6.163 0.888 11.445 4.665 14.085 10.441l18.045 37.101 18.266-37.101c2.641-5.554 7.923-9.331 14.084-10.22l40.713-5.997-29.709-29.103zM490.315 553.135c5.721 4.221 8.583 11.33 7.482 18.439l-11.664 68.647 49.516 48.653c5.062 5.109 7.043 12.44 4.621 19.328-2.2 6.886-7.923 11.773-15.185 12.885l-68.441 9.997-30.591 62.649c-3.080 6.442-9.682 10.441-16.725 10.441-7.262 0-13.645-3.999-16.725-10.441l-30.591-62.649-68.442-9.997c-7.041-1.112-12.983-5.998-15.185-12.885-2.2-6.888-0.439-14.219 4.842-19.328l49.516-48.653-11.664-68.647c-1.32-7.109 1.54-14.217 7.483-18.439 3.301-2.444 7.041-3.554 11.003-3.554 3.081 0 5.942 0.667 8.804 2.222l61.179 32.435 61.18-32.435c6.382-3.554 13.864-2.889 19.587 1.333zM418.353 622.227c-5.503 2.887-11.884 2.887-17.386 0l-36.312-19.328 6.823 40.876c1.099 6.221-0.881 12.442-5.282 16.663l-29.49 28.881 40.713 5.997c6.162 0.889 11.443 4.666 14.084 10.442l18.045 37.1 18.266-37.1c2.641-5.554 7.923-9.331 14.084-10.22l40.713-5.998-29.269-28.879c-4.402-4.444-6.382-10.664-5.282-16.663l7.041-40.876-36.751 19.106zM980.186 957.47h-818.661c-83.187 0-150.749-68.203-150.749-152.178v-528.738c0-83.975 67.562-152.179 150.749-152.179h144.146v-158.843c0-7.776 4.621-14.441 11.443-17.551 2.202-0.888 4.621-1.333 7.043-1.333 5.062 0 9.684 1.999 13.204 5.554l170.775 172.172h127.861c10.342 0 18.706 8.443 18.706 18.883 0 10.442-8.363 18.885-18.706 18.885h-135.784c-4.842 0-9.684-1.999-13.204-5.555l-143.926-145.513v132.184c0 10.442-8.363 18.885-18.707 18.885h-162.851c-62.501 0-113.337 51.319-113.337 114.41v528.738c0 63.092 50.836 114.411 113.337 114.411h818.661c1.541 0 3.081 0 4.621-0.222l3.081-0.222v-135.072c0-10.442 8.363-18.883 18.706-18.883s18.707 8.441 18.707 18.883v126.185l4.841-2.444c39.172-19.328 63.38-58.65 63.38-102.637v-528.738c0-63.092-50.836-114.41-113.337-114.41h-156.25c-10.342 0-18.706-8.443-18.706-18.885s8.363-18.883 18.706-18.883h156.25c83.187 0 150.749 68.204 150.749 152.179v528.738c0 83.975-67.562 152.178-150.749 152.178zM732.18 162.148c-4.842 0-9.684-1.999-13.204-5.554-3.522-3.554-5.503-8.441-5.503-13.33 0-4.887 1.981-9.775 5.503-13.33 3.521-3.554 8.362-5.554 13.204-5.554s9.682 1.999 13.204 5.554c3.521 3.554 5.501 8.443 5.501 13.33s-1.981 9.775-5.501 13.33c-3.522 3.554-8.363 5.554-13.204 5.554zM1019.804 714.209c-3.521 3.554-8.362 5.554-13.204 5.554s-9.682-1.999-13.204-5.554c-3.521-3.554-5.501-8.441-5.501-13.33 0-4.887 1.981-9.775 5.501-13.33 3.522-3.554 8.363-5.554 13.204-5.554s9.684 1.999 13.204 5.554c3.522 3.554 5.503 8.443 5.503 13.33s-1.981 9.775-5.503 13.33z" />
<glyph unicode="&#xe921;" glyph-name="i5" horiz-adv-x="624" d="M603.141 807.433h-51.365v34.229h-34.67v-84.938h-34.671v84.938c0 64.654-52.649 117.899-119.422 117.899h-102.728c-66.774 0-119.422-53.245-119.422-117.899v-84.938h-34.671v84.938h-34.671v-34.229h-51.364c-8.989 0-16.693-7.606-16.693-16.48v-101.418c0-8.874 7.705-16.481 16.693-16.481h51.364v-50.709c0-93.812 77.046-168.608 170.786-168.608v-49.442c-75.762-36.764-107.865-128.041-69.342-202.837 11.557-24.088 29.535-44.37 52.649-59.584v-25.354h-34.671v-34.229h34.671v-35.497h-119.422c-8.989 0-16.693-7.606-16.693-16.48v-67.189c0-10.143 7.705-17.749 16.693-17.749h410.914c8.989 0 16.692 7.606 16.692 16.48v67.191c0 8.874-7.704 16.48-16.692 16.48h-119.422v34.229h34.671v34.229h-34.671v25.354c70.626 46.907 89.887 140.719 42.375 210.443-15.409 21.551-35.955 40.568-60.352 51.978v50.709c95.023 0 170.786 76.063 170.786 168.608v50.709h51.364c8.989 0 16.694 7.606 16.694 16.481v101.418c1.285 10.141-6.42 17.748-15.409 17.748zM71.521 706.014h-33.387v67.189h34.671v-67.189h-1.284zM174.25 655.305h86.035v34.229h-86.035v34.229h86.035v32.96h-86.035v34.229h86.035v34.229h-86.035v16.48c0 32.961 20.545 63.387 51.364 77.332v-60.851h34.671v67.19h34.671v-67.19h34.671v67.19h33.386v-67.19h34.671v60.851c30.819-13.945 51.364-44.371 51.364-77.332v-16.48h-86.035v-34.229h86.035v-34.229h-86.035v-34.229h86.035v-34.228h-86.035v-32.962h86.035v-16.48c0-32.962-20.545-63.387-51.364-77.332v60.851h-34.671v-68.457h-34.671v67.189h-34.671v-67.189h-33.386v67.189h-34.671v-60.851c-30.819 13.945-51.364 44.37-51.364 77.332v17.748zM500.413 12.564v-34.228h-377.527v34.228h377.527zM260.285 46.793v34.229h102.728v-34.229h-102.728zM431.070 266.111c0-41.835-23.114-81.136-60.352-102.687-3.852-2.535-7.705-7.606-7.705-13.945v-35.495h-34.671v93.812l46.229 45.638-24.399 24.086-38.524-38.032-39.806 39.3-24.399-24.088 46.227-45.638v-93.812h-33.386v35.497c0 6.339-3.852 11.409-8.989 15.213-57.785 32.96-77.046 105.221-43.66 161.002s106.581 76.064 163.082 43.103c38.522-21.551 60.352-60.851 60.352-103.953zM276.978 414.435v38.033h68.057v-38.033c-21.83 5.071-44.944 5.071-68.057 0zM517.106 621.076c0-74.796-61.637-135.648-137.4-135.648h-136.116c-75.762 1.268-137.399 60.852-137.399 135.648v101.418h34.671v-84.937c0-65.923 53.932-117.9 119.422-117.9h102.728c66.774 0 119.422 53.246 119.422 117.9v84.937h34.671v-101.418zM585.164 706.014h-34.671v67.189h34.671v-67.189z" />
<glyph unicode="&#xe922;" glyph-name="i6" d="M980.231 266.856c-0.989 6.514-2.372 12.833-3.952 19.347-0.198 0.79-0.396 1.58-0.593 2.369-3.953 13.82-9.684 26.85-17.193 39.092 41.894 36.327 62.842 91.212 56.123 146.096-0.197 2.369-0.79 4.541-0.987 6.91-0.593 3.949-1.384 7.897-2.372 11.846-0.593 2.765-1.383 5.726-2.174 8.49-0.79 2.961-1.976 6.12-2.965 9.081-1.185 3.159-2.173 6.516-3.556 9.476-3.953 9.082-8.695 17.967-14.031 26.259-0.593 0.987-1.383 2.172-1.976 3.159-2.569 3.751-5.138 7.305-8.102 10.661-0.987 1.185-1.976 2.369-2.965 3.356-2.963 3.355-5.731 6.712-8.892 9.871-0.593 0.592-1.383 1.185-1.976 1.776-5.335 5.134-11.264 10.069-17.193 14.61-2.569 1.975-5.335 3.948-7.904 5.726-0.989 0.592-1.976 1.579-2.965 2.172 7.905 18.756 12.054 38.893 12.054 59.228 0 5.134-0.197 10.069-0.79 15.005-0.197 1.579-0.394 3.159-0.79 4.935-0.396 3.356-0.79 6.516-1.582 9.674-0.394 1.975-0.987 3.752-1.383 5.726-0.593 2.765-1.383 5.726-2.173 8.292-0.593 1.975-1.384 3.949-1.976 5.924-0.989 2.566-1.779 5.133-2.767 7.699-0.79 1.975-1.779 3.948-2.569 5.923-0.989 2.369-2.173 4.738-3.359 7.107-0.989 1.975-2.174 3.751-3.163 5.726-1.185 2.172-2.569 4.344-3.952 6.516-1.186 1.973-2.569 3.751-3.755 5.527-1.383 1.975-2.965 3.949-4.348 5.923-1.383 1.777-2.965 3.554-4.348 5.331-1.58 1.776-3.162 3.554-4.742 5.33-1.582 1.777-3.162 3.356-4.94 4.937-1.779 1.579-3.36 3.158-5.139 4.738-1.777 1.579-3.556 3.158-5.532 4.541-1.779 1.382-3.557 2.764-5.533 4.145s-3.952 2.962-5.929 4.147c-1.779 1.185-3.755 2.369-5.731 3.356-2.173 1.185-4.348 2.566-6.521 3.751-1.976 0.987-3.953 1.973-5.929 2.764-2.372 1.185-4.545 2.172-6.916 3.159-1.976 0.789-4.15 1.579-6.126 2.172-2.372 0.789-4.742 1.776-7.311 2.566-2.372 0.79-4.94 1.185-7.312 1.975-3.952 0.986-7.905 1.776-11.857 2.566-2.767 0.394-5.533 0.987-8.498 1.382-3.359 72.851-55.53 134.251-127.066 149.058-71.734 14.61-144.259-20.532-176.668-85.881-32.409 65.349-104.933 100.491-176.272 85.684s-123.708-76.207-127.067-149.058c-3.952-0.396-7.707-1.185-11.461-1.777-0.791-0.197-1.582-0.197-2.569-0.394-4.743-0.987-9.487-2.172-14.031-3.554-1.58-0.394-2.965-1.185-4.545-1.58-2.965-0.986-5.929-1.973-8.892-3.355-1.779-0.79-3.557-1.58-5.336-2.369-2.569-1.185-5.138-2.369-7.707-3.752-1.779-0.986-3.557-1.973-5.336-3.158-2.372-1.382-4.545-2.765-6.916-4.147-1.779-1.185-3.359-2.369-5.138-3.554-2.174-1.579-4.348-3.159-6.324-4.738-1.582-1.382-3.162-2.764-4.743-4.145-1.976-1.777-3.952-3.356-5.731-5.331-1.581-1.382-2.964-2.961-4.545-4.541-1.778-1.776-3.557-3.751-5.138-5.726-1.383-1.579-2.767-3.158-4.15-4.935-1.581-1.975-3.162-4.145-4.743-6.317-1.186-1.777-2.371-3.554-3.557-5.331-1.383-2.172-2.767-4.541-4.15-6.713-0.988-1.776-2.174-3.554-3.162-5.527-1.186-2.369-2.371-4.738-3.557-7.306-0.79-1.973-1.778-3.751-2.569-5.724-0.988-2.568-1.976-5.134-2.767-7.7-0.593-1.975-1.383-3.751-1.976-5.726-0.79-2.764-1.581-5.528-2.174-8.489-0.395-1.975-0.988-3.751-1.383-5.528-0.593-3.159-0.988-6.514-1.581-9.674-0.198-1.579-0.593-3.159-0.593-4.738-0.395-4.935-0.791-9.872-0.791-15.005 0-20.335 3.952-40.472 12.055-59.228-0.988-0.593-1.976-1.58-3.162-2.172-2.569-1.777-5.138-3.554-7.707-5.528-6.126-4.541-12.055-9.476-17.588-14.808-0.593-0.592-1.186-0.987-1.581-1.579-3.162-3.159-6.126-6.516-9.090-9.871-0.988-1.185-1.976-2.172-2.767-3.356-2.767-3.554-5.533-7.107-8.102-10.661-0.79-0.987-1.383-2.172-1.976-3.159-7.312-11.254-13.24-23.297-17.588-35.932-0.988-2.961-2.174-5.923-2.964-9.082-0.79-2.764-1.581-5.527-2.174-8.489-0.988-3.948-1.581-7.896-2.371-11.846-0.395-2.369-0.79-4.541-0.988-6.91-6.719-55.082 14.228-109.769 56.123-146.096-7.509-12.241-13.24-25.271-17.193-39.092-0.198-0.789-0.395-1.579-0.593-2.369-1.779-6.317-3.162-12.833-3.952-19.347-0.198-0.987-0.198-2.172-0.395-3.159-0.79-6.713-1.383-13.425-1.383-20.335-0.395-74.628 51.182-139.384 123.905-155.968 0.396-1.777 1.186-3.752 1.58-5.528 0.593-1.777 0.989-3.554 1.582-5.331 1.383-4.145 2.766-8.095 4.348-12.043 0.593-1.185 0.989-2.566 1.58-3.751 6.719-15.795 15.81-30.601 26.678-43.83 0.593-0.789 1.383-1.579 2.174-2.369 2.963-3.355 5.928-6.712 9.090-10.068 0.989-0.987 2.174-2.172 3.162-3.159 2.965-2.764 5.929-5.528 9.091-8.292 1.186-1.185 2.569-2.172 3.755-3.159 3.162-2.566 6.521-4.935 9.682-7.305 1.384-0.987 2.57-1.975 3.953-2.764 4.545-2.962 9.288-5.923 14.030-8.489 0.989-0.593 1.976-0.987 2.965-1.383 3.952-1.973 7.905-3.948 12.054-5.726 2.174-0.986 4.15-1.579 6.324-2.566 3.162-1.185 6.126-2.369 9.288-3.356 2.372-0.789 4.743-1.382 6.916-2.171 3.162-0.987 6.324-1.777 9.684-2.568 2.372-0.592 4.545-0.986 6.916-1.579 3.557-0.592 7.312-1.185 11.067-1.776 1.976-0.198 3.952-0.593 5.928-0.79 5.731-0.593 11.66-0.79 17.39-0.79 72.722 0.197 138.528 42.447 168.566 108.586 30.037-65.941 96.041-108.389 168.566-108.586 5.928 0 11.66 0.396 17.39 0.79 1.976 0.197 3.952 0.592 5.928 0.79 3.755 0.394 7.312 0.986 11.067 1.776 2.372 0.394 4.742 0.987 6.916 1.579 3.162 0.79 6.521 1.58 9.684 2.568 2.37 0.592 4.742 1.382 6.916 2.171 3.162 0.987 6.324 2.172 9.287 3.356 2.174 0.79 4.348 1.58 6.325 2.566 4.149 1.777 8.102 3.752 12.054 5.726 0.987 0.593 1.976 0.987 2.965 1.383 4.742 2.566 9.485 5.527 14.030 8.489 1.383 0.987 2.569 1.776 3.952 2.764 3.36 2.369 6.522 4.738 9.684 7.305 1.383 0.987 2.569 2.172 3.755 3.159 3.162 2.566 6.126 5.331 9.090 8.292 0.989 0.987 2.174 2.172 3.163 3.159 3.162 3.159 6.125 6.514 9.090 10.068 0.593 0.79 1.383 1.58 2.174 2.369 10.868 13.229 19.959 28.035 26.677 43.83 0.593 1.185 0.989 2.566 1.582 3.751 1.58 3.948 3.162 7.897 4.348 12.043 0.593 1.777 1.186 3.554 1.58 5.331 0.593 1.776 1.186 3.554 1.582 5.528 72.722 16.584 124.3 81.34 123.904 155.968 0 6.712-0.593 13.622-1.383 20.335 0.989 1.185 0.79 2.369 0.593 3.356zM493.11 791.026h-36.757c-8.299 23.297-32.013 37.117-56.32 32.97-24.307-4.145-42.091-25.27-42.091-49.751s17.785-45.606 42.091-49.752c24.307-4.145 48.021 9.675 56.32 32.97h36.757v-61.991l-73.315-102.466-61.853 27.245c0 0.79 0.197 1.58 0.197 2.568 0.197 24.678-17.193 46-41.5 50.739s-48.415-8.688-57.307-31.589c-8.894-22.902-0.198-49.16 20.749-61.992s48.218-9.082 64.818 9.279l61.26-26.85c4.149-1.776 8.892-2.764 13.437-2.764 10.87 0 21.145 5.33 27.468 14.017l45.847 63.966v-132.671h-137.935c-8.301 23.297-32.015 37.117-56.32 32.97-24.307-4.145-42.093-25.27-42.093-49.751 0-24.678 17.786-45.606 42.093-49.752 24.305-4.145 48.019 9.675 56.32 32.97h137.935v-67.322h-36.757c-8.299 23.297-32.013 37.117-56.32 32.97-24.307-4.145-42.093-25.27-42.093-49.751 0-24.678 17.786-45.606 42.093-49.752s48.021 9.674 56.32 32.97h36.757v-67.322h-137.935c-16.007 0-29.84-11.451-33.002-27.048l-11.857-59.426c-23.318-7.107-38.14-30.010-35.175-54.095 2.963-24.284 22.922-42.842 47.229-44.027s46.045 15.202 51.578 39.092c5.533 23.888-7.115 47.975-29.643 57.451l10.87 54.489h137.935v-134.843c0-83.709-67.98-151.624-151.768-151.624-4.94 0-9.684 0.197-14.426 0.79-1.779 0.197-3.36 0.394-5.139 0.592-2.963 0.394-5.928 0.79-8.892 1.382-1.976 0.396-3.952 0.79-6.126 1.382-2.569 0.593-5.138 1.185-7.707 1.975-1.976 0.593-4.15 1.185-6.126 1.975-2.372 0.789-4.743 1.776-7.114 2.566-1.976 0.79-3.953 1.579-5.929 2.369-2.372 0.987-4.742 2.172-7.114 3.554-1.779 0.79-3.36 1.777-5.138 2.566-2.767 1.58-5.336 3.159-8.102 4.935-1.186 0.79-2.372 1.383-3.557 2.172-7.707 5.331-15.019 11.254-21.738 17.967-0.197 0.197-0.396 0.592-0.79 0.789-2.965 3.159-5.929 6.318-8.695 9.674-0.593 0.593-0.989 1.186-1.582 1.975-2.37 2.962-4.742 6.12-6.916 9.279-0.593 0.79-1.186 1.579-1.58 2.566-1.976 3.159-3.953 6.318-5.731 9.476-0.593 0.987-0.989 1.975-1.582 2.962-1.779 3.159-3.162 6.514-4.743 9.674-0.394 1.185-0.987 2.172-1.383 3.356-1.383 3.356-2.569 6.713-3.755 10.267-0.394 1.185-0.79 2.172-1.186 3.356-1.186 3.751-2.173 7.699-2.963 11.45-0.198 0.79-0.396 1.58-0.593 2.568-8.695 42.447 1.383 86.472 27.27 121.023 5.533 7.502 4.15 17.966-3.359 23.494s-17.983 4.145-23.517-3.356c-24.108-31.983-37.151-71.074-37.151-111.152 0-3.356 0.394-6.514 0.593-9.871-50.985 17.571-84.975 65.546-84.777 119.444 0 6.91 0.593 13.819 1.779 20.729 0.198 0.79 0.395 1.58 0.593 2.369 3.557 19.546 11.857 38.104 24.109 53.898 0.198 0.198 0.198 0.396 0.198 0.396 16.007 20.532 37.744 35.734 62.841 43.434 8.894 2.764 13.833 12.24 11.067 21.125s-12.253 13.82-21.145 11.055c-26.085-8.095-49.799-22.507-68.572-42.249-28.259 25.469-44.266 61.795-44.463 99.898 0 5.726 0.395 11.254 1.186 16.979 0.198 1.776 0.593 3.554 0.791 5.33 0.593 3.752 1.383 7.7 2.371 11.254 0.395 1.975 0.988 3.751 1.383 5.726 1.383 4.541 2.964 9.082 4.94 13.623 1.186 2.566 2.371 5.133 3.557 7.502 0.988 2.172 2.174 4.145 3.359 6.12 1.581 2.765 3.162 5.331 4.94 7.897 0.988 1.579 2.174 2.961 3.162 4.344 3.359 4.54 6.917 8.884 10.671 12.833 1.581 1.579 2.964 3.158 4.545 4.738 1.976 1.973 4.15 3.948 6.324 5.724 2.371 1.975 4.94 3.949 7.509 5.924 1.976 1.579 4.15 2.961 6.126 4.343 3.952 2.566 7.905 4.935 12.055 7.107 19.169 9.872 40.313 15.005 61.854 15.005 9.288 0 16.797 7.503 16.797 16.781s-7.509 16.782-16.797 16.782c-20.156 0-39.918-3.751-58.692-10.661-5.731 14.017-8.695 29.219-8.695 44.421 0 41.657 22.132 80.352 58.099 101.674 35.966 21.125 80.627 21.915 117.186 1.58 8.102-4.541 18.378-1.58 22.922 6.514 4.546 8.095 1.582 18.361-6.521 22.902-17.39 9.674-36.559 15.596-56.32 17.966 3.952 68.31 61.458 121.023 129.833 119.049s122.718-58.044 122.718-126.354v-9.082h-0.197zM425.526 774.048c0-9.279-7.509-16.782-16.797-16.782s-16.797 7.503-16.797 16.782c0 9.279 7.509 16.781 16.797 16.781 9.288 0.197 16.797-7.502 16.797-16.781zM324.348 622.423c0-9.279-7.509-16.781-16.797-16.781s-16.797 7.502-16.797 16.781c0 9.279 7.509 16.782 16.797 16.782 9.288 0.197 16.797-7.503 16.797-16.782zM324.348 487.777c0-9.279-7.509-16.781-16.797-16.781s-16.797 7.502-16.797 16.781c0 9.279 7.509 16.782 16.797 16.782s16.797-7.503 16.797-16.782zM425.526 386.694c0-9.279-7.509-16.781-16.797-16.781s-16.797 7.502-16.797 16.781c0 9.279 7.509 16.781 16.797 16.781s16.797-7.502 16.797-16.781zM341.342 167.549c0-9.279-7.509-16.781-16.797-16.781s-16.797 7.502-16.797 16.781c0 9.279 7.509 16.781 16.797 16.781 9.091 0.198 16.797-7.502 16.797-16.781zM863.441 124.115c0.197 3.356 0.593 6.516 0.593 9.871 0.197 40.079-12.846 79.169-37.152 111.152-5.532 7.503-16.203 8.885-23.515 3.356s-8.892-16.189-3.36-23.494c25.888-34.549 35.966-78.576 27.271-121.023-0.197-0.79-0.396-1.579-0.593-2.566-0.79-3.949-1.779-7.7-2.965-11.451-0.394-1.185-0.79-2.172-1.185-3.356-1.186-3.356-2.372-6.91-3.756-10.267-0.394-1.185-0.987-2.172-1.383-3.356-1.383-3.355-2.963-6.514-4.742-9.674-0.593-0.987-0.989-1.973-1.582-2.961-1.779-3.159-3.755-6.318-5.731-9.476-0.593-0.79-0.989-1.58-1.582-2.568-2.173-3.158-4.545-6.317-6.916-9.279-0.593-0.592-0.987-1.185-1.58-1.973-2.767-3.356-5.731-6.516-8.695-9.674-0.197-0.198-0.396-0.593-0.79-0.79-6.719-6.713-14.031-12.636-21.738-17.966-1.186-0.79-2.372-1.58-3.557-2.172-2.569-1.777-5.335-3.356-8.102-4.937-1.779-0.986-3.359-1.776-5.138-2.566-2.372-1.185-4.743-2.369-7.114-3.554-1.977-0.789-3.953-1.579-5.929-2.369-2.372-0.987-4.743-1.776-7.114-2.566-1.977-0.592-4.15-1.382-6.126-1.975-2.569-0.789-5.138-1.382-7.708-1.973-1.976-0.396-3.952-0.987-6.125-1.383-2.965-0.592-5.929-0.986-8.894-1.382-1.777-0.197-3.359-0.592-5.138-0.592-4.742-0.396-9.682-0.79-14.426-0.79-83.788 0-151.768 67.915-151.768 151.624v61.992l73.315 102.466 61.855-27.245c0-0.79-0.198-1.58-0.198-2.568-0.197-24.678 17.193-46 41.5-50.739s48.415 8.688 57.307 31.589c8.894 22.902 0.198 49.16-20.749 61.992s-48.218 9.082-64.818-9.279l-61.26 26.85c-14.623 6.317-31.618 1.579-40.906-11.254l-45.847-63.966v132.671h137.935c8.301-23.297 32.015-37.117 56.32-32.97 24.307 4.145 42.093 25.27 42.093 49.751s-17.786 45.606-42.093 49.752c-24.305 4.145-48.019-9.675-56.32-32.97h-137.935v67.322h36.757c8.301-23.297 32.015-37.117 56.32-32.97 24.307 4.145 42.093 25.27 42.093 49.751 0 24.678-17.786 45.606-42.093 49.752-24.305 4.145-48.019-9.674-56.32-32.97h-36.757v84.302h53.554c16.007 0 29.84 11.45 33.002 27.048l11.857 59.425c23.318 7.107 38.14 30.010 35.175 54.096-2.963 24.085-22.922 42.841-47.229 44.026s-46.045-15.202-51.578-39.090c-5.335-23.691 7.114-47.975 29.643-57.451l-10.87-54.491h-53.554v160.509c0 68.31 54.344 124.38 122.719 126.354s125.881-50.739 129.833-119.049c-20.749-2.369-40.708-8.884-58.692-19.15-8.102-4.738-10.671-15.005-6.126-22.901 4.743-8.095 15.019-10.859 22.924-6.121 36.558 21.125 81.417 20.928 117.976 0 36.558-21.125 59.086-60.018 59.086-102.070 0-15.202-2.963-30.404-8.695-44.421-18.773 7.107-38.732 10.661-58.692 10.661-9.287 0-16.797-7.502-16.797-16.781s7.511-16.781 16.797-16.781c21.541 0 42.686-5.134 61.853-15.005 4.15-2.172 8.102-4.541 12.055-7.107 2.173-1.382 4.149-2.962 6.126-4.344 2.569-1.973 5.138-3.751 7.509-5.923 2.173-1.776 4.348-3.751 6.324-5.726 1.58-1.579 2.963-3.158 4.545-4.738 3.755-4.145 7.312-8.489 10.671-12.833 0.989-1.382 2.174-2.961 3.162-4.343 1.779-2.568 3.359-5.331 4.94-7.897 1.186-1.975 2.174-4.147 3.359-6.12 1.186-2.568 2.57-4.937 3.557-7.503 1.976-4.343 3.557-8.884 4.94-13.622 0.593-1.777 0.989-3.752 1.383-5.726 0.989-3.751 1.779-7.503 2.372-11.254 0.197-1.776 0.593-3.554 0.79-5.33 0.791-5.528 1.186-11.254 1.186-16.979 0-38.103-16.204-74.232-44.463-99.898-18.971 19.743-42.487 34.155-68.573 42.249-8.892 2.764-18.378-2.172-21.145-11.057s2.174-18.36 11.067-21.125c24.9-7.699 46.835-22.704 62.644-43.434 0.198-0.197 0.198-0.394 0.198-0.592 12.251-15.795 20.552-34.551 24.108-54.292 0.198-0.593 0.396-1.185 0.396-1.975 1.186-6.91 1.779-13.82 1.779-20.73 0.394-54.095-33.792-102.267-84.777-119.641zM695.468 268.632c0 9.279 7.509 16.782 16.797 16.782s16.797-7.503 16.797-16.782c0-9.279-7.509-16.781-16.797-16.781s-16.797 7.502-16.797 16.781zM695.468 403.475c0 9.279 7.509 16.782 16.797 16.782s16.797-7.503 16.797-16.782c0-9.278-7.509-16.781-16.797-16.781s-16.797 7.503-16.797 16.781zM594.289 504.559c0 9.279 7.509 16.781 16.797 16.781s16.797-7.502 16.797-16.781c0-9.279-7.509-16.782-16.797-16.782s-16.797 7.503-16.797 16.782zM594.289 740.485c0 9.279 7.509 16.781 16.797 16.781s16.797-7.502 16.797-16.781c0-9.279-7.509-16.781-16.797-16.781-9.288-0.198-16.797 7.305-16.797 16.781z" />
<glyph unicode="&#xe923;" glyph-name="i7" horiz-adv-x="1038" d="M945.019 473.749h-203.949l4.043 10.846c26.68 71.299 40.223 146.213 40.223 222.733v45.591c0 45.391-37.191 82.346-82.873 82.346s-82.873-36.955-82.873-82.346c0-71.901-28.097-139.384-79.235-189.995l-89.747-89.175h-29.106v38.161c0 12.251-9.904 22.092-22.235 22.092h-99.044v38.159c0 12.252-9.904 22.094-22.234 22.094h-246.599c-12.33 0-22.234-9.842-22.234-22.094v-602.524c0-12.252 9.904-22.092 22.234-22.092h246.599c12.33 0 22.234 9.84 22.234 22.092v38.159h99.044c9.298 0 17.585 5.825 20.82 14.461l4.446 11.649 27.086-26.914c38.608-38.36 89.948-59.448 144.524-59.448h288.237c45.682 0 82.875 36.955 82.875 82.345 0 10.443-2.022 20.686-5.863 30.326l-3.435 8.436 8.691 2.41c35.98 9.84 61.043 42.378 61.043 79.533 0 20.285-7.478 39.767-21.224 54.83l-4.85 5.423 4.85 5.423c13.746 15.063 21.224 34.545 21.224 54.829s-7.478 39.767-21.224 54.83l-4.85 5.423 4.85 5.423c13.746 15.063 21.224 34.545 21.224 54.83 0.202 45.189-36.989 82.144-82.671 82.144zM255.755-8.271h-202.131v558.34h202.131v-558.34zM377.032 51.982h-76.81v437.835h76.81v-437.835zM762.091 216.068l4.852-5.421-4.852-5.423c-13.745-15.064-21.223-34.545-21.223-54.83s7.478-39.767 21.223-54.83l4.852-5.423-4.852-5.423c-13.745-15.063-21.223-34.545-21.223-54.829 0-9.44 1.617-18.679 4.85-27.515l3.841-10.645h-153.417c-42.65 0-82.873 16.469-113.194 46.595l-61.447 61.056v330.184h38.404c5.863 0 11.522 2.21 15.767 6.427l96.214 95.601c59.427 59.047 92.172 137.777 92.172 221.327 0 21.089 17.182 38.161 38.404 38.161 21.224 0 38.406-17.072 38.406-38.161v-45.591c0-85.557-18.193-168.506-53.767-246.432-3.235-6.829-2.628-14.662 1.617-21.089 4.043-6.427 11.117-10.243 18.596-10.243h42.043l-3.841-10.644c-3.234-8.838-4.852-18.076-4.852-27.517 0-20.284 7.48-39.766 21.224-54.829l4.852-5.423-4.852-5.423c-13.745-15.063-21.224-34.545-21.224-54.83s7.681-39.766 21.426-54.83zM884.38-8.271h-60.638c-21.224 0-38.406 17.072-38.406 38.161 0 21.087 17.182 38.159 38.406 38.159h60.638c21.224 0 38.406-17.072 38.406-38.159 0-21.089-17.182-38.161-38.406-38.161zM945.019 112.233h-121.278c-21.224 0-38.406 17.072-38.406 38.161s17.182 38.159 38.406 38.159h121.278c21.224 0 38.404-17.071 38.404-38.159s-17.18-38.161-38.404-38.161zM945.019 232.739h-121.278c-21.224 0-38.406 17.071-38.406 38.159s17.182 38.161 38.406 38.161h121.278c21.224 0 38.404-17.072 38.404-38.161s-17.18-38.159-38.404-38.159zM945.019 353.244h-121.278c-21.224 0-38.406 17.072-38.406 38.159 0 21.089 17.182 38.161 38.406 38.161h121.278c21.224 0 38.404-17.072 38.404-38.161 0-21.087-17.18-38.159-38.404-38.159zM156.714 68.037c12.279 0 22.234 9.891 22.234 22.092s-9.954 22.092-22.234 22.092c-12.281 0-22.235-9.891-22.235-22.092s9.954-22.092 22.235-22.092zM823.713 915.589c12.281 0 22.235 9.891 22.235 22.093s-9.954 22.093-22.235 22.093c-12.279 0-22.234-9.891-22.234-22.093s9.954-22.093 22.234-22.093zM268.278 796.29l74.182-36.955 37.193-73.709c3.839-7.632 11.319-12.252 19.808-12.252 8.692 0 15.969 4.62 19.809 12.252l37.191 73.709 74.182 36.955c7.681 3.816 12.33 11.247 12.33 19.682 0 8.636-4.648 15.867-12.33 19.683l-74.182 36.754-36.989 75.115c-3.841 7.632-11.319 12.251-20.011 12.251-8.691 0-16.171-4.619-20.011-12.251l-37.191-74.914-74.182-36.754c-7.68-3.816-12.33-11.247-12.33-19.682 0.202-8.837 4.852-16.067 12.532-19.883zM368.94 836.458c4.245 2.209 7.883 5.623 9.904 10.042l20.415 41.373 20.415-41.373c2.224-4.218 5.659-7.833 9.904-10.042l41.034-20.486-41.034-20.485c-4.245-2.21-7.882-5.623-9.904-9.842l-20.213-40.771-20.617 40.771c-2.224 4.219-5.659 7.833-9.904 9.842l-41.034 20.485 41.034 20.486zM884.375 670.551h38.404v-38.159c0-12.252 9.904-22.092 22.235-22.092s22.234 9.84 22.234 22.092v38.159h38.404c12.33 0 22.235 9.842 22.235 22.092 0 12.252-9.905 22.094-22.235 22.094h-38.404v38.159c0 12.252-9.904 22.092-22.234 22.092s-22.235-9.84-22.235-22.092v-38.159h-38.404c-12.33 0-22.235-9.842-22.235-22.094s9.905-22.092 22.235-22.092z" />
<glyph unicode="&#xe924;" glyph-name="ico8" horiz-adv-x="896" d="M224 768h448c17.673 0 32-14.327 32-32s-14.327-32-32-32h-448c-17.673 0-32 14.327-32 32s14.327 32 32 32zM224 576h448c17.673 0 32-14.327 32-32s-14.327-32-32-32h-448c-17.673 0-32 14.327-32 32s14.327 32 32 32zM224 384h448c17.673 0 32-14.327 32-32s-14.327-32-32-32h-448c-17.673 0-32 14.327-32 32s14.327 32 32 32zM224 192h448c17.673 0 32-14.327 32-32s-14.327-32-32-32h-448c-17.673 0-32 14.327-32 32s14.327 32 32 32z" />
<glyph unicode="&#xe925;" glyph-name="ico8_2" horiz-adv-x="896" d="M224 768h448c17.673 0 32-14.327 32-32s-14.327-32-32-32h-448c-17.673 0-32 14.327-32 32s14.327 32 32 32zM224 576h448c17.673 0 32-14.327 32-32s-14.327-32-32-32h-448c-17.673 0-32 14.327-32 32s14.327 32 32 32zM224 384h448c17.673 0 32-14.327 32-32s-14.327-32-32-32h-448c-17.673 0-32 14.327-32 32s14.327 32 32 32zM224 192h448c17.673 0 32-14.327 32-32s-14.327-32-32-32h-448c-17.673 0-32 14.327-32 32s14.327 32 32 32z" />
<glyph unicode="&#xe926;" glyph-name="inst" horiz-adv-x="1067" d="M513.579 960c-283.887 0-513.579-228.985-513.579-512 0-283.017 229.692-512 513.579-512 283.891 0 513.583 228.983 513.583 512-2.581 283.015-232.273 512-513.583 512zM805.21 509.747v-239.275c0-61.747-51.614-113.207-113.553-113.207h-358.733c-61.939 0-113.555 51.46-113.555 113.207v357.628c0 61.748 51.616 113.206 113.555 113.206h358.733c61.939 0 113.553-51.457 113.553-113.206v-118.353zM513.574 347.661c56.781 0 103.232 46.31 103.232 102.916 0 23.155-7.74 43.738-20.646 59.174-18.065 25.728-49.033 43.738-82.586 43.738-33.549 0-64.521-18.010-82.586-43.738-12.902-18.010-20.645-38.592-20.645-59.174 0-59.179 46.454-102.916 103.231-102.916zM735.531 574.075v97.769h-98.074v-97.769h98.074zM671.010 448c0-87.475-72.265-159.518-160.013-159.518-87.746 0-160.008 72.043-160.008 159.518 0 20.582 5.161 41.169 12.904 59.179h-87.747v-239.279c0-30.874 25.808-56.602 56.778-56.602h358.733c30.967 0 56.777 25.728 56.777 56.602v239.279h-87.748c7.744-18.010 10.325-36.023 10.325-59.179z" />
<glyph unicode="&#xe927;" glyph-name="like" horiz-adv-x="1097" d="M182.742 594.254h-146.242c-20.196 0-36.5-16.304-36.5-36.502v-585.247c0-20.195 16.303-36.506 36.5-36.506h146.242c20.196 0 36.499 16.311 36.499 36.506v585.247c0.244 20.198-16.303 36.502-36.499 36.502zM1096.448 497.399c-6.568 56.7-59.377 96.851-116.56 96.851h-285.18c24.332 43.316 37.233 166.205 36.743 216.335-0.974 82.981-69.836 149.415-152.812 149.415h-30.173c-20.197 0-36.5-16.304-36.5-36.502 0-84.684-32.85-237.262-95.142-299.316-41.853-41.855-77.623-56.942-124.342-80.304v-548.743c71.782-23.852 162.788-58.895 301.73-58.895h239.193c78.841 0 140.164 73.004 109.744 150.148 46.475 12.654 80.786 55.237 80.786 105.852 0 14.358-2.677 27.984-7.79 40.398 78.358 21.414 107.315 118.266 52.809 179.103 20.195 21.901 31.144 52.563 27.494 85.658z" />
<glyph unicode="&#xe928;" glyph-name="link" d="M512 960c-285.091 0-512-226.909-512-512 0-285.093 226.909-512 512-512 285.093 0 512 226.907 512 512 0 285.091-226.907 512-512 512zM389.818 392.727l-32-32.001c-8.727-8.727-23.273-8.727-32 0l-58.181 58.183c-37.819 37.818-58.182 87.273-58.182 139.636 0 107.637 87.273 194.909 194.909 194.909 52.364 0 101.819-20.364 139.637-58.182l58.18-58.182c8.727-8.727 8.727-23.273 0-32l-32-32c-8.726-8.727-23.271-8.727-31.998 0l-58.182 58.182c-17.455 17.455-43.637 29.091-72.727 29.091-55.273 0-101.818-46.545-101.818-101.818 0-29.091 11.636-52.363 29.091-72.727l58.182-58.181c5.818-11.637 5.818-26.182-2.909-34.909zM401.455 523.637l32 32c8.727 8.727 23.273 8.727 32 0l154.179-154.182c8.732-8.727 8.732-23.274 0-32.001l-32-32c-8.727-8.727-23.27-8.727-31.997 0l-154.182 154.183c-8.727 8.727-8.727 23.273 0 32zM619.634 145.454c-52.361 0-101.816 20.366-139.634 58.18l-58.182 58.186c-8.727 8.727-8.727 23.273 0 32l32 32c8.727 8.727 23.273 8.727 32 0l58.182-58.186c17.455-17.454 43.634-29.087 72.727-29.087 55.273 0 101.82 46.546 101.82 101.82 0 29.087-11.639 52.361-29.093 72.724l-58.18 58.182c-8.727 8.727-8.727 23.273 0 32l32 32c8.727 8.727 23.273 8.727 32 0l58.18-58.182c37.82-37.818 58.18-87.271 58.18-139.637 2.913-104.727-84.361-192-192-192z" />
<glyph unicode="&#xe929;" glyph-name="link2" d="M581.892 228.89l-123.888-123.872c-38.372-38.534-90.449-60.006-144.17-59.456-111.828-0.55-203.373 89.734-203.921 202.042-0.548 55.053 21.379 107.356 60.299 145.894l124.436 123.869c21.379 21.471 21.379 56.154 0 77.625s-55.914 21.471-77.293 0l-124.984-122.768c-122.243-121.667-123.34-320.408-2.193-443.18 59.203-60.006 139.784-93.587 223.656-93.037h0.548c83.323-0.55 163.356 32.48 222.011 91.936l123.888 124.422c21.376 21.472 20.832 56.154-0.55 77.626-21.925 20.922-56.46 20.922-77.839-1.101zM710.17 959.993c-83.871 0.551-163.905-32.481-222.559-91.939l-123.34-123.869c-21.379-21.471-20.831-56.154 0.548-77.625s55.914-20.92 77.293 0.55l123.888 123.869c38.372 38.537 90.449 60.008 144.17 59.457 111.827 0.55 203.373-89.736 203.923-202.045 0.544-55.053-21.382-107.354-60.301-145.891l-124.435-123.869c-21.382-21.471-21.926-56.154-0.55-77.622 21.382-21.472 55.917-22.022 77.293-0.55l0.55 0.55 124.986 122.765c122.24 121.667 123.334 320.409 2.189 443.177-59.2 60.008-139.782 93.59-223.654 93.040zM285.331 220.627c21.379-21.472 55.914-21.472 77.293 0l375.501 377.114c21.376 21.471 21.376 56.154 0 77.625-21.382 21.471-55.917 21.471-77.293 0l-375.501-377.113c-21.379-21.472-21.379-56.154 0-77.626z" />
<glyph unicode="&#xe92a;" horiz-adv-x="3602" d="M1082.52 477.714c-6.119 100.988-43.064 193.869-102.305 270.752-123.509-11.013-229.969-35.532-321.561-68.364 0.438-2.909 0.653-5.818 0.653-8.935 129.193-30.546 272.38-89.973 422.121-194.909 0.438 0.621 0.657 1.038 1.091 1.455z" />
<glyph unicode="&#xe92b;" horiz-adv-x="3602" d="M354.788 555.633c41.97 33.040 90.063 65.247 145.369 94.753-0.876 3.117-1.529 6.234-1.967 9.559-70.172 5.61-134.003 2.909-189.528-3.74-20.767-2.494-40.66-5.61-59.897-9.143 5.246-23.065 10.93-45.299 17.051-66.701 4.154 0.417 8.307 0.621 12.46 0.621 28.855-0.205 55.306-9.763 76.511-25.349z" />
<glyph unicode="&#xe92c;" horiz-adv-x="3602" d="M241.341 682.805c20.111 3.74 40.878 6.857 62.52 9.558 58.148 7.065 124.821 9.766 198.27 3.948 11.151 29.714 41.098 51.117 76.295 51.117 27.542 0 51.807-13.091 66.454-33.039 88.315 31.792 190.182 55.896 306.914 68.156-99.462 108.675-246.145 177.455-410.094 177.455-120.888 0-232.373-37.402-322.437-100.571 3.716-62.961 11.367-121.766 22.079-176.623z" />
<glyph unicode="&#xe92d;" horiz-adv-x="3602" d="M113.892 180.778c114.11-23.065 217.071-29.922 309.101-25.558 1.314 10.805 4.59 20.988 9.619 30.339-40.441 46.959-79.57 101.609-114.328 165.401-12.679-4.152-26.014-6.441-40.004-6.441-22.516 0-43.502 5.819-61.646 15.794-50.934-68.573-83.287-132.781-102.743-179.535z" />
<glyph unicode="&#xe92e;" horiz-adv-x="3602" d="M513.928 232.727c38.040 0 70.829-22.235 84.6-53.612 111.923 25.561 201.77 67.326 270.191 109.716 85.253 52.987 147.555 112.414 188.653 159.168-144.493 100.988-282.433 158.339-406.818 187.844-13.333-25.143-40.66-42.39-72.354-42.39-23.612 0-44.816 9.767-59.678 24.935-52.249-27.845-97.933-58.184-137.721-89.352 13.552-18.909 21.423-41.765 21.423-66.285 0-38.856-19.89-73.142-50.278-94.752 32.354-58.806 68.205-109.925 105.365-153.766 15.957 11.426 35.413 18.492 56.617 18.492z" />
<glyph unicode="&#xe92f;" horiz-adv-x="3602" d="M203.742 675.118c-9.4 49.039-16.614 100.987-20.986 156.26-67.985-56.727-120.668-129.455-151.491-211.948 45.032 19.325 103.18 40.104 172.476 55.688z" />
<glyph unicode="&#xe930;" horiz-adv-x="3602" d="M966.218 131.739c72.577 89.353 105.585 170.39 116.732 288.832-43.064-48.001-106.238-107.22-192.805-161.040-71.92-44.675-166.354-88.728-284.181-115.324-0.657-19.947-8.090-38.234-20.551-52.57 3.28-2.701 6.561-5.402 10.056-7.899 102.089-78.961 203.299-123.011 270.41-146.284h198.709c15.085 0 23.827 16.207 14.866 27.637l-113.237 166.647z" />
<glyph unicode="&#xe931;" horiz-adv-x="3602" d="M570.552 54.233c-5.466 4.156-10.929 8.52-16.614 13.093-12.023-5.611-25.575-8.937-40.003-8.937-40.879 0-75.419 25.353-87.224 60.469-18.58-0.833-37.598-1.663-57.054-1.663-80.882 0-168.979 8.52-264.726 28.051 98.589-126.75 257.512-209.246 436.765-209.246 0.438 0 1.095 0 1.529 0h222.536c-58.146 27.012-126.132 65.038-195.21 118.233z" />
<glyph unicode="&#xe932;" horiz-adv-x="3602" d="M75.855 189.090c20.111 49.452 54.65 119.271 110.612 194.076-20.111 20.988-32.572 48.831-32.572 79.378 0 48.414 30.823 89.974 74.762 108.258-6.339 22.027-12.023 44.885-17.488 68.365-82.85-18.909-149.523-45.506-195.211-67.115-10.274-39.689-15.958-81.249-15.958-123.848 0-94.335 27.107-182.855 74.324-258.701 0.437-0.205 0.874-0.205 1.53-0.413z" />
<glyph unicode="&#xe933;" horiz-adv-x="3602" d="M1257.401 239.379h161.326c22.955 0 42.192-14.961 42.627-34.078 1.314-53.612 39.788-77.298 103.18-77.298 78.915 0 125.26 37.609 135.097 86.231 33.008 161.248-422.774 180.782-362.005 477.092 30.603 148.779 178.596 257.247 395.013 257.247 203.080 0 311.508-94.338 293.8-254.13-1.967-18.286-20.766-32.416-42.846-32.416h-161.764c-22.517 0-41.536 14.545-42.63 33.247-2.186 41.766-31.695 62.753-87.22 62.753-62.083 0-104.709-27.844-113.89-72.312-31.26-152.937 433.046-162.7 369.434-472.937-32.789-159.998-192.586-276.777-425.836-276.777-210.513 0-328.337 95.377-307.133 270.961 2.186 18.492 20.766 32.415 42.846 32.415z" />
<glyph unicode="&#xe934;" horiz-adv-x="3602" d="M2391.051 716.053l-27.542-134.859c-4.59-22.231 16.176-42.803 43.502-42.803h213.79c27.327 0 48.093-20.363 43.502-42.807l-23.171-113.244c-3.499-17.662-22.080-30.547-43.502-30.547h-243.74c-21.423 0-40.003-12.885-43.502-30.547l-73.011-354.491c-3.499-17.662-22.080-30.547-43.502-30.547h-156.082c-27.323 0-48.093 20.363-43.502 42.807l190.838 930.7c3.499 17.662 22.080 30.546 43.502 30.546h509.122c27.327 0 48.093-20.364 43.502-42.805l-24.703-120.52c-3.496-17.662-22.076-30.545-43.499-30.545h-278.5c-21.642 0.208-40.003-12.675-43.502-30.338z" />
<glyph unicode="&#xe935;" horiz-adv-x="3602" d="M3532.8 746.598h-162.41c-21.423 0-40.007-12.883-43.502-30.546l-153.678-749.297c-3.496-17.662-22.080-30.547-43.502-30.547h-163.074c-27.327 0-48.093 20.363-43.502 42.807l148.649 724.778c4.59 22.234-16.179 42.805-43.502 42.805h-132.474c-27.323 0-48.093 20.364-43.499 42.805l24.7 120.52c3.499 17.662 22.080 30.545 43.502 30.545h637.009c27.33 0 48.093-20.364 43.502-42.805l-24.717-120.52c-3.708-17.663-22.069-30.546-43.502-30.546z" />
<glyph unicode="&#xe936;" glyph-name="mail" horiz-adv-x="1317" d="M1268.261 910.746c-31.086 31.688-72.638 49.254-116.553 49.254h-986.841c-90.879 0-164.867-75.431-164.867-168.084v-687.834c0-92.65 73.988-168.082 164.867-168.082h986.841c90.88 0 164.864 75.432 164.864 168.082v687.49c0 45.12-17.232 87.141-48.311 119.174zM1233.459 100.637c-2.026-44.083-37.837-79.565-81.752-79.565h-986.841c-44.933 0-81.758 37.2-81.758 83.354v687.146c0 45.809 36.487 83.353 81.758 83.353h986.841c44.932 0 81.752-37.199 81.752-83.353v-690.935zM836.491 456.438l315.546 288.29c16.889 15.5 18.242 42.366 3.043 59.932-15.206 17.221-41.56 18.599-58.785 3.1l-437.508-399.887-81.42 74.053-1.351 1.723c-2.028 2.066-4.054 3.789-6.419 5.511l-349.667 318.945c-17.23 15.5-43.582 14.122-58.785-3.444s-13.851-44.432 3.378-59.932l319.261-290.701-317.91-303.449c-16.554-15.843-17.568-42.708-1.69-59.926 8.109-8.616 19.257-13.436 30.406-13.436 10.473 0 20.608 4.133 28.379 11.366l323.315 308.269 85.136-77.498c7.771-6.889 17.568-10.677 27.704-10.677s20.27 4.133 27.703 11.022l87.499 79.909 321.287-311.368c7.775-7.578 17.905-11.71 28.716-11.71 11.491 0 21.965 4.82 30.069 13.085 7.775 8.272 11.491 18.944 11.491 30.31-0.336 11.366-4.732 22.045-12.837 29.623l-316.562 306.891z" />
<glyph unicode="&#xe937;" glyph-name="mail2" horiz-adv-x="1497" d="M1389.694 960c26.687 0 53.461-12.808 66.844-25.596l-708.23-588.808-708.231 588.808c13.385 12.788 40.077 25.596 66.846 25.596h1282.771zM561.231 396.808l187.077-153.596 187.077 153.596 521.074-435.192c-13.304-12.808-40.078-25.616-66.765-25.616h-1282.848c-26.693 0-53.462 12.808-80.154 25.616l534.538 435.192zM0 870.404v-844.788l521.154 409.596-521.154 435.192zM1496.615 25.616l-521.153 409.596 521.153 435.192v-844.788z" />
<glyph unicode="&#xe938;" glyph-name="noimg" d="M915.744 960h-808.010c-59.359 0-107.734-48.637-107.734-107.996v-808.010c0-59.616 48.637-107.994 107.996-107.994h808.010c59.616 0 107.994 48.64 107.994 107.994v808.010c-0.262 59.62-48.64 107.996-108.256 107.996zM972.486 44.256c0-31.117-25.626-56.742-56.742-56.742h-808.010c-31.117 0-56.744 25.626-56.744 56.742v134.931l194.027 194.026 165.786-165.783c9.937-9.939 26.148-9.939 36.086 0l299.671 299.667 225.402-225.407v-237.434h0.525zM972.486 353.863l-207.622 207.363c-9.939 9.937-26.15 9.937-36.090 0l-299.405-299.408-165.786 165.786c-9.937 9.937-26.149 9.937-36.086 0l-175.984-175.981v600.381c0 31.117 25.626 56.744 56.743 56.744h808.005c31.123 0 56.749-25.626 56.749-56.744v-498.141h-0.525zM317.451 810.428c-71.649 0-130.223-58.574-130.223-130.223s58.312-130.223 130.223-130.223c71.91 0 130.223 58.574 130.223 130.223s-58.574 130.223-130.223 130.223zM317.451 600.973c-43.408 0-78.97 35.563-78.97 78.97s35.301 78.97 78.97 78.97c43.669 0 78.97-35.563 78.97-78.97s-35.563-78.97-78.97-78.97z" />
<glyph unicode="&#xe939;" glyph-name="pass" horiz-adv-x="910" d="M227.558 227.999c22.442 0 40.635 17.909 40.635 39.999 0 22.096-18.193 40.004-40.635 40.004s-40.635-17.909-40.635-40.004c0-22.090 18.192-39.999 40.635-39.999zM379.934 227.999c22.442 0 40.635 17.909 40.635 39.999 0 22.096-18.192 40.004-40.635 40.004s-40.635-17.909-40.635-40.004c0-22.090 18.193-39.999 40.635-39.999zM532.316 227.999c22.442 0 40.635 17.909 40.635 39.999 0 22.096-18.193 40.004-40.635 40.004s-40.635-17.909-40.635-40.004c0-22.090 18.193-39.999 40.635-39.999zM686.734 227.999c22.443 0 40.63 17.909 40.63 39.999 0 22.096-18.187 40.004-40.63 40.004s-40.636-17.909-40.636-40.004c0-22.090 18.193-39.999 40.636-39.999zM869.586 235.998c22.352 0 40.636 18 40.636 40.004v147.998c0 88.201-72.937 160-162.537 160h-48.765v141c0 129.6-109.511 235-243.809 235s-243.809-105.4-243.809-235v-141h-48.762c-89.6 0-162.54-71.799-162.54-160v-328c0-88.201 72.94-160 162.54-160h585.145c89.6 0 162.537 71.799 162.537 160 0 21.999-18.284 39.999-40.636 39.999-22.346 0-40.636-18-40.636-39.999 0-44.203-36.369-80.003-81.266-80.003h-585.145c-44.901 0-81.27 35.8-81.27 80.003v328c0 44.2 36.368 80.001 81.27 80.001h585.145c44.897 0 81.266-35.8 81.266-80.001v-147.998c0-22.005 18.29-40.004 40.636-40.004zM617.648 584h-325.077v141c0 85.4 72.94 155 162.54 155s162.537-69.6 162.537-155v-141z" />
<glyph unicode="&#xe93a;" glyph-name="pass2" d="M223.999 227.999c22.092 0 40 17.909 40 39.999 0 22.096-17.908 40.004-40 40.004s-39.999-17.909-39.999-40.004c0-22.090 17.908-39.999 39.999-39.999zM373.996 227.999c22.091 0 40 17.909 40 39.999 0 22.096-17.909 40.004-40 40.004s-40-17.909-40-40.004c0-22.090 17.909-39.999 40-39.999zM523.996 227.999c22.091 0 40 17.909 40 39.999 0 22.096-17.909 40.004-40 40.004s-40-17.909-40-40.004c0-22.090 17.909-39.999 40-39.999zM675.994 227.999c22.090 0 39.999 17.909 39.999 39.999 0 22.096-17.909 40.004-39.999 40.004s-39.999-17.909-39.999-40.004c0-22.090 17.909-39.999 39.999-39.999zM475.996 15.997h-315.997c-44.2 0-79.999 35.8-79.999 80.003v328c0 44.2 35.8 80.001 79.999 80.001h575.995c44.197 0 79.997-35.8 79.997-80.001v-79.998c0-21.999 18-39.999 39.999-39.999 22.005 0 40.004 18 40.004 39.999v79.998c0 88.201-71.799 160-160 160h-48.003v141c0 129.6-107.799 235-239.995 235-132.199 0-239.998-105.4-239.998-235v-141h-47.999c-88.199 0-159.999-71.799-159.999-160v-328c0-88.201 71.799-160 159.999-160h315.997c22 0 39.999 18 39.999 39.999s-18 39.999-39.999 39.999zM287.998 725c0 85.4 71.799 155 159.998 155s159.998-69.6 159.998-155v-141h-319.997v141zM1007.189 308.599c-18 12.8-42.997 8.801-55.797-9.199l-197.2-275.399c-5.399-6.201-12.203-7.6-15.798-7.799-3.8-0.205-10.803 0.199-17.203 6.195l-127.198 124.2c-15.798 15.4-41.199 15.201-56.599-0.597s-15.2-41.199 0.6-56.599l127.6-124.604c0.199-0.199 0.199-0.199 0.398-0.398 19.2-18.199 44.601-28.399 71.003-28.399 2.196 0 4.597 0 6.798 0.199 28.598 2.002 55.398 15.798 73.398 38.201 0.398 0.597 1.001 1.2 1.399 1.798l198.002 276.599c12.8 17.801 8.596 42.803-9.404 55.802z" />
<glyph unicode="&#xe93b;" glyph-name="plus" d="M965.699 530.49h-350.577c-10.312 0-20.623 10.311-20.623 20.622v350.578c0 25.778-15.468 41.245-41.247 41.245h-82.488c-25.778 0-41.245-15.467-41.245-41.245v-350.578c0-10.311-10.311-20.622-20.622-20.622h-350.578c-25.778 0-41.244-15.466-41.244-41.244v-82.487c0-25.779 15.467-41.247 41.244-41.247h350.578c10.311 0 20.622-10.312 20.622-20.623v-350.577c0-25.779 15.467-41.242 41.245-41.242h82.488c25.779 0 41.247 15.462 41.247 41.242v350.577c0 10.312 10.312 20.623 20.623 20.623h350.577c25.774 0 41.242 15.468 41.242 41.247v82.487c0 25.778-15.468 41.244-41.242 41.244z" />
<glyph unicode="&#xe93c;" glyph-name="point" d="M130.742 608.214c0.428-64.543 12.424-116.634 32.132-167.48 36.845-94.843 94.040-177.44 159.804-255.472 57.837-68.279 122.102-130.332 190.436-188.649 23.777-20.338 24.419-20.544 48.198-0.206 69.832 59.354 135.168 122.652 193.862 192.382 36.203 42.96 69.62 87.994 98.753 135.727 31.276 51.468 57.41 105.219 73.69 162.913 15.638 55.204 21.207 111.239 11.353 168.103-10.496 60.183-36.845 113.519-76.689 160.63-41.128 48.77-92.54 84.466-151.663 109.577-33.418 14.112-68.548 23.244-104.964 28.847-40.916 6.434-81.831 7.056-122.53 2.283-42.843-4.981-84.401-16.188-124.245-33.413-51.411-22.413-96.396-52.921-134.312-92.975-41.557-43.79-70.047-94.634-85.043-152.122-6.426-26.149-8.569-53.128-8.783-70.145zM537.321 322.648c0-22.206 0-44.205 0-66.411 0-2.49 1.713-6.226-1.714-7.263-2.999-1.037-4.927 2.076-7.069 3.736-50.555 41.298-96.825 86.541-136.454 137.801-38.559 50.015-70.906 102.729-81.187 165.819-6.855 42.958-4.071 85.089 16.065 124.312 37.487 72.843 101.11 110.2 182.297 120.991 23.135 3.113 46.699 1.868 70.262-2.284 32.56-5.603 62.764-16.187 90.184-33.827 49.483-31.753 82.9-74.505 93.398-132.406 11.138-61.222-5.999-114.766-47.985-160.63-44.129-47.941-100.895-71.598-166.873-74.505-8.997-0.414-11.353-2.698-11.14-11.207 0.644-21.168 0.215-42.751 0.215-64.127z" />
<glyph unicode="&#xe93d;" glyph-name="reload" horiz-adv-x="910" d="M776.128 764l-93.461-92c60.955-60 93.461-140.002 93.461-228.001 0-175.999-146.284-320-325.078-320v64l-125.968-123.999 130.030-128v64c251.938 0 455.111 199.999 455.111 448 0 120.001-48.761 232-134.095 316zM585.144 832l-130.033 128v-64c-251.937 0-455.111-200-455.111-448 0-120.001 48.762-232 134.095-315.999l93.46 92.001c-65.016 55.998-97.524 140-97.524 223.998 0 176 146.286 320 325.079 320v-64l130.033 128z" />
<glyph unicode="&#xe93e;" glyph-name="reply" horiz-adv-x="1229" d="M0 482.133l477.867-477.866v279.893c341.264 0 580.263-109.227 750.933-348.16-68.27 341.333-273.067 682.667-750.933 750.933v273.067l-477.867-477.867z" />
<glyph unicode="&#xe93f;" glyph-name="search" d="M731.428 316.342h-46.811l-17.555 17.555c58.515 64.365 93.623 152.137 93.623 245.76 0 210.651-169.692 380.342-380.343 380.342s-380.342-169.692-380.342-380.342c0-210.652 169.692-380.343 380.342-380.343 93.623 0 181.395 35.108 245.76 93.623l17.555-17.555v-46.811l292.567-292.572 87.775 87.775-292.572 292.567zM380.382 316.343c-146.286 0-263.314 117.029-263.314 263.315s117.028 263.314 263.314 263.314c146.286 0 263.314-117.029 263.314-263.314s-117.028-263.315-263.314-263.315z" />
<glyph unicode="&#xe940;" glyph-name="settings" d="M986.531 522.562l-101.437 16.923c-7.373 30.142-18.12 58.954-32.121 85.827l64.936 80.517c13.815 17.016 13.186 41.499-1.378 57.923l-40.341 45.405c-14.625 16.405-38.875 19.875-57.372 8.188l-86.747-54.533c-38.153 26.658-81.375 46.344-127.995 57.767l-16.97 101.983c-3.561 21.594-22.249 37.439-44.186 37.439h-60.793c-21.893 0-40.642-15.845-44.124-37.439l-17.064-102.015c-38.547-9.438-74.687-24.672-107.669-44.736l-82.498 58.878c-17.78 12.703-42.201 10.717-57.717-4.767l-42.951-42.983c-15.483-15.516-17.469-39.938-4.734-57.719l59.013-82.659c-19.875-32.734-34.952-68.669-44.388-106.874l-102.561-17.126c-21.561-3.561-37.435-22.249-37.435-44.185v-60.751c0-21.937 15.875-40.625 37.435-44.186l102.561-17.124c7.749-31.441 18.999-61.468 33.952-89.311l-64.64-80.063c-13.764-17.003-13.186-41.5 1.374-57.907l40.312-45.405c14.625-16.44 38.888-19.847 57.388-8.187l87.997 55.277c37.235-25.465 79.358-44.186 124.56-55.277l17.064-102c3.483-21.597 22.231-37.441 44.124-37.441h60.793c21.937 0 40.625 15.844 44.186 37.441l16.998 102c38.065 9.309 73.747 24.278 106.435 43.999l85.937-61.379c17.748-12.749 42.184-10.747 57.688 4.785l42.966 42.966c15.462 15.472 17.557 39.88 4.715 57.693l-61.179 85.783c19.931 32.842 35.086 68.841 44.465 107.217l101.432 16.938c21.625 3.561 37.437 22.249 37.437 44.186v60.746c-0.033 21.936-15.844 40.624-37.469 44.186zM513.606 256c-106.011 0-191.992 85.997-191.992 192 0 106.016 85.981 192 191.992 192 105.998 0 191.995-85.984 191.995-192 0-106.003-85.997-192-191.995-192z" />
<glyph unicode="&#xe941;" glyph-name="statistics" d="M255.992 557.814h-219.36c-20.137 0-36.417-16.285-36.631-36.64v-548.536c0-20.351 16.495-36.638 36.631-36.638h219.36c20.351 0 36.631 16.497 36.631 36.638v548.536c0 20.356-16.494 36.64-36.631 36.64zM621.622 960h-219.359c-20.137 0-36.632-16.285-36.632-36.426v-950.931c0-20.356 16.495-36.643 36.632-36.643h219.359c20.351 0 36.632 16.497 36.632 36.643v950.717c0 20.356-16.492 36.64-36.632 36.64zM987.362 667.52h-219.362c-20.351 0-36.632-16.285-36.632-36.64v-658.242c0-20.351 16.497-36.638 36.632-36.638h219.362c20.351 0 36.627 16.497 36.627 36.638v658.242c0 20.356-16.492 36.64-36.627 36.64z" />
<glyph unicode="&#xe942;" glyph-name="tw" d="M512 960c-280 0-512-232-512-512s232-512 512-512c280 0 512 232 512 512s-232 512-512 512zM768 560v-16c0-168-128-360-360-360-72 0-136 24-192 56 8 0 16 0 32 0 56 0 112 24 160 56-56 0-104 40-120 88 8 0 16 0 24 0s24 0 32 8c-64 8-104 56-104 120 16-8 40-16 56-16-32 24-56 64-56 104 0 24 8 48 16 64 64-80 152-128 256-128 0 8 0 16 0 32 0 72 56 128 128 128 40 0 72-16 96-40 32 8 56 16 80 32-16-40-32-64-56-80 24 0 48 8 72 24-16-32-40-48-64-72z" />
<glyph unicode="&#xe943;" glyph-name="user" d="M873.999 298c-55.801 55.8-122.2 97-194.599 122 77.599 53.4 128.602 142.8 128.602 243.999 0 163.201-132.802 296-296.002 296s-296-132.8-296-296c0-100.999 51-190.599 128.601-243.999-72.4-25-138.8-66.2-194.6-122-96.8-96.601-150-225.201-150-362h80c0 238.197 193.8 432 432 432 238.197 0 431.996-193.803 431.996-432h80.004c0 136.799-53.197 265.399-150.001 362zM512 448c-119.2 0-216 96.8-216 216s96.799 216 216 216c119.2 0 216-96.8 216-216s-96.799-216-216-216z" />
<glyph unicode="&#xe944;" glyph-name="ves" horiz-adv-x="1262" d="M1211.725 937.221c-9.182 9.171-24.488 9.171-34.435 0l-16.836-16.814c-52.037-51.971-133.151-61.906-196.666-22.928-68.108 42.035-155.345 40.506-221.922-3.057l-86.472-56.556v84.070c0 13.757-10.713 24.457-23.722 24.457h-1.531c-13.009 0-24.488-10.7-24.488-24.457v-84.834l-86.475 56.556c-66.574 43.564-153.814 45.092-221.92 3.057-63.516-38.978-143.866-29.042-196.668 22.928l-16.835 17.578c-9.183 9.171-24.488 9.171-34.436 0-9.183-9.171-9.183-24.457 0-34.393l16.835-16.814c28.314-28.278 63.516-48.149 100.247-55.792 30.61-6.114 35.201-6.114 46.68-6.114 18.366 0 26.018 1.529 41.323 4.586 22.957 4.586 45.915 13.757 67.342 26.75 52.037 32.1 119.38 31.335 170.651-2.293l113.256-73.371v-602.248c-62.75-10.699-112.494-61.144-121.676-124.578h-49.741c-13.009 0-24.488-10.699-24.488-24.457 0-12.992 10.713-24.457 24.488-24.457h391.808c13.006 0 24.488 10.699 24.488 24.457 0 12.992-10.716 24.457-24.488 24.457h-48.978c-9.182 63.434-58.157 113.878-121.672 124.578v602.248l113.256 73.371c51.271 33.628 118.614 34.392 170.651 2.293 21.426-12.993 44.382-22.164 68.105-25.985 29.080-3.821 38.262-3.821 45.151-3.821 9.182 0 20.66 0.764 42.089 5.35 37.497 6.878 71.932 26.75 100.247 55.028l16.833 16.814c9.185 9.171 9.185 24.457 0 34.393zM727.326 57.54h-193.607c10.713 42.8 49.741 74.898 95.657 74.898h1.531c46.679-0.765 85.706-32.098 96.419-74.898zM1211.725 937.221c-9.182 9.171-24.488 9.171-34.435 0l-16.836-16.814c-52.037-51.971-133.151-61.906-196.666-22.928-68.108 42.035-155.345 40.506-221.922-3.057l-86.472-56.556v84.070c0 13.757-10.713 24.457-23.722 24.457h-1.531c-13.009 0-24.488-10.7-24.488-24.457v-84.834l-86.475 56.556c-66.574 43.564-153.814 45.092-221.92 3.057-63.516-38.978-143.866-29.042-196.668 22.928l-16.835 17.578c-9.183 9.171-24.488 9.171-34.436 0-9.183-9.171-9.183-24.457 0-34.393l16.835-16.814c28.314-28.278 63.516-48.149 100.247-55.792 30.61-6.114 35.201-6.114 46.68-6.114 18.366 0 26.018 1.529 41.323 4.586 22.957 4.586 45.915 13.757 67.342 26.75 52.037 32.1 119.38 31.335 170.651-2.293l113.256-73.371v-602.248c-62.75-10.699-112.494-61.144-121.676-124.578h-49.741c-13.009 0-24.488-10.699-24.488-24.457 0-12.992 10.713-24.457 24.488-24.457h391.808c13.006 0 24.488 10.699 24.488 24.457 0 12.992-10.716 24.457-24.488 24.457h-48.978c-9.182 63.434-58.157 113.878-121.672 124.578v602.248l113.256 73.371c51.271 33.628 118.614 34.392 170.651 2.293 21.426-12.993 44.382-22.164 68.105-25.985 29.080-3.821 38.262-3.821 45.151-3.821 9.182 0 20.66 0.764 42.089 5.35 37.497 6.878 71.932 26.75 100.247 55.028l16.833 16.814c9.185 9.171 9.185 24.457 0 34.393zM727.326 57.54h-193.607c10.713 42.8 49.741 74.898 95.657 74.898h1.531c46.679-0.765 85.706-32.098 96.419-74.898z" />
</font>
</defs>
</svg>
