<svg width="12" height="15" viewBox="0 0 12 15" xmlns="http://www.w3.org/2000/svg">
<path d="M10.6031 0H3.16366C2.53658 0 2.00452 0.42471 1.8335 1.00386H8.83587C10.033 1.00386 11.0116 1.99807 11.0116 3.21429V13.1371C11.5817 12.9633 11.9998 12.4228 11.9998 11.7857V10.3764V1.39961C11.9903 0.627413 11.3727 0 10.6031 0Z"/>
<path d="M8.8361 1.80493H1.38717C0.617577 1.80493 0 2.43234 0 3.2142V13.5906C0 14.3725 0.617577 14.9999 1.38717 14.9999H8.8361C9.5962 14.9999 10.2233 14.3725 10.2233 13.5906V12.1814V4.61381V3.2142C10.2138 2.43234 9.5962 1.80493 8.8361 1.80493ZM8.65558 12.4323H1.55819V11.6312H8.65558V12.4323ZM8.65558 10.5501H1.55819V9.74895H8.65558V10.5501ZM8.65558 8.77404H1.55819V7.97289H8.65558V8.77404ZM8.65558 6.99798H1.55819V6.19682H8.65558V6.99798ZM8.65558 5.22192H1.55819V4.42076H8.65558V5.22192Z"/>
</svg>
