<svg width="22" height="20" viewBox="0 0 22 20" xmlns="http://www.w3.org/2000/svg">
<path d="M5.16564 1.63159H16.8344C17.2922 1.63159 17.6669 1.26449 17.6669 0.815797C17.6669 0.367109 17.2922 0 16.8344 0H5.16564C4.70777 0 4.33315 0.367109 4.33315 0.815797C4.33315 1.26449 4.70777 1.63159 5.16564 1.63159Z" />
<path d="M2.97342 4.63648H19.0266C19.4845 4.63648 19.8591 4.26937 19.8591 3.82068C19.8591 3.37199 19.4845 3.00488 19.0266 3.00488H2.97342C2.51555 3.00488 2.14093 3.37199 2.14093 3.82068C2.14093 4.26937 2.51555 4.63648 2.97342 4.63648Z" />
<path d="M21.7044 6.20007C21.4963 5.96893 21.1911 5.84656 20.8858 5.84656H1.11419C0.808945 5.84656 0.503699 5.96893 0.295576 6.20007C0.087454 6.43121 -0.0235446 6.73034 0.00420504 7.02946L1.05869 18.1379C1.11419 18.6954 1.58593 19.1304 2.16868 19.1304H19.8313C20.4002 19.1304 20.8858 18.709 20.9413 18.1379L21.9958 7.02946C22.0235 6.73034 21.9125 6.43121 21.7044 6.20007ZM15.9325 16.2752H6.0675C5.67901 16.2752 5.35989 15.9081 5.35989 15.4594C5.35989 15.0107 5.67901 14.6436 6.0675 14.6436H15.9325C16.321 14.6436 16.6401 15.0107 16.6401 15.4594C16.6401 15.9081 16.321 16.2752 15.9325 16.2752ZM16.4459 13.3111H5.55413C5.12401 13.3111 4.77714 12.944 4.77714 12.4953C4.77714 12.0466 5.12401 11.6795 5.55413 11.6795H16.4459C16.876 11.6795 17.2229 12.0466 17.2229 12.4953C17.2229 12.944 16.876 13.3111 16.4459 13.3111ZM16.8344 10.3334H5.16564C4.70777 10.3334 4.33315 9.96633 4.33315 9.51764C4.33315 9.06895 4.70777 8.70185 5.16564 8.70185H16.8344C17.2922 8.70185 17.6669 9.06895 17.6669 9.51764C17.6669 9.96633 17.2922 10.3334 16.8344 10.3334Z" />
</svg>
