<svg width="15" height="25" viewBox="0 0 15 25" xmlns="http://www.w3.org/2000/svg">
<path d="M0.648503 17.4197C0.0616531 16.8531 -0.146191 16.0273 0.104444 15.2558C0.361191 14.4842 1.0214 13.9357 1.83443 13.8152L4.2613 13.4656C4.35911 13.4535 4.44469 13.3872 4.49359 13.3028L5.5756 11.1329C5.59394 11.1028 5.61228 11.0666 5.63062 11.0365C5.08045 10.5362 4.732 9.82495 4.732 9.02931C4.732 8.64355 4.81147 8.28189 4.95818 7.95038C4.18183 7.63092 3.63166 6.87144 3.63166 5.98539C3.63166 4.81002 4.59752 3.85767 5.78955 3.85767H9.20674C10.3988 3.85767 11.3646 4.81002 11.3646 5.98539C11.3646 6.87144 10.8145 7.62489 10.0381 7.95038C10.1848 8.28189 10.2643 8.64957 10.2643 9.02931C10.2643 9.82495 9.91585 10.5362 9.36567 11.0365C9.38401 11.0666 9.40235 11.1028 9.42069 11.1329L10.5027 13.3028C10.5455 13.3933 10.6311 13.4535 10.735 13.4656L13.1619 13.8212C13.9749 13.9357 14.6351 14.4903 14.8918 15.2618C15.1486 16.0333 14.9408 16.8591 14.3478 17.4257L12.5933 19.1134C12.52 19.1857 12.4894 19.2822 12.5078 19.3786L12.9173 21.7595C13.0579 22.5551 12.7278 23.3508 12.0676 23.827C11.6947 24.0982 11.2546 24.2308 10.8083 24.2308C10.466 24.2308 10.1237 24.1524 9.81192 23.9837L7.6418 22.8565C7.55011 22.8083 7.44618 22.8083 7.35449 22.8565L5.18437 23.9837C4.45692 24.3634 3.59498 24.2971 2.92866 23.8209C2.26234 23.3448 1.93835 22.5551 2.07895 21.7535L2.49464 19.3726C2.51297 19.2762 2.4763 19.1737 2.40905 19.1074L0.648503 17.4197Z"/>
<path d="M12.2816 1.80827H2.71471C2.20733 1.80827 1.79776 1.40442 1.79776 0.904133C1.79776 0.403846 2.20733 0 2.71471 0H12.2816C12.789 0 13.1985 0.403846 13.1985 0.904133C13.1985 1.40442 12.789 1.80827 12.2816 1.80827Z"/>
</svg>
