<svg width="12" height="17" viewBox="0 0 12 17" xmlns="http://www.w3.org/2000/svg">
<path d="M11.44 0H0.56C0.250667 0 0 0.272603 0 0.609007V16.3852C0 16.5998 0.106667 16.8028 0.277333 16.913C0.448 17.0232 0.666667 17.0232 0.837333 16.913L6 13.3808L11.1573 16.913L11.1627 16.9188C11.248 16.971 11.344 17 11.44 17C11.5413 17 11.6373 16.971 11.7227 16.9188C11.8933 16.8086 12 16.6056 12 16.391V0.614807C12 0.272603 11.7493 0 11.44 0ZM10.88 1.20641V15.3238L6.28267 12.1511L6.27733 12.1453C6.192 12.0931 6.096 12.0641 6 12.0641C5.904 12.0641 5.808 12.0931 5.72267 12.1453L1.12 15.3238V1.20641H10.88Z"/>
</svg>
