<svg width="13" height="12" viewBox="0 0 13 12" xmlns="http://www.w3.org/2000/svg">
<path d="M12.9513 0.309677C12.865 0.12129 12.6797 0 12.474 0H0.525964C0.320313 0 0.134974 0.12129 0.0486509 0.309677C-0.0376718 0.498065 -0.00720493 0.72 0.124818 0.88L4.78116 6.47484V10.2503C4.78116 10.4516 4.89287 10.6374 5.0706 10.7277L7.4597 11.9432C7.53333 11.9819 7.61458 12 7.69328 12C7.78976 12 7.88624 11.9742 7.97002 11.92C8.1249 11.8219 8.21884 11.6516 8.21884 11.4658V6.47484L12.8752 0.877419C13.0072 0.72 13.0377 0.498065 12.9513 0.309677ZM7.29467 5.9329C7.21343 6.02839 7.17027 6.15226 7.17027 6.27871V10.6013L5.82973 9.92V6.27871C5.82973 6.15226 5.78657 6.03097 5.70532 5.9329L1.65831 1.06839H11.3442L7.29467 5.9329Z"/>
</svg>
