<svg width="87" height="74" viewBox="0 0 87 74" fill="none" xmlns="http://www.w3.org/2000/svg">
<rect width="86.2159" height="73.4691" fill="black" fill-opacity="0" transform="translate(0.0488281 0.372803)"/>
<path d="M84.1853 28.8083C83.5619 28.4151 82.77 28.5006 82.2309 28.9964C80.7988 30.3128 79.3329 31.5267 77.8165 32.6551C78.1535 31.5438 78.4399 30.4667 78.6758 29.4067C81.22 27.9364 83.2586 25.5086 84.5897 22.3798C85.8196 19.4904 86.3925 16.0881 86.2409 12.7713C86.2072 12.019 85.7017 11.4035 84.9772 11.2326C84.2527 11.0616 83.5282 11.3693 83.1576 12.019C82.1803 13.7458 81.1526 15.37 80.0406 16.943C80.0406 15.5923 79.9732 14.2758 79.8721 13.0106C79.8721 12.9935 79.8721 12.9594 79.8721 12.9423C79.5856 9.02703 78.878 5.11181 77.766 1.29917C77.5638 0.61529 76.8562 0.222058 76.1991 0.427222C75.5251 0.632387 75.1376 1.35046 75.3398 2.01725C76.0474 4.44503 76.5866 6.9241 76.9404 9.40317C75.5588 8.0525 74.1267 6.78732 72.6272 5.57343C72.0712 5.12891 71.2961 5.09471 70.7064 5.48795C70.1167 5.88118 69.8472 6.61635 70.0325 7.31733C71.5489 12.9764 74.093 17.7978 77.3785 21.3369C77.2942 22.414 77.1763 23.5253 77.0078 24.6708C76.0811 23.0124 75.1039 21.4395 74.0425 19.9008C73.6381 19.3195 72.9136 19.063 72.2397 19.2682C71.5657 19.4733 71.094 20.0888 71.0603 20.7898C70.8918 24.7734 71.2793 30.6035 74.0088 36.0062C73.6212 36.9978 73.2 37.9894 72.7114 38.9981C72.3071 37.1517 71.8016 35.3736 71.2287 33.5955C71.0097 32.9287 70.3863 32.4671 69.6787 32.45H69.6618C68.971 32.45 68.3476 32.8945 68.1117 33.5613C66.2921 38.7588 65.7698 44.1785 66.6122 48.9144C65.9551 49.7522 65.2643 50.5899 64.5061 51.4277C64.6409 49.547 64.6915 47.6834 64.6409 45.8028C64.6241 45.0847 64.1523 44.4692 63.4952 44.264C62.8213 44.0589 62.0968 44.2982 61.6756 44.8624C58.4406 49.3248 56.3346 54.4026 55.7112 59.2068C52.3415 61.7885 50.5555 62.4724 48.6853 63.1905C47.1352 63.7889 45.5515 64.3873 43.159 66.0115C40.7665 64.3873 39.1827 63.7889 37.6326 63.1905C35.7456 62.4724 33.9765 61.7885 30.6068 59.2068C29.9834 54.3855 27.8773 49.3248 24.6423 44.8624C24.2211 44.2982 23.4966 44.0418 22.8227 44.264C22.1487 44.4692 21.6938 45.1018 21.677 45.8199C21.6264 47.7005 21.677 49.547 21.8118 51.4448C21.0536 50.607 20.3628 49.7693 19.7057 48.9315C20.5313 44.1956 20.009 38.7759 18.2062 33.5784C17.9703 32.9116 17.3469 32.4671 16.6561 32.4671H16.6393C15.9316 32.4671 15.3082 32.9287 15.0892 33.6126C14.4995 35.3736 14.0109 37.1688 13.6065 39.0152C13.1347 38.0065 12.6967 36.9978 12.3092 36.0233C15.0386 30.6206 15.4262 24.7905 15.2577 20.8069C15.224 20.0888 14.7522 19.4733 14.0783 19.2853C13.4043 19.0801 12.6798 19.3365 12.2755 19.9178C11.214 21.4566 10.2199 23.0295 9.31011 24.6879C9.14162 23.5424 9.02368 22.4311 8.93944 21.354C12.2418 17.832 14.7691 13.0106 16.2854 7.33443C16.4708 6.63345 16.2012 5.89828 15.6115 5.50504C15.0218 5.11181 14.2468 5.14601 13.6907 5.59053C12.1912 6.78732 10.7591 8.0525 9.3775 9.42027C9.73133 6.94119 10.2705 4.46212 10.9781 2.03434C11.1803 1.35046 10.7928 0.632387 10.1188 0.444319C9.4449 0.239155 8.73726 0.632387 8.55192 1.31627C7.43991 5.12891 6.73227 9.04413 6.44585 12.9594C6.44585 12.9935 6.44585 13.0106 6.44585 13.0448C6.34476 14.31 6.27736 15.6265 6.27736 16.9772C5.16535 15.4042 4.13759 13.78 3.16037 12.0532C2.7897 11.4035 2.06521 11.0958 1.34072 11.2667C0.633077 11.4377 0.127619 12.0532 0.0770731 12.8055C-0.091413 16.1223 0.498288 19.5246 1.72824 22.414C3.05928 25.5428 5.09796 27.9706 7.6421 29.4409C7.87798 30.5009 8.1644 31.5951 8.50138 32.6893C6.985 31.5609 5.53602 30.347 4.08704 29.0306C3.54789 28.5348 2.756 28.4493 2.1326 28.8425C1.5092 29.2357 1.20593 29.9709 1.39126 30.689C2.85709 36.3994 7.10294 42.6398 13.3538 44.0589C13.8929 44.9992 14.4658 45.9566 15.106 46.897C13.3369 46.2644 11.6015 45.5463 9.84927 44.7086C9.19217 44.4008 8.41713 44.5547 7.92852 45.1189C7.43991 45.666 7.37252 46.4696 7.76004 47.1021C10.658 51.8893 16.1001 56.3858 22.1487 56.3858C22.452 56.3858 22.7384 56.3687 23.0417 56.3516C24.7097 57.9417 26.6136 59.4975 28.686 60.9849C32.6117 64.0453 34.7178 64.8489 36.7565 65.6353C38.0201 66.1141 39.2669 66.5928 40.9686 67.6699C39.6545 68.6957 38.1381 69.9609 36.3521 71.6022C35.8298 72.0809 35.7793 72.8845 36.251 73.4145C36.5038 73.7051 36.8407 73.8419 37.1946 73.8419C37.4978 73.8419 37.8011 73.7393 38.037 73.5171C40.1262 71.6193 41.7942 70.2344 43.1758 69.1915C44.5574 70.2344 46.2254 71.6193 48.3146 73.5171C48.5505 73.7393 48.8538 73.8419 49.1571 73.8419C49.5109 73.8419 49.8479 73.7051 50.1006 73.4145C50.5723 72.8845 50.5218 72.0809 49.9995 71.6022C48.1967 69.9609 46.6803 68.6957 45.383 67.6699C47.0847 66.6099 48.3315 66.1311 49.5951 65.6353C51.6338 64.8489 53.7399 64.0453 57.6656 60.9849C59.7548 59.4975 61.6419 57.9417 63.3267 56.3516C63.63 56.3687 63.9164 56.3858 64.2197 56.3858C70.2684 56.3858 75.7105 51.8722 78.6084 47.1021C78.9959 46.4696 78.9117 45.6831 78.4399 45.1189C77.9513 44.5718 77.1763 44.4008 76.5192 44.7086C74.767 45.5292 73.0315 46.2473 71.2624 46.897C71.8858 45.9395 72.4755 44.9992 73.0147 44.0589C79.2655 42.6398 83.5114 36.3994 84.9772 30.689C85.112 29.9196 84.8087 29.1844 84.1853 28.8083ZM79.4509 25.3376C79.4846 25.1154 79.5183 24.876 79.552 24.6537C79.5688 24.517 79.5856 24.3802 79.6025 24.2434C79.6362 24.0382 79.653 23.816 79.6867 23.6108C79.7036 23.474 79.7204 23.3373 79.7373 23.1834C79.7541 22.9782 79.7878 22.7731 79.8047 22.5679C79.8215 22.4311 79.8384 22.2943 79.8384 22.1576C79.8552 21.9524 79.8721 21.7472 79.8889 21.5592C79.8889 21.4908 79.9058 21.4053 79.9058 21.3369C81.2368 19.6956 82.4499 18.003 83.5956 16.2249C83.1913 19.7127 81.8434 23.2689 79.4003 25.6454C79.434 25.5428 79.4509 25.4402 79.4509 25.3376ZM2.68861 16.2249C3.83431 18.003 5.04741 19.6956 6.37845 21.3369C6.37845 21.4224 6.3953 21.4908 6.3953 21.5763C6.41215 21.7643 6.429 21.9695 6.44585 22.1576C6.4627 22.2943 6.47954 22.4482 6.47954 22.585C6.49639 22.7902 6.51324 22.9782 6.54694 23.1834C6.56379 23.3202 6.58064 23.474 6.59748 23.6108C6.61433 23.816 6.64803 24.0211 6.68173 24.2434C6.69858 24.3802 6.71542 24.517 6.73227 24.6537C6.76597 24.876 6.79967 25.1154 6.83336 25.3376C6.85021 25.4402 6.86706 25.5428 6.88391 25.6454C4.42401 23.286 3.09297 19.7298 2.68861 16.2249ZM12.7135 23.8331C12.5787 26.9276 12.0059 29.8683 11.0624 32.4671C11.0287 32.3645 10.995 32.2619 10.9613 32.1593C10.9107 31.9884 10.8602 31.8174 10.8096 31.6464C10.7759 31.5096 10.7254 31.3729 10.6917 31.2361C10.6412 31.0651 10.5906 30.8941 10.5569 30.7232C10.5232 30.5864 10.4895 30.4496 10.439 30.3128C10.3884 30.1419 10.3547 29.9709 10.3042 29.817C10.2705 29.6803 10.2368 29.5435 10.2031 29.4067C10.1694 29.2357 10.1188 29.0819 10.0851 28.9109C10.0683 28.8425 10.0514 28.7741 10.0346 28.7057C10.8602 26.996 11.7532 25.3718 12.7135 23.8331ZM8.75411 16.6523C8.75411 16.4984 8.75411 16.3617 8.75411 16.2078C8.75411 16.0197 8.75411 15.8488 8.77095 15.6607C8.77095 15.5068 8.7878 15.37 8.7878 15.2333C8.7878 15.0623 8.80465 14.8742 8.80465 14.7033C8.80465 14.5665 8.8215 14.4126 8.8215 14.2758C8.83835 14.1049 8.83835 13.9168 8.8552 13.7458C8.8552 13.6774 8.87205 13.5919 8.87205 13.5236C10.1862 12.1045 11.5173 10.7709 12.8989 9.53994C11.8206 12.5832 10.4221 15.2845 8.73726 17.5585C8.73726 17.4559 8.73726 17.3362 8.73726 17.2336C8.75411 17.0284 8.75411 16.8404 8.75411 16.6523ZM4.89577 33.0997C6.49639 34.4161 8.14756 35.63 9.86611 36.7755C9.89981 36.8439 9.91666 36.9123 9.95036 36.9978C10.0178 37.1688 10.0851 37.3397 10.1525 37.5278C10.2031 37.6646 10.2536 37.8014 10.321 37.9381C10.3884 38.1091 10.4727 38.2972 10.5401 38.4681C10.5906 38.6049 10.658 38.7246 10.7085 38.8614C10.7928 39.0494 10.877 39.2375 10.9613 39.4256C11.0118 39.5452 11.0792 39.682 11.1298 39.8017C11.2309 40.0069 11.3151 40.212 11.4162 40.4172C11.4667 40.5027 11.5004 40.6053 11.551 40.6908C8.56877 39.152 6.29421 36.2284 4.89577 33.0997ZM16.6224 37.203C17.3637 40.1607 17.667 43.1185 17.4985 45.9053C17.448 45.8199 17.3806 45.7344 17.33 45.6489C17.229 45.495 17.1279 45.3411 17.0268 45.1873C16.9425 45.0676 16.8751 44.9479 16.7909 44.8282C16.6898 44.6744 16.6056 44.5205 16.5045 44.3837C16.4371 44.264 16.3528 44.1444 16.2854 44.0247C16.2012 43.8708 16.1001 43.734 16.0159 43.5802C15.9485 43.4605 15.8642 43.3408 15.7968 43.2211C15.7126 43.0843 15.6283 42.9305 15.5441 42.7937C15.5104 42.7253 15.4767 42.674 15.443 42.6056C15.7631 40.7591 16.1506 38.964 16.6224 37.203ZM11.7869 48.3331C13.6907 49.1196 15.6115 49.7864 17.5996 50.3677C17.6502 50.4361 17.7007 50.4874 17.7344 50.5557C17.8524 50.7096 17.9703 50.8635 18.0882 51.0003C18.1725 51.1029 18.2736 51.2225 18.3578 51.3251C18.4758 51.479 18.6105 51.6329 18.7285 51.7867C18.8127 51.8893 18.9138 52.009 18.9981 52.1116C19.1328 52.2654 19.2676 52.4193 19.4024 52.5903C19.4867 52.6929 19.5878 52.7955 19.672 52.898C19.8236 53.069 19.9753 53.24 20.1438 53.4109C20.2112 53.4793 20.2786 53.5648 20.3459 53.6332C17.0436 53.0519 14.0277 50.9319 11.7869 48.3331ZM27.355 56.7449C27.2033 56.6252 27.0685 56.5055 26.9169 56.3858C26.799 56.3004 26.6979 56.1978 26.5968 56.1123C26.462 55.9926 26.3272 55.8729 26.1924 55.7703C26.0913 55.6849 25.9734 55.5823 25.8723 55.4797C25.7375 55.36 25.6196 55.2403 25.4848 55.1377C25.3837 55.0352 25.2826 54.9497 25.1646 54.8471C25.0467 54.7274 24.9119 54.6248 24.794 54.5052C24.7434 54.4539 24.6929 54.4026 24.6423 54.3513C24.3896 52.4706 24.238 50.6241 24.1874 48.7947C25.7712 51.4277 26.9338 54.1974 27.5908 56.9329C27.5066 56.8646 27.4392 56.8133 27.355 56.7449ZM61.6419 54.3513C61.5913 54.4026 61.5408 54.4539 61.4902 54.5052C61.3723 54.6248 61.2375 54.7445 61.1196 54.8642C61.0185 54.9668 60.9174 55.0523 60.8163 55.1549C60.6815 55.2745 60.5636 55.3942 60.4288 55.4968C60.3277 55.5994 60.2098 55.6849 60.1087 55.7874C59.9739 55.9071 59.8391 56.0097 59.7043 56.1294C59.5864 56.2149 59.4853 56.3174 59.3673 56.4029C59.2325 56.5226 59.0977 56.6252 58.9461 56.7449C58.8619 56.8133 58.7776 56.8816 58.6934 56.95C59.3673 54.2145 60.5299 51.4448 62.0968 48.8118C62.0462 50.6241 61.8946 52.4706 61.6419 54.3513ZM69.6618 37.203C70.1336 38.964 70.5211 40.742 70.8412 42.6056C70.8075 42.674 70.7738 42.7253 70.7401 42.7937C70.6559 42.9305 70.5716 43.0843 70.4874 43.2211C70.42 43.3408 70.3358 43.4605 70.2684 43.5802C70.1841 43.7169 70.0999 43.8708 69.9988 44.0076C69.9314 44.1273 69.8472 44.2469 69.7798 44.3666C69.6955 44.5205 69.5944 44.6573 69.5102 44.8111C69.4259 44.9308 69.3586 45.0505 69.2743 45.1702C69.1732 45.307 69.089 45.4608 68.9879 45.5976C68.9205 45.6831 68.8699 45.7686 68.8025 45.8712C68.6172 43.1356 68.9205 40.1607 69.6618 37.203ZM74.4974 48.3331C72.2565 50.9148 69.2406 53.0519 65.9383 53.6161C66.0057 53.5306 66.0899 53.4451 66.1573 53.3768C66.309 53.2229 66.4437 53.0519 66.5954 52.898C66.6965 52.7955 66.7807 52.6758 66.8818 52.5732C67.0166 52.4193 67.1514 52.2654 67.2862 52.1116C67.3873 52.009 67.4715 51.8893 67.5726 51.7867C67.6905 51.6329 67.8253 51.4961 67.9433 51.3422C68.0275 51.2225 68.1286 51.1199 68.2128 51.0003C68.3308 50.8464 68.4487 50.7096 68.5667 50.5557C68.6172 50.4874 68.6678 50.4361 68.7183 50.3677C70.6727 49.7864 72.5935 49.1196 74.4974 48.3331ZM73.3685 9.52285C74.7501 10.7709 76.0811 12.0874 77.3953 13.5065C77.3953 13.5748 77.4122 13.6603 77.4122 13.7287C77.429 13.8997 77.429 14.0707 77.4459 14.2416C77.4627 14.3784 77.4627 14.5323 77.4627 14.6691C77.4796 14.84 77.4796 15.0281 77.4796 15.1991C77.4796 15.3358 77.4964 15.4897 77.4964 15.6265C77.4964 15.8146 77.5133 16.0026 77.5133 16.1907C77.5133 16.3275 77.5133 16.4813 77.5133 16.6181C77.5133 16.8062 77.5133 16.9943 77.5133 17.1823C77.5133 17.2849 77.5133 17.3875 77.5133 17.5072C75.8453 15.2675 74.4468 12.5661 73.3685 9.52285ZM73.5707 23.8331C74.5311 25.3889 75.4072 26.996 76.2496 28.7057C76.2328 28.7741 76.2159 28.8425 76.1991 28.9109C76.1654 29.0648 76.1317 29.2357 76.0811 29.3896C76.0474 29.5264 76.0137 29.6632 75.98 29.7999C75.9464 29.9709 75.8958 30.1419 75.8453 30.2958C75.8116 30.4325 75.7779 30.5693 75.7442 30.7061C75.6936 30.8771 75.6431 31.048 75.5925 31.2361C75.5588 31.3729 75.5251 31.5096 75.4746 31.6293C75.424 31.8174 75.3735 31.9884 75.3061 32.1764C75.2724 32.279 75.2556 32.3645 75.2219 32.4671C74.2783 29.8683 73.7223 26.9105 73.5707 23.8331ZM74.7164 40.6737C74.7669 40.5882 74.8007 40.4856 74.8512 40.4001C74.9523 40.1949 75.0534 39.9898 75.1376 39.7846C75.1882 39.6649 75.2556 39.5282 75.3061 39.4085C75.3904 39.2204 75.4746 39.0323 75.5588 38.8443C75.6094 38.7075 75.6768 38.5878 75.7273 38.451C75.8116 38.263 75.879 38.092 75.9632 37.9039C76.0137 37.7672 76.0643 37.6475 76.1317 37.5107C76.1991 37.3397 76.2665 37.1517 76.3507 36.9807C76.3844 36.9123 76.4013 36.8439 76.435 36.7755C78.1535 35.63 79.8047 34.4161 81.4053 33.0997C79.99 36.2284 77.7155 39.152 74.7164 40.6737Z" fill="white"/>
<path d="M33.2363 21.5773C33.6238 22.1073 34.2304 22.398 34.8706 22.398C35.3592 22.398 35.8141 22.227 36.1848 21.9021L39.942 18.705V37.6314H34.2304C33.2868 37.6314 32.5118 38.4179 32.5118 39.3753V44.5728C32.5118 45.5303 33.2868 46.3167 34.2304 46.3167H54.6509C55.5944 46.3167 56.3694 45.5303 56.3694 44.5728V39.3753C56.3694 38.4179 55.5944 37.6314 54.6509 37.6314H49.8996V34.7762C49.8996 34.0752 49.3267 33.4939 48.6359 33.4939C47.9451 33.4939 47.3723 34.0752 47.3723 34.7762V38.9137C47.3723 39.6147 47.9451 40.196 48.6359 40.196H53.8421V43.7351H35.0559V40.196H41.2225C41.9133 40.196 42.4862 39.6147 42.4862 38.9137V18.346C42.4862 18.1237 42.4862 17.0808 42.4862 15.9695C42.4862 15.4737 42.1998 15.012 41.7617 14.8069C41.3236 14.6017 40.7845 14.6701 40.4138 14.9778L34.9549 19.6282L32.6297 16.4995L34.9549 14.4991C35.494 14.0375 35.5614 13.2339 35.1065 12.6868C34.6516 12.1397 33.8597 12.0713 33.3205 12.533L30.6416 14.824C29.816 15.542 29.6812 16.7901 30.3383 17.6621L33.2363 21.5773Z" fill="white"/>
<path d="M39.4353 10.6347L43.0072 7.55723H47.3542V28.826C47.3542 29.5269 47.927 30.1082 48.6178 30.1082C49.3086 30.1082 49.8815 29.5269 49.8815 28.826V7.07852C49.8815 5.93301 48.9548 4.99268 47.8259 4.99268H42.8219C42.3333 4.99268 41.8615 5.16365 41.4909 5.48849L37.7842 8.68564C37.245 9.14726 37.1776 9.95082 37.6325 10.4979C38.1043 11.0279 38.913 11.0963 39.4353 10.6347Z" fill="white"/>
</svg>
