<svg width="72" height="71" viewBox="0 0 72 71" fill="none" xmlns="http://www.w3.org/2000/svg">
<rect width="70.6347" height="70.1841" fill="black" fill-opacity="0" transform="translate(0.634766 0.015625)"/>
<path d="M65.5238 33.7147H51.3828L51.6631 32.9627C53.513 28.0191 54.452 22.8249 54.452 17.5193V14.3582C54.452 11.211 51.8733 8.64868 48.7059 8.64868C45.5385 8.64868 42.9598 11.211 42.9598 14.3582C42.9598 19.3435 41.0117 24.0225 37.466 27.5317L31.2433 33.7147H29.2252V31.0688C29.2252 30.2194 28.5385 29.537 27.6835 29.537H20.8162V26.8912C20.8162 26.0417 20.1295 25.3593 19.2746 25.3593H2.17641C1.3215 25.3593 0.634766 26.0417 0.634766 26.8912V68.6678C0.634766 69.5173 1.3215 70.1996 2.17641 70.1996H19.2746C20.1295 70.1996 20.8162 69.5173 20.8162 68.6678V66.022H27.6835C28.3282 66.022 28.9028 65.6181 29.1271 65.0193L29.4354 64.2116L31.3134 66.0777C33.9903 68.7374 37.55 70.1996 41.3341 70.1996H61.3193C64.4867 70.1996 67.0655 67.6373 67.0655 64.4901C67.0655 63.766 66.9253 63.0558 66.659 62.3874L66.4208 61.8025L67.0234 61.6354C69.5181 60.9531 71.2559 58.6971 71.2559 56.1209C71.2559 54.7144 70.7374 53.3636 69.7843 52.3192L69.448 51.9432L69.7843 51.5672C70.7374 50.5228 71.2559 49.172 71.2559 47.7656C71.2559 46.3591 70.7374 45.0083 69.7843 43.9639L69.448 43.5879L69.7843 43.2119C70.7374 42.1675 71.2559 40.8167 71.2559 39.4102C71.2699 36.277 68.6912 33.7147 65.5238 33.7147ZM17.733 67.136H3.71805V28.423H17.733V67.136ZM26.1419 62.9583H20.8162V32.6006H26.1419V62.9583ZM52.8403 51.5812L53.1767 51.9571L52.8403 52.3331C51.8873 53.3776 51.3688 54.7283 51.3688 56.1348C51.3688 57.5413 51.8873 58.8921 52.8403 59.9365L53.1767 60.3125L52.8403 60.6885C51.8873 61.7329 51.3688 63.0837 51.3688 64.4901C51.3688 65.1446 51.4809 65.7852 51.7051 66.3979L51.9714 67.136H41.3341C38.3769 67.136 35.588 65.9941 33.4857 63.9053L29.2252 59.6719V36.7783H31.888C32.2945 36.7783 32.6869 36.6251 32.9812 36.3327L39.6523 29.7041C43.7727 25.61 46.0431 20.1512 46.0431 14.3582C46.0431 12.896 47.2344 11.7123 48.7059 11.7123C50.1775 11.7123 51.3688 12.896 51.3688 14.3582V17.5193C51.3688 23.4515 50.1074 29.2028 47.6408 34.6059C47.4165 35.0794 47.4586 35.6225 47.7529 36.0681C48.0332 36.5137 48.5237 36.7783 49.0423 36.7783H51.9574L51.6911 37.5163C51.4669 38.1291 51.3547 38.7696 51.3547 39.4242C51.3547 40.8306 51.8733 42.1814 52.8263 43.2258L53.1627 43.6018L52.8263 43.9778C51.8733 45.0222 51.3547 46.373 51.3547 47.7795C51.3547 49.186 51.8873 50.5367 52.8403 51.5812ZM61.3193 67.136H57.1149C55.6433 67.136 54.452 65.9523 54.452 64.4901C54.452 63.028 55.6433 61.8443 57.1149 61.8443H61.3193C62.7909 61.8443 63.9822 63.028 63.9822 64.4901C63.9822 65.9523 62.7909 67.136 61.3193 67.136ZM65.5238 58.7807H57.1149C55.6433 58.7807 54.452 57.597 54.452 56.1348C54.452 54.6726 55.6433 53.489 57.1149 53.489H65.5238C66.9954 53.489 68.1866 54.6726 68.1866 56.1348C68.1866 57.597 66.9954 58.7807 65.5238 58.7807ZM65.5238 50.4253H57.1149C55.6433 50.4253 54.452 49.2417 54.452 47.7795C54.452 46.3173 55.6433 45.1336 57.1149 45.1336H65.5238C66.9954 45.1336 68.1866 46.3173 68.1866 47.7795C68.1866 49.2417 66.9954 50.4253 65.5238 50.4253ZM65.5238 42.07H57.1149C55.6433 42.07 54.452 40.8863 54.452 39.4242C54.452 37.962 55.6433 36.7783 57.1149 36.7783H65.5238C66.9954 36.7783 68.1866 37.962 68.1866 39.4242C68.1866 40.8863 66.9954 42.07 65.5238 42.07Z" fill="white"/>
<path d="M10.8659 61.8451C11.7173 61.8451 12.4075 61.1593 12.4075 60.3133C12.4075 59.4673 11.7173 58.7815 10.8659 58.7815C10.0144 58.7815 9.32422 59.4673 9.32422 60.3133C9.32422 61.1593 10.0144 61.8451 10.8659 61.8451Z" fill="white"/>
<path d="M57.1129 3.07925C57.9644 3.07925 58.6546 2.39343 58.6546 1.54744C58.6546 0.70144 57.9644 0.015625 57.1129 0.015625C56.2615 0.015625 55.5713 0.70144 55.5713 1.54744C55.5713 2.39343 56.2615 3.07925 57.1129 3.07925Z" fill="white"/>
<path d="M18.6013 11.351L23.7448 13.9133L26.3236 19.024C26.5898 19.5532 27.1084 19.8735 27.697 19.8735C28.2997 19.8735 28.8042 19.5532 29.0705 19.024L31.6492 13.9133L36.7927 11.351C37.3253 11.0864 37.6476 10.5712 37.6476 9.98632C37.6476 9.38752 37.3253 8.8862 36.7927 8.62161L31.6492 6.07324L29.0845 0.865083C28.8182 0.335913 28.2997 0.015625 27.697 0.015625C27.0944 0.015625 26.5758 0.335913 26.3095 0.865083L23.7308 6.05931L18.5873 8.60769C18.0548 8.87227 17.7324 9.38752 17.7324 9.97239C17.7464 10.5851 18.0688 11.0864 18.6013 11.351ZM25.5808 8.56591C25.8751 8.41273 26.1274 8.176 26.2675 7.86964L27.683 5.00097L29.0985 7.86964C29.2527 8.16207 29.4909 8.41273 29.7852 8.56591L32.6303 9.98632L29.7852 11.4067C29.4909 11.5599 29.2387 11.7966 29.0985 12.0891L27.697 14.916L26.2675 12.0891C26.1133 11.7966 25.8751 11.546 25.5808 11.4067L22.7357 9.98632L25.5808 8.56591Z" fill="white"/>
<path d="M61.319 20.0692H63.9818V22.715C63.9818 23.5645 64.6685 24.2468 65.5235 24.2468C66.3784 24.2468 67.0651 23.5645 67.0651 22.715V20.0692H69.7279C70.5828 20.0692 71.2696 19.3868 71.2696 18.5374C71.2696 17.6879 70.5828 17.0055 69.7279 17.0055H67.0651V14.3597C67.0651 13.5102 66.3784 12.8279 65.5235 12.8279C64.6685 12.8279 63.9818 13.5102 63.9818 14.3597V17.0055H61.319C60.4641 17.0055 59.7773 17.6879 59.7773 18.5374C59.7773 19.3868 60.4641 20.0692 61.319 20.0692Z" fill="white"/>
</svg>
