<svg width="15" height="14" viewBox="0 0 15 14" xmlns="http://www.w3.org/2000/svg">
<path d="M2.49842 5.00043H0.499018C0.222895 5.00043 0 5.22334 0 5.49948V13.5009C0 13.777 0.222895 14 0.499018 14H2.49842C2.77454 14 2.99743 13.777 2.99743 13.5009V5.49948C3.00076 5.22334 2.77454 5.00043 2.49842 5.00043Z"/>
<path d="M14.9905 6.32462C14.9007 5.54943 14.1787 5.00048 13.3969 5.00048H9.49796C9.83063 4.40827 10.007 2.72814 10.0003 2.04278C9.98699 0.90827 9.04551 0 7.91108 0H7.49856C7.22243 0 6.99954 0.222909 6.99954 0.499049C6.99954 1.65684 6.55042 3.74287 5.69877 4.59126C5.12656 5.1635 4.63752 5.36977 3.99878 5.68916V13.1915C4.98018 13.5176 6.2244 13.9967 8.12399 13.9967H11.3942C12.4721 13.9967 13.3105 12.9986 12.8946 11.9439C13.53 11.7709 13.9991 11.1887 13.9991 10.4967C13.9991 10.3004 13.9625 10.1141 13.8926 9.94439C14.9639 9.65162 15.3598 8.32747 14.6146 7.49572C14.8907 7.19629 15.0404 6.77709 14.9905 6.32462Z"/>
</svg>
