<svg width="22" height="22" viewBox="0 0 22 22" xmlns="http://www.w3.org/2000/svg">
<path d="M21.195 9.39809L19.0157 9.03452C18.8573 8.38694 18.6264 7.76792 18.3256 7.19057L19.7207 5.46072C20.0175 5.09514 20.004 4.56913 19.6911 4.21629L18.8244 3.2408C18.5102 2.88834 17.9892 2.81379 17.5918 3.06488L15.7281 4.23648C14.9084 3.66374 13.9798 3.2408 12.9782 2.99539L12.6136 0.804351C12.5371 0.340411 12.1356 0 11.6643 0H10.3582C9.88785 0 9.48504 0.340411 9.41023 0.804351L9.04363 2.99608C8.21548 3.19884 7.43902 3.52614 6.73043 3.95721L4.95801 2.69225C4.57601 2.41934 4.05134 2.46201 3.71799 2.79467L2.79522 3.71813C2.46258 4.05149 2.41991 4.57618 2.69352 4.95818L3.96138 6.73405C3.53438 7.43731 3.21046 8.20937 3.00773 9.03017L0.804278 9.39811C0.341064 9.47462 0 9.87612 0 10.3474V11.6526C0 12.1239 0.341064 12.5254 0.804278 12.6019L3.00773 12.9698C3.17422 13.6453 3.41592 14.2904 3.73717 14.8886L2.34841 16.6087C2.05269 16.974 2.06512 17.5003 2.37794 17.8528L3.24402 18.8283C3.55822 19.1815 4.07951 19.2547 4.47697 19.0042L6.36754 17.8166C7.1675 18.3637 8.07249 18.7659 9.04363 19.0042L9.41023 21.1956C9.48506 21.6596 9.88785 22 10.3582 22H11.6643C12.1356 22 12.5371 21.6596 12.6136 21.1956L12.9788 19.0042C13.7966 18.8042 14.5632 18.4826 15.2655 18.0589L17.1118 19.3776C17.4931 19.6515 18.0181 19.6085 18.3512 19.2748L19.2743 18.3517C19.6065 18.0193 19.6515 17.4949 19.3756 17.1122L18.0612 15.2692C18.4894 14.5636 18.815 13.7902 19.0165 12.9657L21.1957 12.6018C21.6603 12.5253 22 12.1238 22 11.6525V10.3474C21.9993 9.87612 21.6596 9.47462 21.195 9.39809ZM11.0345 15.125C8.75692 15.125 6.90967 13.2774 6.90967 11C6.90967 8.72232 8.75692 6.87501 11.0345 6.87501C13.3118 6.87501 15.1594 8.72232 15.1594 11C15.1594 13.2774 13.3118 15.125 11.0345 15.125Z"/>
</svg>
