<svg width="371" height="301" viewBox="0 0 371 301" fill="none" xmlns="http://www.w3.org/2000/svg">
<g filter="url(#filter0_d)">
<path d="M356.181 6.69586C353.482 4 348.983 4 346.059 6.69586L341.11 11.6383C325.814 26.9148 301.971 29.8354 283.301 18.3779C263.281 6.0219 237.638 6.47121 218.068 19.2766L192.65 35.9011V11.189C192.65 7.14517 189.501 4 185.677 4H185.452H185.227C181.403 4 178.029 7.14517 178.029 11.189V36.1257L152.61 19.5012C133.041 6.69586 107.397 6.24655 87.3778 18.6026C68.7077 30.06 45.089 27.1395 29.5681 11.8629L24.6194 6.69586C21.9201 4 17.4213 4 14.4971 6.69586C11.7978 9.39173 11.7978 13.8848 14.4971 16.8054L19.4458 21.7478C27.7686 30.06 38.1159 35.9011 48.913 38.1476C57.9106 39.9448 59.2602 39.9449 62.6343 39.9449C68.0329 39.9449 70.2823 39.4955 74.7811 38.5969C81.5293 37.249 88.2775 34.5531 94.5759 30.734C109.872 21.2985 129.667 21.5231 144.738 31.4079L178.029 52.9749V230.003C159.584 233.148 144.962 247.976 142.263 266.622H127.642C123.818 266.622 120.444 269.767 120.444 273.811C120.444 277.63 123.593 281 127.642 281H185.227H242.812C246.635 281 250.01 277.855 250.01 273.811C250.01 269.992 246.86 266.622 242.812 266.622H228.415C225.716 247.976 211.32 233.148 192.65 230.003V52.9749L225.941 31.4079C241.012 21.5231 260.807 21.2985 276.103 30.734C282.401 34.5531 289.149 37.249 296.122 38.3723C304.67 39.4955 307.369 39.4955 309.394 39.4955C312.093 39.4955 315.467 39.2709 321.766 37.923C332.788 35.9011 342.91 30.06 351.233 21.7478L356.181 16.8054C358.881 14.1095 358.881 9.61638 356.181 6.69586ZM213.794 265.274H185.452H156.884C160.033 252.693 171.505 243.258 185.002 243.258H185.227H185.452C199.173 243.483 210.645 252.693 213.794 265.274Z" fill="url(#paint0_linear)"/>
<path d="M356.181 6.69586C353.482 4 348.983 4 346.059 6.69586L341.11 11.6383C325.814 26.9148 301.971 29.8354 283.301 18.3779C263.281 6.0219 237.638 6.47121 218.068 19.2766L192.65 35.9011V11.189C192.65 7.14517 189.501 4 185.677 4H185.452H185.227C181.403 4 178.029 7.14517 178.029 11.189V36.1257L152.61 19.5012C133.041 6.69586 107.397 6.24655 87.3778 18.6026C68.7077 30.06 45.089 27.1395 29.5681 11.8629L24.6194 6.69586C21.9201 4 17.4213 4 14.4971 6.69586C11.7978 9.39173 11.7978 13.8848 14.4971 16.8054L19.4458 21.7478C27.7686 30.06 38.1159 35.9011 48.913 38.1476C57.9106 39.9448 59.2602 39.9449 62.6343 39.9449C68.0329 39.9449 70.2823 39.4955 74.7811 38.5969C81.5293 37.249 88.2775 34.5531 94.5759 30.734C109.872 21.2985 129.667 21.5231 144.738 31.4079L178.029 52.9749V230.003C159.584 233.148 144.962 247.976 142.263 266.622H127.642C123.818 266.622 120.444 269.767 120.444 273.811C120.444 277.63 123.593 281 127.642 281H185.227H242.812C246.635 281 250.01 277.855 250.01 273.811C250.01 269.992 246.86 266.622 242.812 266.622H228.415C225.716 247.976 211.32 233.148 192.65 230.003V52.9749L225.941 31.4079C241.012 21.5231 260.807 21.2985 276.103 30.734C282.401 34.5531 289.149 37.249 296.122 38.3723C304.67 39.4955 307.369 39.4955 309.394 39.4955C312.093 39.4955 315.467 39.2709 321.766 37.923C332.788 35.9011 342.91 30.06 351.233 21.7478L356.181 16.8054C358.881 14.1095 358.881 9.61638 356.181 6.69586ZM213.794 265.274H185.452H156.884C160.033 252.693 171.505 243.258 185.002 243.258H185.227H185.452C199.173 243.483 210.645 252.693 213.794 265.274Z" fill="url(#paint1_linear)"/>
</g>
<defs>
<filter id="filter0_d" x="0.472656" y="0" width="369.733" height="301" filterUnits="userSpaceOnUse" color-interpolation-filters="sRGB">
<feFlood flood-opacity="0" result="BackgroundImageFix"/>
<feColorMatrix in="SourceAlpha" type="matrix" values="0 0 0 0 0 0 0 0 0 0 0 0 0 0 0 0 0 0 127 0"/>
<feOffset dy="8"/>
<feGaussianBlur stdDeviation="6"/>
<feColorMatrix type="matrix" values="0 0 0 0 0 0 0 0 0 0 0 0 0 0 0 0 0 0 0.056 0"/>
<feBlend mode="normal" in2="BackgroundImageFix" result="effect1_dropShadow"/>
<feBlend mode="normal" in="SourceGraphic" in2="effect1_dropShadow" result="shape"/>
</filter>
<linearGradient id="paint0_linear" x1="12.4727" y1="142.5" x2="269.81" y2="-8.32308" gradientUnits="userSpaceOnUse">
<stop offset="0.198408" stop-color="#284DC0"/>
<stop offset="1" stop-color="#FF441D"/>
</linearGradient>
<linearGradient id="paint1_linear" x1="185.339" y1="4" x2="185.339" y2="281" gradientUnits="userSpaceOnUse">
<stop offset="1" stop-color="#E1E3EB"/>
</linearGradient>
</defs>
</svg>
