<svg width="265" height="179" viewBox="0 0 265 179" fill="none" xmlns="http://www.w3.org/2000/svg">
<path d="M61.1929 80.6829C88.1187 80.6829 110.293 80.6829 110.293 80.6829C110.293 80.6829 95.0005 129.802 61.1929 129.802C61.1924 131.5 61.1929 80.6829 61.1929 80.6829C57.2853 80.6349 65.6005 80.6829 61.1929 80.6829Z" fill="#284DC0"/>
<g filter="url(#filter0_d)">
<path d="M227.429 5.50852C225.915 4 223.392 4 221.753 5.50852L218.978 8.27413C210.4 16.8224 197.03 18.4566 186.561 12.0454C175.335 5.13139 160.956 5.38281 149.982 12.5483L135.729 21.8508V8.02271C135.729 5.75994 133.963 4 131.818 4H131.692H131.566C129.422 4 127.53 5.75994 127.53 8.02271V21.9765L113.277 12.674C102.303 5.50852 87.9236 5.2571 76.6976 12.1711C66.2284 18.5823 52.9842 16.9481 44.2809 8.39984L41.506 5.50852C39.9924 4 37.4697 4 35.8299 5.50852C34.3163 7.01703 34.3163 9.53122 35.8299 11.1654L38.6049 13.9311C43.2719 18.5823 49.0741 21.8508 55.1285 23.1079C60.1739 24.1135 60.9307 24.1135 62.8227 24.1135C65.85 24.1135 67.1113 23.8621 69.634 23.3593C73.4181 22.605 77.2021 21.0965 80.7339 18.9594C89.311 13.6796 100.411 13.8054 108.862 19.3366L127.53 31.4047V130.464C117.187 132.224 108.988 140.521 107.474 150.955H99.2757C97.1314 150.955 95.2394 152.715 95.2394 154.977C95.2394 157.114 97.0053 159 99.2757 159H131.566H163.857C166.001 159 167.893 157.24 167.893 154.977C167.893 152.84 166.127 150.955 163.857 150.955H155.784C154.27 140.521 146.198 132.224 135.729 130.464V31.4047L154.397 19.3366C162.848 13.8054 173.947 13.6796 182.525 18.9594C186.056 21.0965 189.84 22.605 193.751 23.2336C198.544 23.8621 200.057 23.8621 201.193 23.8621C202.706 23.8621 204.598 23.7364 208.13 22.9822C214.311 21.8508 219.987 18.5823 224.654 13.9311L227.429 11.1654C228.942 9.65693 228.942 7.14274 227.429 5.50852ZM147.585 150.2H131.692H115.673C117.439 143.161 123.872 137.881 131.44 137.881H131.566H131.692C139.387 138.006 145.819 143.161 147.585 150.2Z" fill="#ECECEC"/>
</g>
<g filter="url(#filter1_d)">
<path d="M61.1926 129.71C88.3608 129.71 110.385 107.76 110.385 80.683C110.385 53.6063 88.3608 31.6562 61.1926 31.6562C34.0243 31.6562 12 53.6063 12 80.683C12 107.76 34.0243 129.71 61.1926 129.71Z" fill="#ECECEC"/>
</g>
<path d="M61.1926 80.6826L61.1926 31.5636C88.1185 31.5636 110.293 53.7463 110.293 80.6826C110.293 107.619 88.1665 129.802 61.1926 129.802C62 128 62 129.5 61.1926 129.802L61.1926 80.6826Z" fill="#284DC0"/>
<path d="M61.1398 121.514C83.7668 121.514 102.11 103.233 102.11 80.6827C102.11 58.132 83.7668 39.8511 61.1398 39.8511C38.5128 39.8511 20.17 58.132 20.17 80.6827C20.17 103.233 38.5128 121.514 61.1398 121.514Z" fill="white"/>
<g filter="url(#filter2_d)">
<path d="M153.707 80.6833C153.707 107.811 175.69 129.802 202.808 129.802C229.925 129.802 251.908 107.811 251.908 80.6833C251.908 53.5556 229.925 31.5642 202.808 31.5642C175.69 31.5642 153.707 53.5556 153.707 80.6833Z" fill="#ECECEC"/>
<path d="M202.808 80.6833L202.808 31.5642C229.733 31.5642 251.908 53.747 251.908 80.6833L251.908 80.7313L202.808 80.6833Z" fill="#FF441D"/>
<path d="M203 80.6827L203 31.5637C229.926 31.5637 252.1 53.7465 252.1 80.6827C252.1 107.619 229.974 129.802 203 129.802C203.807 128 203.807 129.5 203 129.802L203 80.6827Z" fill="#FF441D"/>
<path d="M161.785 80.26C161.785 102.853 180.094 121.169 202.678 121.169C225.263 121.169 243.571 102.853 243.571 80.26C243.571 57.6668 225.263 39.3514 202.678 39.3514C180.094 39.3514 161.785 57.6668 161.785 80.26Z" fill="white"/>
</g>
<path d="M40.5707 82.3859C40.3561 81.9447 40.1415 81.5035 40.1415 81.0623C40.1415 80.6211 40.3561 80.1799 40.5707 79.7387L42.9316 77.3121C43.5755 76.6503 44.6487 76.6503 45.2925 77.3121L45.5072 77.5327L55.1654 88.1214C55.5947 88.5626 56.0239 88.5626 56.4532 88.1214L79.2037 63.4144H79.4184C80.0622 62.7526 81.1354 62.7526 81.7793 63.4144L84.1402 65.841C84.7841 66.5028 84.7841 67.6058 84.1402 68.2676L56.8824 97.8278C56.4532 98.0484 56.0239 98.269 55.5947 98.269C55.1654 98.269 54.7362 98.0484 54.3069 97.8278L41 82.8271L40.5707 82.3859Z" fill="#ECECEC"/>
<path d="M207.211 81.0985C206.808 80.6945 206.808 80.2905 207.211 79.8865L219.28 67.7662C219.682 67.3622 219.682 66.9582 219.682 66.5542C219.682 66.1502 219.481 65.7462 219.28 65.3422L217.067 63.1201C216.665 63.1201 216.263 62.9181 215.86 62.9181C215.458 62.9181 215.056 63.1201 214.653 63.3221L202.584 75.4424C202.182 75.8464 201.779 75.8464 201.377 75.4424L189.308 63.3221C189.106 63.1201 188.704 62.9181 188.302 62.9181C188.101 62.9181 187.497 63.1201 187.296 63.3221L184.882 65.7462C184.681 65.9482 184.48 66.5542 184.48 66.7562C184.48 67.1602 184.681 67.5642 184.882 67.9682L196.952 80.0885C197.354 80.4925 197.354 80.8965 196.952 81.3005L184.882 93.4208C184.681 93.6229 184.48 94.0269 184.48 94.4309C184.48 94.8349 184.681 95.2389 184.882 95.6429L187.095 97.865C187.497 98.269 187.899 98.269 188.302 98.269C188.704 98.269 189.106 98.067 189.509 97.865L201.578 85.7447C201.98 85.3406 202.383 85.3406 202.785 85.7447L214.855 97.865C215.257 98.269 215.659 98.269 216.061 98.269C216.464 98.269 216.866 98.067 217.268 97.865L219.481 95.6429C219.883 95.2389 219.883 94.8349 219.883 94.4309C219.883 94.0269 219.682 93.6229 219.481 93.2188L207.211 81.0985Z" fill="#ECECEC"/>
<path d="M48.9562 80.4746L49.5304 75.416H55.1086V77.0635H51.1506L50.9045 79.2031C51.3739 78.9525 51.8729 78.8271 52.4015 78.8271C53.3494 78.8271 54.0923 79.1211 54.63 79.709C55.1678 80.2969 55.4367 81.1195 55.4367 82.1768C55.4367 82.8193 55.3 83.3958 55.0265 83.9062C54.7577 84.4121 54.3703 84.8063 53.8644 85.0889C53.3586 85.3669 52.7616 85.5059 52.0734 85.5059C51.4718 85.5059 50.9136 85.3851 50.3986 85.1436C49.8836 84.8975 49.4757 84.5534 49.175 84.1113C48.8787 83.6693 48.7215 83.1657 48.7033 82.6006H50.6584C50.6994 83.0153 50.8429 83.3389 51.089 83.5713C51.3397 83.7992 51.6655 83.9131 52.0666 83.9131C52.5132 83.9131 52.8573 83.7536 53.0988 83.4346C53.3403 83.111 53.4611 82.6553 53.4611 82.0674C53.4611 81.5023 53.3221 81.0693 53.0441 80.7686C52.7661 80.4678 52.3719 80.3174 51.8615 80.3174C51.3921 80.3174 51.0116 80.4404 50.7199 80.6865L50.5285 80.8643L48.9562 80.4746ZM63.4006 81.2539C63.4006 82.6302 63.1157 83.6829 62.5461 84.4121C61.9764 85.1413 61.1424 85.5059 60.0441 85.5059C58.9595 85.5059 58.13 85.1481 57.5558 84.4326C56.9816 83.7171 56.6877 82.6917 56.674 81.3564V79.5244C56.674 78.1344 56.9611 77.0794 57.5353 76.3594C58.1141 75.6393 58.9458 75.2793 60.0304 75.2793C61.1151 75.2793 61.9445 75.637 62.5187 76.3525C63.0929 77.0635 63.3869 78.0866 63.4006 79.4219V81.2539ZM61.425 79.2441C61.425 78.4193 61.311 77.82 61.0832 77.4463C60.8599 77.068 60.509 76.8789 60.0304 76.8789C59.5656 76.8789 59.2215 77.0589 58.9982 77.4189C58.7795 77.7744 58.6632 78.3327 58.6496 79.0938V81.5137C58.6496 82.3249 58.759 82.9287 58.9777 83.3252C59.201 83.7171 59.5565 83.9131 60.0441 83.9131C60.5272 83.9131 60.8758 83.724 61.09 83.3457C61.3042 82.9674 61.4159 82.3887 61.425 81.6094V79.2441ZM64.7131 77.3301C64.7131 76.7194 64.9113 76.2249 65.3078 75.8467C65.7043 75.4639 66.2238 75.2725 66.8664 75.2725C67.5181 75.2725 68.0422 75.4616 68.4386 75.8398C68.8351 76.2135 69.0334 76.7217 69.0334 77.3643V77.8564C69.0334 78.4717 68.8351 78.9661 68.4386 79.3398C68.0422 79.7135 67.5226 79.9004 66.88 79.9004C66.2329 79.9004 65.7088 79.7135 65.3078 79.3398C64.9113 78.9616 64.7131 78.4535 64.7131 77.8154V77.3301ZM66.0256 77.8564C66.0256 78.1299 66.103 78.3509 66.258 78.5195C66.4175 78.6836 66.6248 78.7656 66.88 78.7656C67.1353 78.7656 67.3381 78.6813 67.4884 78.5127C67.6388 78.3441 67.714 78.1185 67.714 77.8359V77.3301C67.714 77.0566 67.6388 76.8356 67.4884 76.667C67.3381 76.4984 67.1307 76.4141 66.8664 76.4141C66.6157 76.4141 66.4129 76.4984 66.258 76.667C66.103 76.8311 66.0256 77.0612 66.0256 77.3574V77.8564ZM69.4709 82.9287C69.4709 82.3135 69.6714 81.819 70.0724 81.4453C70.4735 81.0671 70.993 80.8779 71.631 80.8779C72.2782 80.8779 72.8 81.0648 73.1965 81.4385C73.5975 81.8076 73.798 82.318 73.798 82.9697V83.4619C73.798 84.0726 73.6021 84.5671 73.2101 84.9453C72.8182 85.319 72.2964 85.5059 71.6447 85.5059C70.9884 85.5059 70.4621 85.3167 70.0656 84.9385C69.6691 84.5602 69.4709 84.0589 69.4709 83.4346V82.9287ZM70.7834 83.4619C70.7834 83.7126 70.8654 83.9268 71.0295 84.1045C71.1935 84.2822 71.3986 84.3711 71.6447 84.3711C72.2007 84.3711 72.4787 84.0635 72.4787 83.4482V82.9287C72.4787 82.6553 72.4012 82.4365 72.2463 82.2725C72.0913 82.1038 71.8862 82.0195 71.631 82.0195C71.3758 82.0195 71.1707 82.1038 71.0158 82.2725C70.8608 82.4365 70.7834 82.6621 70.7834 82.9492V83.4619ZM67.2697 84.624L66.3058 84.1045L71.1662 76.3252L72.13 76.8447L67.2697 84.624Z" fill="black"/>
<path d="M190.571 80.4746L191.145 75.416H196.724V77.0635H192.766L192.519 79.2031C192.989 78.9525 193.488 78.8271 194.017 78.8271C194.964 78.8271 195.707 79.1211 196.245 79.709C196.783 80.2969 197.052 81.1195 197.052 82.1768C197.052 82.8193 196.915 83.3958 196.642 83.9062C196.373 84.4121 195.985 84.8063 195.479 85.0889C194.974 85.3669 194.377 85.5059 193.688 85.5059C193.087 85.5059 192.529 85.3851 192.014 85.1436C191.499 84.8975 191.091 84.5534 190.79 84.1113C190.494 83.6693 190.337 83.1657 190.318 82.6006H192.273C192.314 83.0153 192.458 83.3389 192.704 83.5713C192.955 83.7992 193.281 83.9131 193.682 83.9131C194.128 83.9131 194.472 83.7536 194.714 83.4346C194.955 83.111 195.076 82.6553 195.076 82.0674C195.076 81.5023 194.937 81.0693 194.659 80.7686C194.381 80.4678 193.987 80.3174 193.476 80.3174C193.007 80.3174 192.627 80.4404 192.335 80.6865L192.143 80.8643L190.571 80.4746ZM205.016 81.2539C205.016 82.6302 204.731 83.6829 204.161 84.4121C203.591 85.1413 202.757 85.5059 201.659 85.5059C200.574 85.5059 199.745 85.1481 199.171 84.4326C198.597 83.7171 198.303 82.6917 198.289 81.3564V79.5244C198.289 78.1344 198.576 77.0794 199.15 76.3594C199.729 75.6393 200.561 75.2793 201.645 75.2793C202.73 75.2793 203.559 75.637 204.134 76.3525C204.708 77.0635 205.002 78.0866 205.016 79.4219V81.2539ZM203.04 79.2441C203.04 78.4193 202.926 77.82 202.698 77.4463C202.475 77.068 202.124 76.8789 201.645 76.8789C201.181 76.8789 200.837 77.0589 200.613 77.4189C200.394 77.7744 200.278 78.3327 200.265 79.0938V81.5137C200.265 82.3249 200.374 82.9287 200.593 83.3252C200.816 83.7171 201.171 83.9131 201.659 83.9131C202.142 83.9131 202.491 83.724 202.705 83.3457C202.919 82.9674 203.031 82.3887 203.04 81.6094V79.2441ZM206.328 77.3301C206.328 76.7194 206.526 76.2249 206.923 75.8467C207.319 75.4639 207.839 75.2725 208.481 75.2725C209.133 75.2725 209.657 75.4616 210.054 75.8398C210.45 76.2135 210.648 76.7217 210.648 77.3643V77.8564C210.648 78.4717 210.45 78.9661 210.054 79.3398C209.657 79.7135 209.138 79.9004 208.495 79.9004C207.848 79.9004 207.324 79.7135 206.923 79.3398C206.526 78.9616 206.328 78.4535 206.328 77.8154V77.3301ZM207.641 77.8564C207.641 78.1299 207.718 78.3509 207.873 78.5195C208.032 78.6836 208.24 78.7656 208.495 78.7656C208.75 78.7656 208.953 78.6813 209.103 78.5127C209.254 78.3441 209.329 78.1185 209.329 77.8359V77.3301C209.329 77.0566 209.254 76.8356 209.103 76.667C208.953 76.4984 208.746 76.4141 208.481 76.4141C208.231 76.4141 208.028 76.4984 207.873 76.667C207.718 76.8311 207.641 77.0612 207.641 77.3574V77.8564ZM211.086 82.9287C211.086 82.3135 211.286 81.819 211.687 81.4453C212.088 81.0671 212.608 80.8779 213.246 80.8779C213.893 80.8779 214.415 81.0648 214.811 81.4385C215.212 81.8076 215.413 82.318 215.413 82.9697V83.4619C215.413 84.0726 215.217 84.5671 214.825 84.9453C214.433 85.319 213.911 85.5059 213.26 85.5059C212.603 85.5059 212.077 85.3167 211.681 84.9385C211.284 84.5602 211.086 84.0589 211.086 83.4346V82.9287ZM212.398 83.4619C212.398 83.7126 212.48 83.9268 212.644 84.1045C212.809 84.2822 213.014 84.3711 213.26 84.3711C213.816 84.3711 214.094 84.0635 214.094 83.4482V82.9287C214.094 82.6553 214.016 82.4365 213.861 82.2725C213.706 82.1038 213.501 82.0195 213.246 82.0195C212.991 82.0195 212.786 82.1038 212.631 82.2725C212.476 82.4365 212.398 82.6621 212.398 82.9492V83.4619ZM208.885 84.624L207.921 84.1045L212.781 76.3252L213.745 76.8447L208.885 84.624Z" fill="black"/>
<defs>
<filter id="filter0_d" x="22.6947" y="0" width="217.869" height="179" filterUnits="userSpaceOnUse" color-interpolation-filters="sRGB">
<feFlood flood-opacity="0" result="BackgroundImageFix"/>
<feColorMatrix in="SourceAlpha" type="matrix" values="0 0 0 0 0 0 0 0 0 0 0 0 0 0 0 0 0 0 127 0"/>
<feOffset dy="8"/>
<feGaussianBlur stdDeviation="6"/>
<feColorMatrix type="matrix" values="0 0 0 0 0 0 0 0 0 0 0 0 0 0 0 0 0 0 0.22 0"/>
<feBlend mode="normal" in2="BackgroundImageFix" result="effect1_dropShadow"/>
<feBlend mode="normal" in="SourceGraphic" in2="effect1_dropShadow" result="shape"/>
</filter>
<filter id="filter1_d" x="0" y="29.6562" width="122.385" height="122.054" filterUnits="userSpaceOnUse" color-interpolation-filters="sRGB">
<feFlood flood-opacity="0" result="BackgroundImageFix"/>
<feColorMatrix in="SourceAlpha" type="matrix" values="0 0 0 0 0 0 0 0 0 0 0 0 0 0 0 0 0 0 127 0"/>
<feOffset dy="10"/>
<feGaussianBlur stdDeviation="6"/>
<feColorMatrix type="matrix" values="0 0 0 0 0.156863 0 0 0 0 0.301961 0 0 0 0 0.752941 0 0 0 0.18 0"/>
<feBlend mode="normal" in2="BackgroundImageFix" result="effect1_dropShadow"/>
<feBlend mode="normal" in="SourceGraphic" in2="effect1_dropShadow" result="shape"/>
</filter>
<filter id="filter2_d" x="141.708" y="29.5637" width="122.393" height="122.239" filterUnits="userSpaceOnUse" color-interpolation-filters="sRGB">
<feFlood flood-opacity="0" result="BackgroundImageFix"/>
<feColorMatrix in="SourceAlpha" type="matrix" values="0 0 0 0 0 0 0 0 0 0 0 0 0 0 0 0 0 0 127 0"/>
<feOffset dy="10"/>
<feGaussianBlur stdDeviation="6"/>
<feColorMatrix type="matrix" values="0 0 0 0 1 0 0 0 0 0.266667 0 0 0 0 0.113725 0 0 0 0.12 0"/>
<feBlend mode="normal" in2="BackgroundImageFix" result="effect1_dropShadow"/>
<feBlend mode="normal" in="SourceGraphic" in2="effect1_dropShadow" result="shape"/>
</filter>
</defs>
</svg>
