<svg width="26" height="20" viewBox="0 0 26 20" xmlns="http://www.w3.org/2000/svg">
<path d="M3.97387 0C3.72208 0 3.49219 0.0977904 3.31703 0.27164C3.14188 0.44549 3.04335 0.684533 3.04335 0.923576V14.7772C3.04335 15.2879 3.45935 15.7008 3.97387 15.7008C6.14143 15.7008 9.76498 16.1572 12.2719 18.754V4.25932C12.2719 4.08547 12.2281 3.92248 12.1405 3.7921C10.1043 0.499818 6.15238 0 3.97387 0Z" />
<path d="M22.9565 14.7772V0.923576C22.9565 0.673667 22.8579 0.44549 22.6828 0.27164C22.5076 0.0977904 22.2777 0 22.0259 0C19.8584 0 15.9064 0.499818 13.8483 3.7921C13.7607 3.92248 13.7169 4.08547 13.7169 4.25932V18.754C16.2239 16.1572 19.8474 15.7008 22.015 15.7008C22.5405 15.7008 22.9565 15.2879 22.9565 14.7772Z" />
<path d="M25.0802 3.19452H24.4015V14.7773C24.4015 16.0703 23.3396 17.1351 22.0259 17.1351C20.1868 17.1351 17.1544 17.4937 15.0087 19.5147C18.7199 18.6128 22.628 19.1996 24.8613 19.6994C25.135 19.7646 25.4305 19.6994 25.6495 19.5255C25.8684 19.3517 25.9998 19.0909 25.9998 18.8084V4.1181C26.0107 3.60741 25.5947 3.19452 25.0802 3.19452Z" />
<path d="M1.60925 14.7773V3.19452H0.930519C0.415997 3.19452 0 3.60741 0 4.1181V18.7975C0 19.08 0.131367 19.3408 0.350313 19.5147C0.569259 19.6885 0.864835 19.7537 1.13852 19.6885C3.37176 19.1887 7.27994 18.6019 10.9911 19.5038C8.8454 17.4828 5.81301 17.1351 3.97386 17.1242C2.67114 17.1351 1.60925 16.0703 1.60925 14.7773Z" />

</svg>
