<svg width="17" height="21" viewBox="0 0 17 21" xmlns="http://www.w3.org/2000/svg">
<path d="M4.9937 2.63348H0V18.2991H4.9937V2.63348Z" />
<path d="M9.43254 4.25403H6.10341V18.299H9.43254V4.25403Z" />
<path d="M1.10971 0H3.88399C4.5082 0 4.9937 0.405145 4.9937 0.877813V1.75563H0V0.877813C0 0.405145 0.485498 0 1.10971 0Z"/>
<path d="M7.21312 1.82318H8.32283C8.94704 1.82318 9.43254 2.22833 9.43254 2.70099V3.57881H6.10341V2.70099C6.10341 2.22833 6.58891 1.82318 7.21312 1.82318Z"/>
<path d="M16.715 18.0965L13.4552 18.7042L10.8197 4.86175L14.0794 4.25403L16.715 18.0965ZM11.4439 2.22831L12.4842 2.02573C13.1085 1.89069 13.6633 2.22831 13.7327 2.70098L13.8714 3.57879L10.6116 4.18651C10.6116 4.18651 10.5422 3.78136 10.4035 3.30869C10.4035 2.83602 10.8197 2.36336 11.4439 2.22831ZM16.8537 18.7717C16.8537 18.7717 16.9231 19.1769 16.9924 19.6495C17.0618 20.1222 16.6457 20.5949 16.0908 20.7299L15.0504 20.9325C14.4262 21.0675 13.8714 20.7299 13.802 20.2572L13.594 19.3794L16.8537 18.7717Z"/>
<path d="M9.43254 19.2444V20.1222C9.43254 20.5949 8.94704 21 8.32283 21H7.21312C6.58891 21 6.10341 20.5949 6.10341 20.1222V19.2444H9.43254Z"/>
<path d="M4.9937 19.2444V20.1222C4.9937 20.5949 4.5082 21 3.88399 21H1.10971C0.485498 21 0 20.5949 0 20.1222V19.2444H4.9937Z"/>
</svg>
