<svg width="14" height="21" viewBox="0 0 14 21" xmlns="http://www.w3.org/2000/svg">
<path d="M12.5196 8.99883H12.3154V5.12285C12.3154 2.29688 9.9289 0 6.99787 0C4.06685 0 1.68459 2.29688 1.68459 5.12285V8.99883H1.4804C0.663628 8.99883 0 9.63867 0 10.4262V18.1781C0 19.7326 1.31449 21 2.92677 21H11.0732C12.6855 21 14 19.7326 14 18.1781V10.4262C14 9.63867 13.3364 8.99883 12.5196 8.99883ZM7.63598 15.8115V16.8328C7.63598 17.1732 7.35096 17.448 6.99787 17.448C6.64479 17.448 6.35977 17.1732 6.35977 16.8328V15.8115C5.66211 15.5613 5.16439 14.9133 5.16439 14.1545C5.16439 13.1824 5.98541 12.3867 6.99787 12.3867C8.01033 12.3867 8.83136 13.1783 8.83136 14.1545C8.83136 14.9133 8.33364 15.5613 7.63598 15.8115ZM9.1419 8.99883H4.8581V5.10234C4.8581 3.96211 5.81951 3.03926 6.99787 3.03926C8.17624 3.03926 9.13765 3.96621 9.13765 5.10234V8.99883H9.1419Z"/>
<path d="M6.99787 13.6213C6.69158 13.6213 6.44059 13.8633 6.44059 14.1586C6.44059 14.454 6.69158 14.6959 6.99787 14.6959C7.30416 14.6959 7.55515 14.454 7.55515 14.1586C7.55515 13.8592 7.30841 13.6213 6.99787 13.6213Z" />
</svg>
