<svg width="20" height="20" viewBox="0 0 20 20" xmlns="http://www.w3.org/2000/svg">
<path d="M10 0C4.49067 0 0 4.49067 0 10C0 15.5093 4.49067 20 10 20C15.5093 20 20 15.5093 20 10C20 4.49067 15.5093 0 10 0ZM13.8737 13.8737C13.7016 14.0459 13.4864 14.1176 13.2712 14.1176C13.056 14.1176 12.8264 14.0316 12.6686 13.8737L10 11.2052L7.34577 13.8737C7.1736 14.0459 6.95839 14.1176 6.74319 14.1176C6.52798 14.1176 6.29842 14.0316 6.1406 13.8737C5.81062 13.5438 5.81062 12.9986 6.1406 12.6686L8.79484 10.0143L6.12626 7.34577C5.79627 7.01578 5.79627 6.47059 6.12626 6.1406C6.45624 5.81062 7.00143 5.81062 7.33142 6.1406L9.98565 8.79484L12.6399 6.1406C12.9699 5.81062 13.5151 5.81062 13.8451 6.1406C14.175 6.47059 14.175 7.01578 13.8451 7.34577L11.2052 10L13.8594 12.6542C14.2037 12.9986 14.2037 13.5294 13.8737 13.8737Z"/>
</svg>
