<svg width="19" height="18" viewBox="0 0 19 18" xmlns="http://www.w3.org/2000/svg">
<path d="M18.0834 7.80673C18.0463 7.71711 17.9957 7.63439 17.9282 7.56546L15.769 5.35958C15.489 5.0735 15.0335 5.0735 14.7501 5.35958C14.4701 5.64565 14.4701 6.11095 14.7501 6.40048L15.6813 7.35176H11.6598C11.2617 7.35176 10.9412 7.68265 10.9412 8.08591C10.9412 8.48917 11.2617 8.8235 11.6598 8.8235H15.6813L14.7501 9.77479C14.4701 10.0609 14.4701 10.5262 14.7501 10.8157C14.8918 10.9604 15.074 11.0328 15.2596 11.0328C15.4451 11.0328 15.6273 10.9604 15.769 10.8157L17.9282 8.60981C17.9957 8.54087 18.0463 8.4616 18.0834 8.36854C18.1542 8.18931 18.1542 7.98595 18.0834 7.80673Z"/>
<path d="M13.1003 10.2953C12.7022 10.2953 12.3817 10.6261 12.3817 11.0294V14.707H9.50056V2.94003C9.50056 2.61604 9.29138 2.32996 8.98775 2.2369L6.4878 1.47174H12.3784V5.14936C12.3784 5.55607 12.6989 5.8835 13.097 5.8835C13.4951 5.8835 13.8156 5.55262 13.8156 5.14936V0.737592C13.8189 0.330882 13.4984 0 13.1003 0H1.58238C1.55539 0 1.53177 0.0103401 1.50815 0.0137868C1.47442 0.0172335 1.44405 0.0241268 1.41032 0.0310202C1.33609 0.0517004 1.26862 0.0827206 1.20452 0.124081C1.18765 0.134421 1.16741 0.134421 1.15391 0.144761C1.14716 0.151654 1.14716 0.158548 1.14042 0.161994C1.06282 0.224035 0.995346 0.303309 0.948113 0.392923C0.937992 0.413603 0.934618 0.434283 0.927871 0.454963C0.904254 0.51011 0.880638 0.565257 0.870517 0.627298C0.867143 0.647978 0.873891 0.668658 0.873891 0.692785C0.873891 0.706572 0.86377 0.720358 0.86377 0.734145V15.4412C0.86377 15.7927 1.10668 16.0926 1.44405 16.1615L8.64025 17.6333C8.68748 17.6436 8.73471 17.6471 8.78195 17.6471C8.94726 17.6471 9.1092 17.5885 9.2374 17.4816C9.40272 17.3403 9.50056 17.1335 9.50056 16.9129V16.1788H13.1003C13.4984 16.1788 13.8189 15.8479 13.8189 15.4446V11.0294C13.8189 10.6227 13.4984 10.2953 13.1003 10.2953Z"/>
</svg>
