<svg width="49" height="38" viewBox="0 0 49 38" xmlns="http://www.w3.org/2000/svg">
<path d="M0.603366 21.0684C0.371019 20.5988 0.138672 20.1292 0.138672 19.6596C0.138672 19.1899 0.371019 18.7203 0.603366 18.2507L3.15918 15.6678C3.85623 14.9634 5.01796 14.9634 5.715 15.6678L5.94735 15.9026L16.403 27.1734C16.8677 27.643 17.3324 27.643 17.7971 27.1734L42.4258 0.874995H42.6582C43.3552 0.170574 44.517 0.170574 45.214 0.874995L47.7698 3.45787C48.4669 4.16229 48.4669 5.33633 47.7698 6.04075L18.2617 37.5049C17.7971 37.7397 17.3324 37.9745 16.8677 37.9745C16.403 37.9745 15.9383 37.7397 15.4736 37.5049L1.06806 21.538L0.603366 21.0684Z"/>
</svg>
