<svg width="64" height="64" viewBox="0 0 64 64" xmlns="http://www.w3.org/2000/svg">
<path d="M41.125 32.7822C40.4075 32.0602 40.4075 31.3382 41.125 30.6162L62.6488 8.95605C63.3663 8.23405 63.3663 7.51204 63.3663 6.79004C63.3663 6.06803 63.0076 5.34603 62.6488 4.62402L58.7028 0.652995C57.9853 0.652995 57.2679 0.291992 56.5504 0.291992C55.8329 0.291992 55.1155 0.652995 54.398 1.014L32.8742 22.6741C32.1567 23.3962 31.4392 23.3962 30.7218 22.6741L9.19792 1.014C8.83919 0.652995 8.12173 0.291992 7.40427 0.291992C7.04554 0.291992 5.96934 0.652995 5.61061 1.014L1.30584 5.34603C0.94711 5.70703 0.588379 6.79004 0.588379 7.15104C0.588379 7.87304 0.94711 8.59505 1.30584 9.31705L22.8297 30.9772C23.5472 31.6992 23.5472 32.4212 22.8297 33.1432L1.30584 54.8034C0.94711 55.1644 0.588379 55.8864 0.588379 56.6084C0.588379 57.3304 0.94711 58.0524 1.30584 58.7744L5.25188 62.7454C5.96934 63.4674 6.68681 63.4674 7.40427 63.4674C8.12173 63.4674 8.83919 63.1064 9.55665 62.7454L31.0805 41.0853C31.798 40.3633 32.5154 40.3633 33.2329 41.0853L54.7568 62.7454C55.4742 63.4674 56.1917 63.4674 56.9091 63.4674C57.6266 63.4674 58.3441 63.1064 59.0615 62.7454L63.0076 58.7744C63.725 58.0524 63.725 57.3304 63.725 56.6084C63.725 55.8864 63.3663 55.1644 63.0076 54.4424L41.125 32.7822Z"/>
</svg>
