<svg width="86" height="86" viewBox="0 0 86 86" fill="none" xmlns="http://www.w3.org/2000/svg">
<path d="M12.706 72.4368C20.1469 80.1059 30.044 84.6066 40.6646 85.1801L40.6891 85.2294H40.844H41.7824C42.2173 85.25 42.6307 85.25 42.9974 85.25H42.9994H43.0018H43.0042H43.0066H43.009H43.0114H43.0139H43.0163H43.0187H43.0211H43.0235H43.0259H43.0283H43.0307H43.0331H43.0355H43.038H43.0404H43.0428H43.0452H43.0476H43.05H43.0524H43.0549H43.0573H43.0597H43.0621H43.0645H43.067H43.0694H43.0718H43.0742H43.0766H43.0791H43.0815H43.0839H43.0863H43.0888H43.0912H43.0936H43.096H43.0985H43.1009H43.1033H43.1057H43.1082H43.1106H43.113H43.1155H43.1179H43.1203H43.1228H43.1252H43.1276H43.1301H43.1325H43.1349H43.1374H43.1398H43.1423H43.1447H43.1471H43.1496H43.152H43.1544H43.1569H43.1593H43.1618H43.1642H43.1667H43.1691H43.1716H43.174H43.1764H43.1789H43.1813H43.1838H43.1862H43.1887H43.1911H43.1936H43.196H43.1985H43.201H43.2034H43.2059H43.2083H43.2108H43.2132H43.2157H43.2181H43.2206H43.2231H43.2255H43.228H43.2304H43.2329H43.2354H43.2378H43.2403H43.2428H43.2452H43.2477H43.2502H43.2526H43.2551H43.2576H43.2601H43.2625H43.265H43.2675H43.2699H43.2724H43.2749H43.2774H43.2799H43.2823H43.2848H43.2873H43.2898H43.2923H43.2947H43.2972H43.2997H43.3022H43.3047H43.3072H43.3096H43.3121H43.3146H43.3171H43.3196H43.3221H43.3246H43.3271H43.3296H43.3321H43.3346H43.3371H43.3396H43.3421H43.3446H43.347H43.3495H43.3521H43.3546H43.3571H43.3596H43.3621H43.3646H43.3671H43.3696H43.3721H43.3746H43.3771H43.3796H43.3821H43.3846H43.3872H43.3897H43.3922H43.3947H43.3972H43.3997H43.4023H43.4048H43.4073H43.4098H43.4123H43.4149H43.4174H43.4199H43.4225H43.425H43.4275H43.43H43.4326H43.4351H43.4376H43.4402H43.4427H43.4452H43.4478H43.4503H43.4528H43.4554H43.4579H43.4605H43.463H43.4655H43.4681H43.4706H43.4732H43.4757H43.4783H43.4808H43.4834H43.4859H43.4885H43.491H43.4936H43.4961H43.4987H43.5013H43.5038H43.5064H43.5089H43.5115H43.5141H43.5166H43.5192H43.5218H43.5243H43.5269H43.5295H43.532H43.5346H43.5372H43.5397H43.5423H43.5449H43.5475H43.55H43.5526H43.5552H43.5578H43.5604H43.5629H43.5655H43.5681H43.5707H43.5733H43.5759H43.5785H43.5811H43.5836H43.5862H43.5888H43.5914H43.594H43.5966H43.5992H43.6018H43.6044H43.607H43.6096H43.6122H43.6148H43.6174H43.62H43.6227H43.6253H43.6279H43.6305H43.6331H43.6357H43.6383H43.6409H43.6436H43.6462H43.6488H43.6514H43.654H43.6567H43.6593H43.6619H43.6645H43.6672H43.6698H43.6724H43.6751H43.6777H43.6803H43.683H43.6856H43.6882H43.6909H43.6935H43.6962H43.6988H43.7015H43.7041H43.7067H43.7094H43.712H43.7147H43.7174H43.72H43.7227H43.7253H43.728H43.7306H43.7333H43.736H43.7386H43.7413H43.7439H43.7466H43.7493H43.7519H43.7546H43.7573H43.76H43.7626H43.7653H43.768H43.7707H43.7733H43.776H43.7787H43.7814H43.7841H43.7868H43.7894H43.7921H43.7948H43.7975H43.8002H43.8029H43.8056H43.8083H43.811H43.8137H43.8164H43.8191H43.8218H43.8245H43.8272H43.8299H43.8326H43.8353H43.838H43.8407H43.8435H43.8462H43.8489H43.8516H43.8543H43.857H43.8598H43.8625H43.8652H43.8679H43.8707H43.8734H43.8761H43.8789H43.8816H43.8843H43.8871H43.8898H43.8925H43.8953H43.898H43.9008H43.9035H43.9063H43.909H43.9118H43.9145H43.9173H43.92H43.9228H43.9255H43.9283H43.931H43.9338H43.9366H43.9393H43.9421H43.9449H43.9476H43.9504H43.9532H43.956H43.9587H43.9615H43.9643H43.9671H43.9698H43.9726H43.9754H43.9782H43.981H43.9838H43.9866H43.9893H43.9921H43.9949H43.9977H44.0005H44.0033H44.0061H44.0089H44.0117H44.0145H44.0173H44.0202H44.023H44.0258H44.0286H44.0314H44.0342H44.037H44.0399H44.0427H44.0455H44.0483H44.0511H44.054H44.0568H44.0596H44.0625H44.0653H44.0681H44.071H44.0738H44.0767H44.0795H44.0823H44.0852H44.088H44.0909H44.0937H44.0966H44.0994H44.1023H44.1051H44.108H44.1109H44.1137H44.1166H44.1194H44.1223H44.1252H44.1281H44.1309H44.1338H44.1367H44.1395H44.1424H44.1453H44.1482H44.1511H44.154H44.1568H44.1597H44.1626H44.1655H44.1684H44.1713H44.1742H44.1771H44.18H44.1829H44.1858H44.1887H44.1916H44.1945H44.1974H44.2003H44.2033H44.2062H44.2091H44.212H44.2149H44.2178H44.2208H44.2237H44.2266H44.2296H44.2325H44.2354H44.2384H44.2413H44.2442H44.2472H44.2501H44.2531H44.256H44.2589H44.2619H44.2649H44.2678H44.2708H44.2737H44.2767H44.2796H44.2826H44.2856H44.2885H44.2915H44.2945H44.2974H44.3004H44.3034H44.3064H44.3093H44.3123H44.3153H44.3183H44.3213H44.3242H44.3272H44.3302H44.3332H44.3362H44.3392H44.3422H44.3452H44.3482H44.3512H44.3542H44.3548L82.4945 85.1674H82.495H82.556C82.7932 85.1674 83.9579 85.0571 84.7049 84.0782L84.705 84.0783L84.71 84.0713C85.0469 83.5969 85.4255 82.8041 85.1616 81.6257C85.111 81.3605 85.0071 80.9701 83.938 79.1842C82.8682 77.397 80.8171 74.1899 76.8482 68.2867C82.354 60.9441 85.2488 52.2325 85.2488 43.0103C85.2488 19.7099 66.2926 0.75 42.9994 0.75C19.7062 0.75 0.75 19.7099 0.75 43.0103C0.75 54.0786 5.00404 64.5249 12.706 72.4368ZM44.2926 82.2727V82.2725L44.2822 82.273C43.7953 82.2934 43.3895 82.2934 42.9994 82.2934C42.8565 82.2934 42.7084 82.2888 42.5487 82.2838L42.5273 82.2832C42.3606 82.278 42.1826 82.2727 41.9936 82.2727H41.8127C20.4367 81.635 3.71331 64.385 3.71331 43.0103C3.71331 21.3485 21.3372 3.72727 42.9994 3.72727C64.6616 3.72727 82.2854 21.3484 82.265 43.0307V43.031C82.265 51.955 79.3484 60.3644 73.8409 67.339L73.8387 67.3418L73.2845 68.0644L73.1737 68.2088L73.2771 68.3586L73.7889 69.0997C73.7891 69.1 73.7893 69.1003 73.7895 69.1006C76.7342 73.4549 78.7955 76.5955 80.1536 78.7369C80.8328 79.8078 81.3352 80.6275 81.684 81.2236C81.9513 81.6804 82.1226 81.9963 82.2151 82.1906L44.3337 82.2727H44.3332H44.2926Z" fill="black" stroke="black" stroke-width="0.5"/>
</svg>
