<svg width="16" height="16" viewBox="0 0 16 16" xmlns="http://www.w3.org/2000/svg">
<path d="M5.46875 3.15656C2.45312 3.15656 0 5.60992 0 8.62583C0 10.7135 1.17187 12.595 3.02187 13.5169L2.64062 15.439C2.60313 15.6265 2.68438 15.8172 2.84375 15.9234C3.00312 16.0265 3.2125 16.0265 3.36875 15.9172L6.03438 14.067C8.80938 13.7826 10.9406 11.4417 10.9406 8.62583C10.9375 5.58179 8.46562 3.15656 5.46875 3.15656ZM7.70312 8.94149L6.76562 10.0697C6.67812 10.176 6.54375 10.2385 6.40625 10.2385C6.26875 10.2385 6.13438 10.176 6.04688 10.0697L4.53125 8.24767L3.95312 8.94149C3.7875 9.14151 3.49063 9.16651 3.29375 9.00087C3.09375 8.83523 3.06875 8.53832 3.23438 8.34143L4.17188 7.2132C4.2625 7.10694 4.39375 7.04443 4.53125 7.04443C4.66875 7.04443 4.80312 7.10694 4.89062 7.2132L6.40625 9.03525L6.98438 8.34143C7.15 8.14141 7.44688 8.11641 7.64375 8.28205C7.84375 8.44769 7.86875 8.74147 7.70312 8.94149Z"/>
<path d="M16 5.46928C16 2.45336 13.5469 0 10.5312 0C8.72187 0 7.10312 0.881335 6.10938 2.25022C9.35938 2.57212 11.875 5.31614 11.875 8.62583C11.875 9.69781 11.6125 10.7417 11.0938 11.6918L12.6344 12.7606C12.7906 12.87 12.9969 12.8731 13.1594 12.7669C13.3188 12.6606 13.4 12.47 13.3625 12.2824L12.9812 10.3604C14.825 9.43841 16 7.55698 16 5.46928Z"/>
</svg>
