<svg width="15" height="16" viewBox="0 0 15 16" fill="none" xmlns="http://www.w3.org/2000/svg">
<path d="M14.9081 4.31834L10.8456 0.0922722C10.7904 0.0369089 10.7169 0 10.625 0H4.59559C3.91544 0 3.36397 0.553633 3.36397 1.23645V5.53633H0.919118C0.404412 5.53633 0 5.94233 0 6.45905V11.0727C0 11.5894 0.404412 11.9954 0.919118 11.9954H3.36397V14.7636C3.36397 15.4464 3.91544 16 4.59559 16H13.7684C14.4485 16 15 15.4464 15 14.782V4.53979C14.9816 4.44752 14.9632 4.3737 14.9081 4.31834ZM10.6985 0.83045L14.0257 4.29988H10.6985V0.83045ZM0.919118 11.3679C0.753676 11.3679 0.606618 11.2388 0.606618 11.0542V6.4406C0.606618 6.27451 0.735294 6.12687 0.919118 6.12687H9.17279C9.33824 6.12687 9.48529 6.25606 9.48529 6.4406V11.0542C9.48529 11.2203 9.35662 11.3679 9.17279 11.3679H0.919118ZM14.375 14.7451C14.375 15.0773 14.0993 15.3541 13.7684 15.3541H4.59559C4.26471 15.3541 3.98897 15.0773 3.98897 14.7451V11.9769H9.19118C9.70588 11.9769 10.1103 11.5709 10.1103 11.0542V6.4406C10.1103 5.92388 9.70588 5.51788 9.19118 5.51788H3.97059V1.23645C3.97059 0.904268 4.24632 0.627451 4.57721 0.627451H10.0735V4.61361C10.0735 4.7797 10.2022 4.92734 10.386 4.92734H14.3566V14.7451H14.375Z" fill="black"/>
<path d="M3.27235 7.5291C3.18043 7.51064 2.95985 7.49219 2.64735 7.49219H1.80176V10.1312H2.33485V9.13463H2.68411C2.92308 9.13463 3.1069 9.11618 3.23558 9.09772C3.32749 9.07927 3.4194 9.04236 3.51132 8.96854C3.60323 8.91318 3.67676 8.82091 3.7319 8.71018C3.78705 8.59945 3.82382 8.47027 3.82382 8.30418C3.82382 8.10118 3.76867 7.91664 3.67676 7.78746C3.54808 7.65828 3.43779 7.56601 3.27235 7.5291ZM3.19882 8.52564C3.16205 8.581 3.1069 8.63636 3.03338 8.65482C2.95985 8.67327 2.83117 8.69173 2.61058 8.69173H2.31646V7.93509H2.57382C2.75764 7.93509 2.88632 7.93509 2.95985 7.95355C3.05176 7.972 3.12529 8.00891 3.18043 8.06428C3.23558 8.11964 3.27235 8.21191 3.27235 8.30418C3.25396 8.39646 3.23558 8.45182 3.19882 8.52564Z" fill="black"/>
<path d="M6.10254 7.78746C5.99225 7.67673 5.86357 7.58446 5.69813 7.54755C5.58783 7.51064 5.42239 7.49219 5.2018 7.49219H4.22754V10.1312H5.22019C5.42239 10.1312 5.56945 10.1127 5.69813 10.0758C5.86357 10.0204 5.97386 9.94663 6.06577 9.87281C6.19445 9.76208 6.28636 9.59599 6.34151 9.41145C6.39666 9.24536 6.41504 9.06082 6.41504 8.85782C6.41504 8.61791 6.37827 8.39646 6.32313 8.23037C6.30475 8.04582 6.21283 7.89819 6.10254 7.78746ZM5.84519 9.30072C5.80842 9.41145 5.77166 9.50372 5.69813 9.55909C5.64298 9.61445 5.56945 9.65136 5.47754 9.66981C5.40401 9.68827 5.3121 9.68827 5.16504 9.68827H4.77901V7.93509H5.01798C5.23857 7.93509 5.38563 7.93509 5.45916 7.95355C5.55107 7.972 5.64298 8.00891 5.69813 8.08273C5.77166 8.13809 5.80842 8.23037 5.84519 8.34109C5.88195 8.45182 5.90033 8.59945 5.90033 8.80245C5.90033 9.02391 5.88195 9.17154 5.84519 9.30072Z" fill="black"/>
<path d="M6.89355 10.1312H7.42664V9.00545H8.52958V8.56255H7.42664V7.93509H8.69503V7.49219H6.89355V10.1312Z" fill="black"/>
</svg>
