<svg width="15" height="17" viewBox="0 0 15 17" fill="none" xmlns="http://www.w3.org/2000/svg">
<path d="M14.9145 4.80664L10.8575 0.572266C10.7992 0.513672 10.7215 0.478516 10.636 0.478516H4.59326C3.9171 0.478516 3.36528 1.0332 3.36528 1.71289V6.01758H0.917098C0.411917 6.01758 0 6.43164 0 6.93945V11.5566C0 12.0645 0.411917 12.4785 0.917098 12.4785H3.36528V15.248C3.36528 15.9277 3.9171 16.4785 4.59326 16.4785H13.772C14.4482 16.4785 15 15.9277 15 15.248V5.02148C15 4.94336 14.9689 4.86523 14.9145 4.80664ZM10.7137 1.31055L14.044 4.78711H10.7137V1.31055ZM0.917098 11.8613C0.75 11.8613 0.610104 11.7246 0.610104 11.5527V6.93945C0.610104 6.77148 0.746114 6.63086 0.917098 6.63086H9.18264C9.34974 6.63086 9.48964 6.76758 9.48964 6.93945V11.5566C9.48964 11.7246 9.35363 11.8652 9.18264 11.8652H0.917098V11.8613ZM14.386 15.248C14.386 15.5879 14.1101 15.8613 13.772 15.8613H4.59326C4.25518 15.8613 3.97927 15.584 3.97927 15.248V12.4785H9.18264C9.68782 12.4785 10.0997 12.0645 10.0997 11.5566V6.93945C10.0997 6.43164 9.68782 6.01758 9.18264 6.01758H3.97927V1.71289C3.97927 1.37305 4.25518 1.0957 4.59326 1.0957H10.0997V5.0957C10.0997 5.26758 10.2358 5.4043 10.4067 5.4043H14.386V15.248Z" fill="black"/>
<path d="M8.35745 8.2832C8.24864 8.16602 8.11652 8.08398 7.96108 8.04102C7.8445 8.00586 7.68129 7.99023 7.45978 7.99023H6.48828V10.6348H7.48699C7.68129 10.6348 7.84061 10.6152 7.95719 10.5801C8.11263 10.5293 8.23699 10.459 8.33025 10.3691C8.45072 10.252 8.54787 10.0957 8.61393 9.90039C8.66833 9.74414 8.69554 9.55664 8.69554 9.33789C8.69554 9.0918 8.66833 8.88086 8.61004 8.71289C8.55175 8.54102 8.46626 8.40039 8.35745 8.2832ZM8.0932 9.79492C8.05823 9.91211 8.0116 9.99805 7.95331 10.0488C7.89502 10.0996 7.82507 10.1387 7.73958 10.1582C7.67351 10.1738 7.56859 10.1816 7.41704 10.1816H7.02066V8.43164H7.25771C7.47533 8.43164 7.61911 8.43945 7.69294 8.45508C7.79398 8.47852 7.87559 8.51758 7.93776 8.58008C8.00383 8.64258 8.05434 8.72852 8.08932 8.83789C8.12429 8.94727 8.14372 9.10352 8.14372 9.30664C8.14372 9.51758 8.12818 9.67773 8.0932 9.79492Z" fill="black"/>
<path d="M8.68511 9.66211C8.64236 9.85742 8.56853 9.99805 8.46749 10.0879C8.36645 10.1777 8.24599 10.2246 8.10221 10.2246C7.91179 10.2246 7.75635 10.1543 7.63588 10.0137C7.51542 9.87305 7.45713 9.63477 7.45713 9.29883C7.45713 8.98242 7.5193 8.75586 7.63977 8.61523C7.76024 8.47461 7.91956 8.4043 8.11386 8.4043C8.25376 8.4043 8.37423 8.44336 8.47526 8.52148C8.57241 8.59961 8.63847 8.70898 8.66956 8.8457L9.19417 8.7207C9.13588 8.50977 9.04651 8.3457 8.92604 8.23242C8.72397 8.04102 8.4636 7.94727 8.14107 7.94727C7.77189 7.94727 7.47656 8.06836 7.25117 8.31055C7.02578 8.55273 6.91309 8.89648 6.91309 9.33398C6.91309 9.74805 7.02578 10.0762 7.25117 10.3184C7.47656 10.5566 7.76412 10.6777 8.11386 10.6777C8.39754 10.6777 8.6307 10.6074 8.81335 10.4668C8.99599 10.3262 9.12811 10.1113 9.20583 9.82227L8.68511 9.66211Z" fill="black"/>
<path d="M5.30783 7.94336C5.0941 7.94336 4.90369 7.97852 4.74048 8.04883C4.61612 8.09961 4.50343 8.18164 4.40239 8.28711C4.29747 8.39258 4.21587 8.51367 4.15758 8.65039C4.07597 8.83398 4.03711 9.06055 4.03711 9.33008C4.03711 9.75195 4.15369 10.0801 4.38296 10.3223C4.61224 10.5605 4.92312 10.6816 5.31561 10.6816C5.70032 10.6816 6.0112 10.5605 6.24048 10.3184C6.46975 10.0762 6.58633 9.74414 6.58633 9.31836C6.58633 8.88867 6.46975 8.55273 6.23659 8.31055C6.00343 8.06445 5.69644 7.94336 5.30783 7.94336ZM5.83245 9.99023C5.69644 10.1426 5.52157 10.2207 5.31172 10.2207C5.10188 10.2207 4.92701 10.1426 4.78711 9.99023C4.6511 9.83398 4.58115 9.60742 4.58115 9.31055C4.58115 9.00586 4.64721 8.7793 4.78322 8.62695C4.91535 8.47461 5.0941 8.40039 5.31172 8.40039C5.52934 8.40039 5.70421 8.47461 5.83633 8.62305C5.96846 8.77148 6.03452 8.99805 6.03452 9.30273C6.0384 9.60742 5.96846 9.83789 5.83245 9.99023Z" fill="black"/>
</svg>
