<svg width="12" height="7" viewBox="0 0 12 7" xmlns="http://www.w3.org/2000/svg">
<path d="M0.0947456 3.22384C1.62903 1.2277 3.70644 0 6.00173 0C8.29394 0 10.3714 1.2277 11.9056 3.22084C12.0315 3.38293 12.0315 3.61106 11.9056 3.77616C10.3714 5.7723 8.29087 7 5.99866 7C3.70644 7 1.62596 5.7723 0.0916767 3.77916C-0.0310659 3.61407 -0.0310659 3.38593 0.0947456 3.22384ZM3.48244 3.65909C3.56222 4.88679 4.58098 5.88336 5.83603 5.96141C7.35803 6.05446 8.61614 4.82676 8.51795 3.33791C8.43817 2.1072 7.4194 1.11063 6.16436 1.03559C4.64235 0.942539 3.38731 2.16724 3.48244 3.65909Z"/>
<path d="M6.08779 2.17025C6.76594 2.21228 7.31522 2.74958 7.35818 3.41296C7.41341 4.21442 6.73526 4.8748 5.91595 4.82377C5.24087 4.78174 4.6916 4.24744 4.64557 3.58106C4.59033 2.7796 5.26542 2.11922 6.08779 2.17025Z"/>
</svg>
