<svg width="15" height="15" viewBox="0 0 15 15" xmlns="http://www.w3.org/2000/svg">
<path d="M7.5 0C11.625 0 15 3.375 15 7.5C15 11.625 11.625 15 7.5 15C3.375 15 0 11.625 0 7.5C0 3.375 3.375 0 7.5 0ZM2.325 4.5H4.5C4.725 3.525 5.1 2.7 5.55 1.8C4.2 2.325 3 3.225 2.325 4.5ZM7.5 1.5C6.9 2.4 6.375 3.375 6.075 4.5H8.925C8.625 3.45 8.1 2.4 7.5 1.5ZM13.275 9C13.425 8.55 13.5 8.025 13.5 7.5C13.5 6.975 13.425 6.45 13.275 6H10.725C10.8 6.525 10.8 6.975 10.8 7.5C10.8 8.025 10.725 8.475 10.725 9H13.275ZM12.675 10.5H10.5C10.275 11.475 9.9 12.3 9.45 13.2C10.8 12.675 12 11.775 12.675 10.5ZM10.5 4.5H12.675C11.925 3.225 10.8 2.325 9.45 1.8C9.9 2.7 10.275 3.525 10.5 4.5ZM7.5 13.5C8.1 12.6 8.625 11.625 8.925 10.5H6.075C6.375 11.55 6.9 12.6 7.5 13.5ZM5.775 9H9.225C9.3 8.475 9.375 8.025 9.375 7.5C9.375 6.975 9.3 6.525 9.225 6H5.7C5.625 6.525 5.55 6.975 5.55 7.5C5.55 8.025 5.7 8.475 5.775 9ZM5.55 13.2C5.1 12.375 4.725 11.475 4.5 10.5H2.325C3 11.775 4.2 12.675 5.55 13.2ZM4.2 9C4.125 8.475 4.125 8.025 4.125 7.5C4.125 6.975 4.2 6.525 4.2 6H1.65C1.5 6.45 1.42503 6.975 1.42503 7.5C1.42503 8.025 1.50003 8.55 1.65 9H4.2Z"/>
</svg>
