<svg width="18" height="18" viewBox="0 0 18 18" fill="none" xmlns="http://www.w3.org/2000/svg">
<mask id="path-1-outside-1" maskUnits="userSpaceOnUse" x="0" y="0" width="18" height="18" fill="black">
<rect fill="white" width="18" height="18"/>
<path d="M14.6562 3.34375C13.1469 1.83125 11.1375 1 9 1C6.8625 1 4.85313 1.83125 3.34375 3.34375C1.83125 4.85313 1 6.8625 1 9C1 11.1375 1.83125 13.1469 3.34375 14.6562C4.85625 16.1687 6.8625 17 9 17C11.1375 17 13.1469 16.1687 14.6562 14.6562C16.1687 13.1438 17 11.1375 17 9C17 6.8625 16.1687 4.85313 14.6562 3.34375ZM12.75 4.4375L13.1031 2.975C14.5031 3.93125 15.5531 5.3625 16.0219 7.0375L15.8375 7.07188C15.5625 7.125 15.3406 7.33437 15.275 7.60625L15.2031 7.89375C15.2031 7.89688 15.2031 7.9 15.1969 7.9C15.1906 7.90313 15.1906 7.9 15.1875 7.9L14.7594 7.58125C14.5375 7.41563 14.2375 7.39062 13.9906 7.51875L13.4594 7.79688C13.2031 7.93125 13.0562 8.19375 13.075 8.48125C13.0938 8.76875 13.2719 9.00938 13.5406 9.1125L13.5656 9.12187C13.5688 9.12187 13.5719 9.125 13.5719 9.12813C13.5719 9.13438 13.5719 9.13437 13.5688 9.1375L13.2375 9.51875C13.2344 9.52188 13.2281 9.525 13.225 9.52188L12.3313 8.94375C12.125 8.8125 11.8719 8.79063 11.6469 8.89062C11.425 8.99062 11.2656 9.19375 11.2281 9.43437L11.1594 9.85625C11.1219 10.0938 11.2031 10.3344 11.3781 10.5L11.8438 10.9375C11.8469 10.9406 11.8469 10.9469 11.8469 10.95L11.0875 12.1031C11.0156 12.2125 10.975 12.3406 10.9688 12.4719L10.9031 14.1219C10.9031 14.125 10.9031 14.1281 10.9 14.1281L9.8875 15.1219C9.88437 15.125 9.87813 15.125 9.875 15.125L9.21875 14.7406C9.21562 14.7406 9.21562 14.7375 9.2125 14.7344C9.2125 14.7344 8.89375 13.2906 8.88125 13.2563L8.59062 12.4781C8.49375 12.2188 8.25313 12.0344 7.97813 12.0125L6.65312 11.8969C6.65 11.8969 6.64688 11.8938 6.64375 11.8906L5.89062 10.5906C5.89062 10.5875 5.8875 10.5875 5.89062 10.5844L6.08125 9.325C6.08125 9.32187 6.08437 9.31875 6.08437 9.31875L7.24062 8.44688C7.24375 8.44375 7.24687 8.44375 7.25 8.44688L8.37187 8.91563C8.43437 8.94375 8.50313 8.95937 8.57188 8.96562L10.125 9.13437C10.3031 9.15312 10.4781 9.10625 10.6219 9.00313L11.65 8.26562C11.9281 8.06563 12.0281 7.69688 11.8875 7.38438L11.7906 7.17188C11.6812 6.925 11.4438 6.75937 11.1719 6.74687L8.28125 6.5875C8.27812 6.5875 8.27812 6.5875 8.27812 6.5875C8.275 6.58437 8.275 6.58437 8.275 6.58437C8.275 6.58125 8.275 6.57188 8.275 6.57188C8.275 6.57188 8.27812 6.57188 8.28125 6.56875L9.15 6.33437C9.26562 6.30312 9.37187 6.24375 9.45625 6.1625L10.5188 5.1625C10.5219 5.1625 10.5219 5.15938 10.525 5.15938L12.1219 4.99375C12.425 4.95625 12.6781 4.73438 12.75 4.4375ZM7.34062 3.85L7.9375 2.725C8.025 2.55938 8.05312 2.36563 8.01562 2.18125L7.93437 1.7875C8.28125 1.7375 8.6375 1.70938 9 1.70938C9.36563 1.70938 9.725 1.7375 10.075 1.7875C10.075 1.7875 9.99063 1.88125 9.975 1.8875L9.12813 2.22812C9.00625 2.27812 8.9 2.35312 8.8125 2.45312L7.49375 3.99375C7.475 4.01562 7.45 4.02813 7.42188 4.02813C7.38125 4.03125 7.35312 4.00625 7.34062 3.99375C7.3 3.94375 7.33437 3.85938 7.34062 3.85ZM4.23125 3.49062V4.55625C4.23125 4.85313 4.08125 5.12813 3.83125 5.29063L3.06562 5.7875C2.8875 5.90312 2.7375 6.05 2.61875 6.225L1.925 7.24375C2.29375 5.7625 3.1125 4.45937 4.23125 3.49062ZM4.69688 13.9875L4.59687 14.8031C3.45625 13.9375 2.57812 12.7406 2.10625 11.3625H2.55938C2.61563 11.3625 2.66562 11.3906 2.69687 11.4375L3.6125 12.8625C3.65313 12.925 3.70312 12.9844 3.75938 13.0375L4.65 13.85C4.68438 13.8844 4.70312 13.9344 4.69688 13.9875ZM9 16.2875C7.63125 16.2875 6.35312 15.9094 5.25625 15.25L5.4 14.0719C5.43438 13.7906 5.33125 13.5094 5.12187 13.3188C5.12187 13.3188 4.2125 12.4875 4.20312 12.475L3.2875 11.05C3.125 10.7969 2.85 10.6469 2.55313 10.6469H1.89688C1.775 10.1156 1.70938 9.5625 1.70938 8.99687C1.70938 8.93437 1.70937 8.875 1.7125 8.8125L3.20625 6.62187C3.27187 6.525 3.35625 6.44375 3.45312 6.38125L4.21875 5.88438C4.67188 5.59063 4.94375 5.09375 4.94375 4.55312V2.94687C5.63438 2.48125 6.40625 2.13437 7.2375 1.92813L7.31875 2.32812C7.32188 2.35 7.31875 2.375 7.30937 2.39375L6.7125 3.51875C6.675 3.5875 6.62813 3.77187 6.62813 3.77187C6.57812 4.01875 6.64375 4.26562 6.80937 4.45625C6.96562 4.6375 7.1875 4.74062 7.425 4.74062C7.4375 4.74062 7.78125 4.75625 8.04063 4.45625L9.35938 2.91562C9.36875 2.90312 9.38438 2.89375 9.39688 2.8875L10.2437 2.54688C10.3625 2.5 10.4719 2.42188 10.5562 2.32187L10.875 1.95C11.4375 2.1 11.9719 2.3125 12.4719 2.58438C12.4625 2.60312 12.0625 4.26562 12.0625 4.26562C12.0625 4.26875 12.0594 4.27188 12.0531 4.275L10.4563 4.44062C10.3 4.45625 10.15 4.525 10.0344 4.63438L8.97188 5.63438L8.96875 5.6375L8.1 5.87187C7.81562 5.94687 7.60938 6.18437 7.57188 6.475C7.53438 6.76562 7.675 7.04688 7.92812 7.19375C8.025 7.25 8.13437 7.28125 8.24687 7.2875L11.1375 7.44688C11.1406 7.44688 11.1438 7.45 11.1469 7.45312L11.2437 7.66563C11.2469 7.66875 11.2438 7.675 11.2406 7.67812L10.2125 8.41563C10.2094 8.41563 10.2094 8.41875 10.2063 8.41875L8.65 8.25L7.52812 7.78125C7.29375 7.68437 7.01875 7.71875 6.81563 7.87187L5.65938 8.74375C5.50625 8.85938 5.40937 9.025 5.38125 9.2125L5.19063 10.4719C5.16563 10.6344 5.19688 10.8 5.28125 10.9406L6.03438 12.2406C6.15313 12.4438 6.3625 12.5781 6.59688 12.5969L7.92188 12.7125C7.925 12.7125 7.92812 12.7156 7.93125 12.7188L8.22188 13.4969L8.525 14.875C8.56875 15.0719 8.69062 15.2406 8.86562 15.3438L9.52188 15.7281C9.63438 15.7937 9.75937 15.8281 9.88437 15.8281C10.0687 15.8281 10.2531 15.7562 10.3906 15.6219L11.4031 14.6281C11.5344 14.5 11.6125 14.325 11.6187 14.1406L11.6844 12.4906C11.6844 12.4875 11.6844 12.4875 11.6875 12.4844L12.4469 11.3313C12.6406 11.0375 12.5938 10.6469 12.3375 10.4062L11.8719 9.96875C11.8687 9.96562 11.8687 9.9625 11.8687 9.95938L11.9375 9.5375C11.9375 9.53438 11.9375 9.53125 11.9438 9.53125C11.95 9.52812 11.95 9.53125 11.9531 9.53125L12.8469 10.1094C13.1469 10.3031 13.55 10.2469 13.7812 9.97812L14.1125 9.59688C14.2688 9.41875 14.325 9.175 14.2688 8.94688C14.2094 8.71875 14.0437 8.53125 13.8219 8.45L13.7969 8.44063C13.7937 8.44063 13.7906 8.4375 13.7906 8.4375C13.7875 8.43437 13.7875 8.42813 13.7906 8.425C13.7906 8.425 13.7937 8.42188 13.7969 8.42188L14.3281 8.14375C14.3313 8.14062 14.3344 8.14375 14.3406 8.14375L14.7688 8.4625C14.9625 8.60938 15.2156 8.64688 15.4438 8.56563C15.6719 8.48438 15.8438 8.29375 15.9031 8.05937L15.975 7.77187C15.975 7.76875 15.9781 7.76562 15.9844 7.76562L16.1906 7.725C16.2625 8.1375 16.3 8.55938 16.3 8.99375C16.2875 13.0188 13.0188 16.2875 9 16.2875Z"/>
</mask>
<path d="M14.6562 3.34375C13.1469 1.83125 11.1375 1 9 1C6.8625 1 4.85313 1.83125 3.34375 3.34375C1.83125 4.85313 1 6.8625 1 9C1 11.1375 1.83125 13.1469 3.34375 14.6562C4.85625 16.1687 6.8625 17 9 17C11.1375 17 13.1469 16.1687 14.6562 14.6562C16.1687 13.1438 17 11.1375 17 9C17 6.8625 16.1687 4.85313 14.6562 3.34375ZM12.75 4.4375L13.1031 2.975C14.5031 3.93125 15.5531 5.3625 16.0219 7.0375L15.8375 7.07188C15.5625 7.125 15.3406 7.33437 15.275 7.60625L15.2031 7.89375C15.2031 7.89688 15.2031 7.9 15.1969 7.9C15.1906 7.90313 15.1906 7.9 15.1875 7.9L14.7594 7.58125C14.5375 7.41563 14.2375 7.39062 13.9906 7.51875L13.4594 7.79688C13.2031 7.93125 13.0562 8.19375 13.075 8.48125C13.0938 8.76875 13.2719 9.00938 13.5406 9.1125L13.5656 9.12187C13.5688 9.12187 13.5719 9.125 13.5719 9.12813C13.5719 9.13438 13.5719 9.13437 13.5688 9.1375L13.2375 9.51875C13.2344 9.52188 13.2281 9.525 13.225 9.52188L12.3313 8.94375C12.125 8.8125 11.8719 8.79063 11.6469 8.89062C11.425 8.99062 11.2656 9.19375 11.2281 9.43437L11.1594 9.85625C11.1219 10.0938 11.2031 10.3344 11.3781 10.5L11.8438 10.9375C11.8469 10.9406 11.8469 10.9469 11.8469 10.95L11.0875 12.1031C11.0156 12.2125 10.975 12.3406 10.9688 12.4719L10.9031 14.1219C10.9031 14.125 10.9031 14.1281 10.9 14.1281L9.8875 15.1219C9.88437 15.125 9.87813 15.125 9.875 15.125L9.21875 14.7406C9.21562 14.7406 9.21562 14.7375 9.2125 14.7344C9.2125 14.7344 8.89375 13.2906 8.88125 13.2563L8.59062 12.4781C8.49375 12.2188 8.25313 12.0344 7.97813 12.0125L6.65312 11.8969C6.65 11.8969 6.64688 11.8938 6.64375 11.8906L5.89062 10.5906C5.89062 10.5875 5.8875 10.5875 5.89062 10.5844L6.08125 9.325C6.08125 9.32187 6.08437 9.31875 6.08437 9.31875L7.24062 8.44688C7.24375 8.44375 7.24687 8.44375 7.25 8.44688L8.37187 8.91563C8.43437 8.94375 8.50313 8.95937 8.57188 8.96562L10.125 9.13437C10.3031 9.15312 10.4781 9.10625 10.6219 9.00313L11.65 8.26562C11.9281 8.06563 12.0281 7.69688 11.8875 7.38438L11.7906 7.17188C11.6812 6.925 11.4438 6.75937 11.1719 6.74687L8.28125 6.5875C8.27812 6.5875 8.27812 6.5875 8.27812 6.5875C8.275 6.58437 8.275 6.58437 8.275 6.58437C8.275 6.58125 8.275 6.57188 8.275 6.57188C8.275 6.57188 8.27812 6.57188 8.28125 6.56875L9.15 6.33437C9.26562 6.30312 9.37187 6.24375 9.45625 6.1625L10.5188 5.1625C10.5219 5.1625 10.5219 5.15938 10.525 5.15938L12.1219 4.99375C12.425 4.95625 12.6781 4.73438 12.75 4.4375ZM7.34062 3.85L7.9375 2.725C8.025 2.55938 8.05312 2.36563 8.01562 2.18125L7.93437 1.7875C8.28125 1.7375 8.6375 1.70938 9 1.70938C9.36563 1.70938 9.725 1.7375 10.075 1.7875C10.075 1.7875 9.99063 1.88125 9.975 1.8875L9.12813 2.22812C9.00625 2.27812 8.9 2.35312 8.8125 2.45312L7.49375 3.99375C7.475 4.01562 7.45 4.02813 7.42188 4.02813C7.38125 4.03125 7.35312 4.00625 7.34062 3.99375C7.3 3.94375 7.33437 3.85938 7.34062 3.85ZM4.23125 3.49062V4.55625C4.23125 4.85313 4.08125 5.12813 3.83125 5.29063L3.06562 5.7875C2.8875 5.90312 2.7375 6.05 2.61875 6.225L1.925 7.24375C2.29375 5.7625 3.1125 4.45937 4.23125 3.49062ZM4.69688 13.9875L4.59687 14.8031C3.45625 13.9375 2.57812 12.7406 2.10625 11.3625H2.55938C2.61563 11.3625 2.66562 11.3906 2.69687 11.4375L3.6125 12.8625C3.65313 12.925 3.70312 12.9844 3.75938 13.0375L4.65 13.85C4.68438 13.8844 4.70312 13.9344 4.69688 13.9875ZM9 16.2875C7.63125 16.2875 6.35312 15.9094 5.25625 15.25L5.4 14.0719C5.43438 13.7906 5.33125 13.5094 5.12187 13.3188C5.12187 13.3188 4.2125 12.4875 4.20312 12.475L3.2875 11.05C3.125 10.7969 2.85 10.6469 2.55313 10.6469H1.89688C1.775 10.1156 1.70938 9.5625 1.70938 8.99687C1.70938 8.93437 1.70937 8.875 1.7125 8.8125L3.20625 6.62187C3.27187 6.525 3.35625 6.44375 3.45312 6.38125L4.21875 5.88438C4.67188 5.59063 4.94375 5.09375 4.94375 4.55312V2.94687C5.63438 2.48125 6.40625 2.13437 7.2375 1.92813L7.31875 2.32812C7.32188 2.35 7.31875 2.375 7.30937 2.39375L6.7125 3.51875C6.675 3.5875 6.62813 3.77187 6.62813 3.77187C6.57812 4.01875 6.64375 4.26562 6.80937 4.45625C6.96562 4.6375 7.1875 4.74062 7.425 4.74062C7.4375 4.74062 7.78125 4.75625 8.04063 4.45625L9.35938 2.91562C9.36875 2.90312 9.38438 2.89375 9.39688 2.8875L10.2437 2.54688C10.3625 2.5 10.4719 2.42188 10.5562 2.32187L10.875 1.95C11.4375 2.1 11.9719 2.3125 12.4719 2.58438C12.4625 2.60312 12.0625 4.26562 12.0625 4.26562C12.0625 4.26875 12.0594 4.27188 12.0531 4.275L10.4563 4.44062C10.3 4.45625 10.15 4.525 10.0344 4.63438L8.97188 5.63438L8.96875 5.6375L8.1 5.87187C7.81562 5.94687 7.60938 6.18437 7.57188 6.475C7.53438 6.76562 7.675 7.04688 7.92812 7.19375C8.025 7.25 8.13437 7.28125 8.24687 7.2875L11.1375 7.44688C11.1406 7.44688 11.1438 7.45 11.1469 7.45312L11.2437 7.66563C11.2469 7.66875 11.2438 7.675 11.2406 7.67812L10.2125 8.41563C10.2094 8.41563 10.2094 8.41875 10.2063 8.41875L8.65 8.25L7.52812 7.78125C7.29375 7.68437 7.01875 7.71875 6.81563 7.87187L5.65938 8.74375C5.50625 8.85938 5.40937 9.025 5.38125 9.2125L5.19063 10.4719C5.16563 10.6344 5.19688 10.8 5.28125 10.9406L6.03438 12.2406C6.15313 12.4438 6.3625 12.5781 6.59688 12.5969L7.92188 12.7125C7.925 12.7125 7.92812 12.7156 7.93125 12.7188L8.22188 13.4969L8.525 14.875C8.56875 15.0719 8.69062 15.2406 8.86562 15.3438L9.52188 15.7281C9.63438 15.7937 9.75937 15.8281 9.88437 15.8281C10.0687 15.8281 10.2531 15.7562 10.3906 15.6219L11.4031 14.6281C11.5344 14.5 11.6125 14.325 11.6187 14.1406L11.6844 12.4906C11.6844 12.4875 11.6844 12.4875 11.6875 12.4844L12.4469 11.3313C12.6406 11.0375 12.5938 10.6469 12.3375 10.4062L11.8719 9.96875C11.8687 9.96562 11.8687 9.9625 11.8687 9.95938L11.9375 9.5375C11.9375 9.53438 11.9375 9.53125 11.9438 9.53125C11.95 9.52812 11.95 9.53125 11.9531 9.53125L12.8469 10.1094C13.1469 10.3031 13.55 10.2469 13.7812 9.97812L14.1125 9.59688C14.2688 9.41875 14.325 9.175 14.2688 8.94688C14.2094 8.71875 14.0437 8.53125 13.8219 8.45L13.7969 8.44063C13.7937 8.44063 13.7906 8.4375 13.7906 8.4375C13.7875 8.43437 13.7875 8.42813 13.7906 8.425C13.7906 8.425 13.7937 8.42188 13.7969 8.42188L14.3281 8.14375C14.3313 8.14062 14.3344 8.14375 14.3406 8.14375L14.7688 8.4625C14.9625 8.60938 15.2156 8.64688 15.4438 8.56563C15.6719 8.48438 15.8438 8.29375 15.9031 8.05937L15.975 7.77187C15.975 7.76875 15.9781 7.76562 15.9844 7.76562L16.1906 7.725C16.2625 8.1375 16.3 8.55938 16.3 8.99375C16.2875 13.0188 13.0188 16.2875 9 16.2875Z" fill="#FF441E"/>
<path d="M14.6562 3.34375C13.1469 1.83125 11.1375 1 9 1C6.8625 1 4.85313 1.83125 3.34375 3.34375C1.83125 4.85313 1 6.8625 1 9C1 11.1375 1.83125 13.1469 3.34375 14.6562C4.85625 16.1687 6.8625 17 9 17C11.1375 17 13.1469 16.1687 14.6562 14.6562C16.1687 13.1438 17 11.1375 17 9C17 6.8625 16.1687 4.85313 14.6562 3.34375ZM12.75 4.4375L13.1031 2.975C14.5031 3.93125 15.5531 5.3625 16.0219 7.0375L15.8375 7.07188C15.5625 7.125 15.3406 7.33437 15.275 7.60625L15.2031 7.89375C15.2031 7.89688 15.2031 7.9 15.1969 7.9C15.1906 7.90313 15.1906 7.9 15.1875 7.9L14.7594 7.58125C14.5375 7.41563 14.2375 7.39062 13.9906 7.51875L13.4594 7.79688C13.2031 7.93125 13.0562 8.19375 13.075 8.48125C13.0938 8.76875 13.2719 9.00938 13.5406 9.1125L13.5656 9.12187C13.5688 9.12187 13.5719 9.125 13.5719 9.12813C13.5719 9.13438 13.5719 9.13437 13.5688 9.1375L13.2375 9.51875C13.2344 9.52188 13.2281 9.525 13.225 9.52188L12.3313 8.94375C12.125 8.8125 11.8719 8.79063 11.6469 8.89062C11.425 8.99062 11.2656 9.19375 11.2281 9.43437L11.1594 9.85625C11.1219 10.0938 11.2031 10.3344 11.3781 10.5L11.8438 10.9375C11.8469 10.9406 11.8469 10.9469 11.8469 10.95L11.0875 12.1031C11.0156 12.2125 10.975 12.3406 10.9688 12.4719L10.9031 14.1219C10.9031 14.125 10.9031 14.1281 10.9 14.1281L9.8875 15.1219C9.88437 15.125 9.87813 15.125 9.875 15.125L9.21875 14.7406C9.21562 14.7406 9.21562 14.7375 9.2125 14.7344C9.2125 14.7344 8.89375 13.2906 8.88125 13.2563L8.59062 12.4781C8.49375 12.2188 8.25313 12.0344 7.97813 12.0125L6.65312 11.8969C6.65 11.8969 6.64688 11.8938 6.64375 11.8906L5.89062 10.5906C5.89062 10.5875 5.8875 10.5875 5.89062 10.5844L6.08125 9.325C6.08125 9.32187 6.08437 9.31875 6.08437 9.31875L7.24062 8.44688C7.24375 8.44375 7.24687 8.44375 7.25 8.44688L8.37187 8.91563C8.43437 8.94375 8.50313 8.95937 8.57188 8.96562L10.125 9.13437C10.3031 9.15312 10.4781 9.10625 10.6219 9.00313L11.65 8.26562C11.9281 8.06563 12.0281 7.69688 11.8875 7.38438L11.7906 7.17188C11.6812 6.925 11.4438 6.75937 11.1719 6.74687L8.28125 6.5875C8.27812 6.5875 8.27812 6.5875 8.27812 6.5875C8.275 6.58437 8.275 6.58437 8.275 6.58437C8.275 6.58125 8.275 6.57188 8.275 6.57188C8.275 6.57188 8.27812 6.57188 8.28125 6.56875L9.15 6.33437C9.26562 6.30312 9.37187 6.24375 9.45625 6.1625L10.5188 5.1625C10.5219 5.1625 10.5219 5.15938 10.525 5.15938L12.1219 4.99375C12.425 4.95625 12.6781 4.73438 12.75 4.4375ZM7.34062 3.85L7.9375 2.725C8.025 2.55938 8.05312 2.36563 8.01562 2.18125L7.93437 1.7875C8.28125 1.7375 8.6375 1.70938 9 1.70938C9.36563 1.70938 9.725 1.7375 10.075 1.7875C10.075 1.7875 9.99063 1.88125 9.975 1.8875L9.12813 2.22812C9.00625 2.27812 8.9 2.35312 8.8125 2.45312L7.49375 3.99375C7.475 4.01562 7.45 4.02813 7.42188 4.02813C7.38125 4.03125 7.35312 4.00625 7.34062 3.99375C7.3 3.94375 7.33437 3.85938 7.34062 3.85ZM4.23125 3.49062V4.55625C4.23125 4.85313 4.08125 5.12813 3.83125 5.29063L3.06562 5.7875C2.8875 5.90312 2.7375 6.05 2.61875 6.225L1.925 7.24375C2.29375 5.7625 3.1125 4.45937 4.23125 3.49062ZM4.69688 13.9875L4.59687 14.8031C3.45625 13.9375 2.57812 12.7406 2.10625 11.3625H2.55938C2.61563 11.3625 2.66562 11.3906 2.69687 11.4375L3.6125 12.8625C3.65313 12.925 3.70312 12.9844 3.75938 13.0375L4.65 13.85C4.68438 13.8844 4.70312 13.9344 4.69688 13.9875ZM9 16.2875C7.63125 16.2875 6.35312 15.9094 5.25625 15.25L5.4 14.0719C5.43438 13.7906 5.33125 13.5094 5.12187 13.3188C5.12187 13.3188 4.2125 12.4875 4.20312 12.475L3.2875 11.05C3.125 10.7969 2.85 10.6469 2.55313 10.6469H1.89688C1.775 10.1156 1.70938 9.5625 1.70938 8.99687C1.70938 8.93437 1.70937 8.875 1.7125 8.8125L3.20625 6.62187C3.27187 6.525 3.35625 6.44375 3.45312 6.38125L4.21875 5.88438C4.67188 5.59063 4.94375 5.09375 4.94375 4.55312V2.94687C5.63438 2.48125 6.40625 2.13437 7.2375 1.92813L7.31875 2.32812C7.32188 2.35 7.31875 2.375 7.30937 2.39375L6.7125 3.51875C6.675 3.5875 6.62813 3.77187 6.62813 3.77187C6.57812 4.01875 6.64375 4.26562 6.80937 4.45625C6.96562 4.6375 7.1875 4.74062 7.425 4.74062C7.4375 4.74062 7.78125 4.75625 8.04063 4.45625L9.35938 2.91562C9.36875 2.90312 9.38438 2.89375 9.39688 2.8875L10.2437 2.54688C10.3625 2.5 10.4719 2.42188 10.5562 2.32187L10.875 1.95C11.4375 2.1 11.9719 2.3125 12.4719 2.58438C12.4625 2.60312 12.0625 4.26562 12.0625 4.26562C12.0625 4.26875 12.0594 4.27188 12.0531 4.275L10.4563 4.44062C10.3 4.45625 10.15 4.525 10.0344 4.63438L8.97188 5.63438L8.96875 5.6375L8.1 5.87187C7.81562 5.94687 7.60938 6.18437 7.57188 6.475C7.53438 6.76562 7.675 7.04688 7.92812 7.19375C8.025 7.25 8.13437 7.28125 8.24687 7.2875L11.1375 7.44688C11.1406 7.44688 11.1438 7.45 11.1469 7.45312L11.2437 7.66563C11.2469 7.66875 11.2438 7.675 11.2406 7.67812L10.2125 8.41563C10.2094 8.41563 10.2094 8.41875 10.2063 8.41875L8.65 8.25L7.52812 7.78125C7.29375 7.68437 7.01875 7.71875 6.81563 7.87187L5.65938 8.74375C5.50625 8.85938 5.40937 9.025 5.38125 9.2125L5.19063 10.4719C5.16563 10.6344 5.19688 10.8 5.28125 10.9406L6.03438 12.2406C6.15313 12.4438 6.3625 12.5781 6.59688 12.5969L7.92188 12.7125C7.925 12.7125 7.92812 12.7156 7.93125 12.7188L8.22188 13.4969L8.525 14.875C8.56875 15.0719 8.69062 15.2406 8.86562 15.3438L9.52188 15.7281C9.63438 15.7937 9.75937 15.8281 9.88437 15.8281C10.0687 15.8281 10.2531 15.7562 10.3906 15.6219L11.4031 14.6281C11.5344 14.5 11.6125 14.325 11.6187 14.1406L11.6844 12.4906C11.6844 12.4875 11.6844 12.4875 11.6875 12.4844L12.4469 11.3313C12.6406 11.0375 12.5938 10.6469 12.3375 10.4062L11.8719 9.96875C11.8687 9.96562 11.8687 9.9625 11.8687 9.95938L11.9375 9.5375C11.9375 9.53438 11.9375 9.53125 11.9438 9.53125C11.95 9.52812 11.95 9.53125 11.9531 9.53125L12.8469 10.1094C13.1469 10.3031 13.55 10.2469 13.7812 9.97812L14.1125 9.59688C14.2688 9.41875 14.325 9.175 14.2688 8.94688C14.2094 8.71875 14.0437 8.53125 13.8219 8.45L13.7969 8.44063C13.7937 8.44063 13.7906 8.4375 13.7906 8.4375C13.7875 8.43437 13.7875 8.42813 13.7906 8.425C13.7906 8.425 13.7937 8.42188 13.7969 8.42188L14.3281 8.14375C14.3313 8.14062 14.3344 8.14375 14.3406 8.14375L14.7688 8.4625C14.9625 8.60938 15.2156 8.64688 15.4438 8.56563C15.6719 8.48438 15.8438 8.29375 15.9031 8.05937L15.975 7.77187C15.975 7.76875 15.9781 7.76562 15.9844 7.76562L16.1906 7.725C16.2625 8.1375 16.3 8.55938 16.3 8.99375C16.2875 13.0188 13.0188 16.2875 9 16.2875Z" stroke="#FF441E" stroke-width="0.5" mask="url(#path-1-outside-1)"/>
</svg>
