<svg width="24" height="24" viewBox="0 0 24 24" xmlns="http://www.w3.org/2000/svg">
<path d="M5.32031 14.5031L4.48594 17.6203L1.43438 17.6859C0.515625 15.9937 0 14.0578 0 12C0 10.0078 0.482813 8.13279 1.34063 6.48279L4.05937 6.97966L5.25 9.67966C5.00156 10.4062 4.86563 11.1844 4.86563 12C4.86563 12.8812 5.025 13.725 5.32031 14.5031Z" />
<path d="M23.7891 9.7594C23.925 10.486 24 11.236 24 12C24 12.8578 23.9109 13.6969 23.7375 14.5078C23.1516 17.2594 21.6281 19.6594 19.5141 21.361L16.0922 21.1875L15.6094 18.1641C17.0109 17.3391 18.1078 16.0547 18.6844 14.5125H12.2625V9.7594H18.7734H23.7891Z"/>
<path d="M19.5141 21.3562C17.4562 23.0109 14.8453 24 12 24C7.42969 24 3.45469 21.4453 1.42969 17.6859L5.32031 14.5031C6.33281 17.2078 8.94375 19.1344 12 19.1344C13.3125 19.1344 14.5453 18.7781 15.6047 18.1594L19.5141 21.3562Z" />
<path d="M19.6594 2.76094L15.7734 5.94375C14.6813 5.25938 13.3875 4.86563 12 4.86563C8.87345 4.86563 6.21564 6.88125 5.25001 9.67969L1.34064 6.47812C3.33751 2.62969 7.36407 0 12 0C14.9109 0 17.5828 1.03594 19.6594 2.76094Z" />
</svg>
