<svg width="18" height="15" viewBox="0 0 18 15" xmlns="http://www.w3.org/2000/svg">
<path d="M7.13778 2.57456C6.3055 3.09129 5.7219 3.96571 5.61565 4.98072C5.27623 5.13777 4.89951 5.22808 4.50011 5.22808C3.04201 5.22808 1.8602 4.05781 1.8602 2.61415C1.8602 1.17027 3.04201 0 4.50011 0C5.94429 0.000444886 7.11576 1.14981 7.13778 2.57456ZM8.86724 7.92698C7.40913 7.92698 6.22733 6.75648 6.22733 5.31283C6.22733 3.86917 7.40936 2.6989 8.86724 2.6989C10.3251 2.6989 11.5076 3.8694 11.5076 5.31305C11.5076 6.75671 10.3251 7.92698 8.86724 7.92698ZM7.74744 8.10516H9.9875C11.8513 8.10516 13.3676 9.60687 13.3676 11.4525V14.1652L13.3606 14.2077L13.1719 14.2662C11.3933 14.8165 9.848 15 8.57611 15C6.09188 15 4.65197 14.2986 4.56323 14.2539L4.3869 14.1656H4.36803V11.4525C4.36735 9.60687 5.88364 8.10516 7.74744 8.10516ZM3.37986 5.40648H5.60262C5.62666 6.28713 6.00629 7.08014 6.60674 7.65048C4.95006 8.1383 3.73792 9.65959 3.73792 11.4565V12.2924C1.54324 12.2128 0.278547 11.5968 0.195208 11.5555L0.0188694 11.4669H0V8.75336C0 6.90797 1.51628 5.40648 3.37986 5.40648ZM13.4994 5.22852C12.983 5.22852 12.5025 5.07926 12.0955 4.82501C11.9661 3.98929 11.5137 3.25901 10.8674 2.76163C10.8647 2.71269 10.86 2.6642 10.86 2.61482C10.86 1.17094 12.042 0.000667281 13.4994 0.000667281C14.9578 0.000667281 16.1393 1.17094 16.1393 2.61482C16.1393 4.05803 14.9578 5.22852 13.4994 5.22852ZM11.1286 7.65048C11.7262 7.08303 12.1045 6.29425 12.1321 5.41893C12.2145 5.41293 12.2961 5.40648 12.3801 5.40648H14.6199C16.4837 5.40648 18 6.90797 18 8.75336V11.4665L17.993 11.5083L17.8043 11.5673C16.3775 12.0084 15.104 12.2117 13.9979 12.2757V11.4565C13.9975 9.65959 12.7858 8.13875 11.1286 7.65048Z"/>
</svg>
