<svg width="75" height="92" viewBox="0 0 75 92" fill="none" xmlns="http://www.w3.org/2000/svg">
<rect width="73.8993" height="90.2379" fill="black" fill-opacity="0" transform="translate(0.356445 0.991455)"/>
<path d="M72.8987 55.7524C72.1387 55.7524 71.5416 56.3515 71.5416 57.074V73.5316C71.5416 73.6549 71.4692 73.7607 71.3425 73.8135L38.6632 87.8571V44.5281L47.1859 40.863L71.5416 30.3964V50.8715C71.5416 51.6116 72.1568 52.1931 72.8987 52.1931C73.6587 52.1931 74.2558 51.594 74.2558 50.8715C74.2558 50.1138 74.2558 28.0705 74.2558 28.3524C74.2558 27.8238 73.9301 27.348 73.4415 27.1366L53.5734 18.7315C54.5143 10.1679 48.4706 2.69679 40.3822 1.02283C39.6404 0.864248 38.9166 1.32238 38.7718 2.04483C38.6089 2.76727 39.0794 3.4721 39.8213 3.61306C50.1896 5.76277 54.5867 18.0972 47.4392 25.9912H44.5621C53.1029 19.2073 48.2716 5.30464 36.9261 5.30464C25.6892 5.30464 20.677 19.0135 29.3263 25.9912H26.413C19.3017 18.1501 23.6083 5.76277 34.0309 3.63068C34.7728 3.4721 35.2433 2.78489 35.0805 2.06245C34.9176 1.34 34.2119 0.881868 33.47 1.04045C25.1464 2.74965 19.1932 10.4851 20.3151 19.0487L1.17071 27.1542C0.700247 27.3656 0.356445 27.8238 0.356445 28.3524V28.37V73.5316C0.356445 74.7122 1.06214 75.7694 2.16593 76.2452L36.7633 91.117C37.1071 91.2579 37.5052 91.2755 37.8671 91.117L72.4463 76.2452C73.5501 75.7694 74.2558 74.7122 74.2558 73.5316V57.074C74.2558 56.3339 73.6587 55.7524 72.8987 55.7524ZM36.9261 7.96535C40.9975 7.96535 44.5622 10.5027 45.7745 14.2911C48.2535 22.0618 39.8032 28.5286 32.71 24.9869C24.0607 20.6698 27.2816 7.96535 36.9261 7.96535ZM3.07067 73.5316V30.3964C3.99351 30.8016 35.189 44.1933 35.949 44.5281V87.8571L3.25162 73.8135C3.14305 73.7783 3.07067 73.6549 3.07067 73.5316ZM37.3061 42.2198L5.09729 28.3876L20.8941 21.6918C21.3646 23.2072 22.0703 24.6521 22.9931 26.0088H22.215C21.455 26.0088 20.8579 26.6079 20.8579 27.3304C20.8579 28.0705 21.4731 28.6519 22.215 28.6519C23.2283 28.6519 49.7735 28.6519 51.6734 28.6519C52.4334 28.6519 53.0305 28.0528 53.0305 27.3304C53.0305 26.5903 52.4153 26.0088 51.6734 26.0088H50.8773C51.8544 24.5816 52.5782 23.031 53.0486 21.4099L69.5149 28.3876L37.3061 42.2198Z" fill="white"/>
<path d="M33.8145 18.979C33.2717 18.979 32.8555 19.6838 32.8555 20.1596C32.8555 21.0935 34.4297 22.1859 36.5106 22.2388V22.7146C36.5106 22.926 36.764 23.1375 37.0897 23.1375C37.3792 23.1375 37.6687 22.9436 37.6687 22.7146V22.1859C39.6048 21.8864 40.9258 20.6882 40.9258 18.6266C40.9258 16.3359 39.2068 15.5782 37.6687 15.032V12.0893C38.8268 12.1774 39.2249 12.7061 39.7134 12.7061C40.3467 12.7061 40.6363 11.9308 40.6363 11.5431C40.6363 10.574 38.8087 10.2568 37.6868 10.2216V9.78105C37.6868 9.5696 37.3973 9.35815 37.1078 9.35815C36.7821 9.35815 36.5287 9.55198 36.5287 9.78105V10.2568C34.8097 10.4683 33.1812 11.4021 33.1812 13.5342C33.1812 15.6839 34.9545 16.3359 36.5287 16.9174V20.2653C34.9907 20.0715 34.4659 18.979 33.8145 18.979ZM37.542 17.305C38.2839 17.6222 38.8449 18.0275 38.8449 18.8557C38.8449 19.6486 38.302 20.0891 37.542 20.2301V17.305ZM35.2621 13.3052C35.2621 12.6708 35.7868 12.2656 36.6373 12.1246V14.662C35.8411 14.3624 35.2621 14.0452 35.2621 13.3052Z" fill="white"/>
<path d="M31.93 48.5627L8.15341 38.3428C7.24866 37.9551 6.23535 38.6071 6.23535 39.5586C6.23535 40.422 6.23535 69.0026 6.23535 69.7251C6.23535 70.6766 6.81439 71.5576 7.71913 71.9453L30.8262 81.8656C31.0072 81.9361 31.1881 81.9714 31.3691 81.9714C31.6224 81.9714 31.8938 81.9009 32.111 81.7599C32.491 81.5132 32.7262 81.0903 32.7262 80.6498C32.7262 79.8745 32.7262 50.6419 32.7262 49.7785C32.7443 49.2499 32.4367 48.7742 31.93 48.5627ZM30.0301 78.6235L8.96767 69.5665V49.8138L30.012 58.8531V78.6235H30.0301ZM30.0301 55.9634L8.96767 46.924V41.6026L30.012 50.6419V55.9634H30.0301Z" fill="white"/>
<path d="M12.3186 59.4523L25.4736 65.1085C26.1612 65.4081 26.9755 65.0909 27.265 64.439C27.5726 63.7694 27.265 62.9941 26.5774 62.6945L13.4224 57.0383C12.7348 56.7388 11.9387 57.0383 11.631 57.7079C11.3234 58.3599 11.631 59.1528 12.3186 59.4523Z" fill="white"/>
<path d="M12.3186 65.4084L25.4736 71.0646C26.1612 71.3642 26.9574 71.0646 27.265 70.395C27.5726 69.7254 27.265 68.9501 26.5774 68.6506L13.4224 62.9944C12.7348 62.6948 11.9387 62.9944 11.631 63.664C11.3234 64.3335 11.631 65.1265 12.3186 65.4084Z" fill="white"/>
</svg>
