<svg width="87" height="82" viewBox="0 0 87 82" fill="none" xmlns="http://www.w3.org/2000/svg">
<rect width="86.2159" height="81.0695" fill="black" fill-opacity="0" transform="translate(0.0195312 0.220947)"/>
<path d="M60.7246 72.6369C59.9458 72.446 59.167 72.9126 58.9776 73.6974L57.5462 79.4877C57.3568 80.2724 57.8199 81.0572 58.5987 81.2481C58.725 81.2693 58.8302 81.2905 58.9565 81.2905C59.609 81.2905 60.1774 80.8451 60.3457 80.1876L61.7771 74.3973C61.9665 73.6338 61.4824 72.849 60.7246 72.6369Z" fill="white"/>
<path d="M43.1289 43.6435C43.3184 43.6435 43.5078 43.601 43.6762 43.5374L59.4838 36.9411C60.2205 36.6442 60.5573 35.7958 60.2626 35.0535C59.968 34.3111 59.126 33.9718 58.3893 34.2687L43.1289 40.6317L2.90463 23.8547V23.3668C2.90463 22.5609 2.25212 21.9246 1.47331 21.9246C0.673457 21.9246 0.0419922 22.5821 0.0419922 23.3668V24.8091C0.0419922 25.403 0.399822 25.9332 0.926042 26.1453L42.6027 43.5162C42.75 43.601 42.9395 43.6435 43.1289 43.6435Z" fill="white"/>
<path d="M60.2182 58.4687C59.8604 57.7475 59.0184 57.4506 58.3028 57.8111C55.5664 59.1686 51.0199 60.7593 44.579 60.9714V47.991C44.579 47.185 43.9264 46.5487 43.1476 46.5487C42.3478 46.5487 41.7163 47.2062 41.7163 47.991V60.9714C23.8669 60.3988 18.1206 49.4969 17.2787 47.694V37.8527C17.2787 37.0467 16.6261 36.4104 15.8473 36.4104C15.0475 36.4104 14.416 37.0679 14.416 37.8527V47.991C14.416 48.1819 14.4581 48.3516 14.5213 48.5212C14.7738 49.1575 20.878 63.9196 43.1476 63.9196C50.9357 63.9196 56.3873 62.0107 59.5868 60.42C60.2814 60.0594 60.576 59.1898 60.2182 58.4687Z" fill="white"/>
<path d="M64.6813 74.0579C63.8815 74.0579 63.25 74.7154 63.25 75.5001V79.8482C63.25 80.6541 63.9025 81.2904 64.6813 81.2904C65.4812 81.2904 66.1126 80.6329 66.1126 79.8482V75.5001C66.1126 74.6942 65.4812 74.0579 64.6813 74.0579Z" fill="white"/>
<path d="M84.8041 21.9239C84.0043 21.9239 83.3728 22.5814 83.3728 23.3662V23.854L66.1128 31.0018V28.3929L85.3514 20.3756C85.8987 20.1423 86.2354 19.6333 86.2354 19.0394C86.2354 18.4455 85.8776 17.9153 85.3514 17.7032L43.6748 0.332299C43.3169 0.18383 42.938 0.18383 42.5802 0.332299L0.903581 17.682C0.377361 17.9153 0.0195312 18.4455 0.0195312 19.0182C0.0195312 19.6121 0.377361 20.1423 0.903581 20.3544L42.5802 37.7253C42.7486 37.7889 42.938 37.8313 43.1275 37.8313C43.3169 37.8313 43.5064 37.7889 43.6748 37.7253L58.7457 31.4472C59.4824 31.1502 59.8192 30.3018 59.5245 29.5595C59.2298 28.8171 58.3879 28.4778 57.6512 28.7747L43.1275 34.8195L5.21859 19.0182L43.1275 3.21684L81.0364 19.0182L64.5341 25.8902L48.7265 19.9514C48.8107 19.6545 48.8528 19.3363 48.8528 19.0182C48.8528 16.5791 46.3269 14.6702 43.1064 14.6702C39.886 14.6702 37.3601 16.5791 37.3601 19.0182C37.3601 21.4573 39.886 23.3662 43.1064 23.3662C44.5378 23.3662 45.8217 22.9632 46.8321 22.3269L63.2291 28.499V64.174C61.5662 64.7679 60.3454 66.3586 60.3454 68.2463C60.3454 70.643 62.2819 72.5943 64.6604 72.5943C67.0389 72.5943 68.9754 70.643 68.9754 68.2463C68.9754 66.3586 67.7756 64.7679 66.0917 64.174V55.9658C70.2173 52.8267 71.6907 48.6484 71.7539 48.4575C71.796 48.309 71.8381 48.1393 71.8381 47.9909V37.8525C71.8381 37.0466 71.1855 36.4103 70.4067 36.4103C69.6069 36.4103 68.9754 37.0678 68.9754 37.8525V47.7151C68.7228 48.3302 67.8598 50.2179 66.0917 52.0844V34.1408L85.3093 26.1659C85.8566 25.9326 86.1933 25.4024 86.1933 24.8297V23.3874C86.2354 22.5814 85.5829 21.9239 84.8041 21.9239ZM43.1275 20.4817C41.3804 20.4817 40.2438 19.6333 40.2438 19.0394C40.2438 18.4455 41.3594 17.5971 43.1275 17.5971C44.8956 17.5971 46.0112 18.4455 46.0112 19.0394C46.0112 19.6121 44.8745 20.4817 43.1275 20.4817ZM64.6815 69.7097C63.8816 69.7097 63.2501 69.0522 63.2501 68.2675C63.2501 67.4615 63.9027 66.8252 64.6815 66.8252C65.4813 66.8252 66.1128 67.4827 66.1128 68.2675C66.1128 69.0522 65.4813 69.7097 64.6815 69.7097Z" fill="white"/>
<path d="M70.3858 73.6974C70.1963 72.9126 69.4175 72.446 68.6387 72.6369C67.8599 72.8278 67.3968 73.6126 67.5863 74.3973L69.0176 80.1876C69.186 80.8451 69.7754 81.2905 70.4068 81.2905C70.5121 81.2905 70.6384 81.2693 70.7647 81.2481C71.5435 81.0572 72.0065 80.2724 71.8171 79.4877L70.3858 73.6974Z" fill="white"/>
</svg>
