<svg width="84" height="76" viewBox="0 0 84 76" fill="none" xmlns="http://www.w3.org/2000/svg">
<rect width="83.1368" height="75.0219" fill="black" fill-opacity="0" transform="translate(0.799805 0.187744)"/>
<path d="M60.3184 50.3779C60.5634 50.5593 60.8411 50.6417 61.1351 50.6417C61.3638 50.6417 61.5761 50.5922 61.7884 50.4768L66.3291 48.0695L70.8698 50.4768C71.3434 50.7242 71.8988 50.6912 72.3398 50.3779C72.7645 50.0646 72.9768 49.537 72.8951 49.0094L72.0295 43.9145L75.7045 40.3035C76.0801 39.9243 76.2271 39.3802 76.0475 38.8691C75.8841 38.3579 75.4595 37.9952 74.9205 37.9127L69.8408 37.1708L67.5704 32.521C67.3418 32.0429 66.8518 31.7461 66.3291 31.7461C65.7901 31.7461 65.3164 32.0429 65.0878 32.521L62.8174 37.1708L57.7378 37.9127C57.2151 37.9952 56.7741 38.3579 56.6108 38.8691C56.4474 39.3802 56.5781 39.9243 56.9701 40.3035L60.6451 43.9145L59.7794 49.0094C59.6814 49.537 59.8938 50.0646 60.3184 50.3779ZM63.9281 39.8254C64.3854 39.7594 64.7774 39.4791 64.9734 39.0504L66.3128 36.2969L67.6684 39.0504C67.8644 39.4626 68.2564 39.7429 68.7138 39.8089L71.7354 40.2541L69.5631 42.3975C69.2364 42.7273 69.0894 43.189 69.1711 43.6342L69.6938 46.668L66.9988 45.2335C66.5904 45.0192 66.1168 45.0192 65.7084 45.2335L63.0134 46.668L63.5198 43.6342C63.6014 43.1725 63.4544 42.7108 63.1278 42.3975L60.9391 40.2541L63.9281 39.8254Z" fill="white"/>
<path d="M50.9576 37.8966L45.8779 37.1546L43.6076 32.5049C43.3789 32.0268 42.8889 31.73 42.3662 31.73C41.8272 31.73 41.3536 32.0268 41.1249 32.5049L38.8545 37.1546L33.7749 37.8966C33.2522 37.9791 32.8112 38.3418 32.6479 38.8529C32.4845 39.3641 32.6152 39.9082 33.0072 40.2874L36.6822 43.8984L35.8165 48.9933C35.7185 49.5209 35.9309 50.0485 36.3719 50.3618C36.6169 50.5432 36.8945 50.6256 37.1885 50.6256C37.4172 50.6256 37.6295 50.5761 37.8419 50.4607L42.3826 48.0534L46.9232 50.4607C47.3969 50.708 47.9522 50.6751 48.3932 50.3618C48.8179 50.0485 49.0302 49.5209 48.9486 48.9933L48.0829 43.8984L51.7579 40.2874C52.1336 39.9082 52.2806 39.3641 52.1009 38.8529C51.9212 38.3418 51.4802 37.9791 50.9576 37.8966ZM45.6002 42.4144C45.2736 42.7442 45.1266 43.2059 45.2082 43.651L45.7146 46.6849L43.0196 45.2504C42.6112 45.0361 42.1376 45.0361 41.7292 45.2504L39.0342 46.6849L39.5405 43.651C39.6222 43.1894 39.4752 42.7277 39.1486 42.4144L36.9599 40.2709L39.9815 39.8257C40.4389 39.7598 40.8309 39.4795 41.0269 39.0508L42.3662 36.2972L43.7219 39.0508C43.9179 39.463 44.3099 39.7433 44.7672 39.8093L47.7889 40.2544L45.6002 42.4144Z" fill="white"/>
<path d="M27.0152 37.8966L21.9355 37.1546L19.6652 32.5049C19.4365 32.0268 18.9465 31.73 18.4238 31.73C17.8848 31.73 17.4112 32.0268 17.1825 32.5049L14.9122 37.1546L9.83249 37.8966C9.30983 37.9791 8.86882 38.3418 8.70549 38.8529C8.54216 39.3641 8.67282 39.9082 9.06482 40.2874L12.7398 43.8984L11.8742 48.9933C11.7925 49.5209 11.9885 50.0485 12.4295 50.3618C12.6745 50.5432 12.9522 50.6256 13.2462 50.6256C13.4748 50.6256 13.6872 50.5761 13.8995 50.4607L18.4402 48.0534L22.9808 50.4607C23.4545 50.708 24.0098 50.6751 24.4508 50.3618C24.8755 50.0485 25.0878 49.5209 25.0062 48.9933L24.1405 43.8984L27.8155 40.2874C28.1912 39.9082 28.3382 39.3641 28.1585 38.8529C27.9625 38.3418 27.5379 37.9791 27.0152 37.8966ZM21.6415 42.4144C21.3148 42.7442 21.1678 43.2059 21.2495 43.651L21.7722 46.6849L19.0772 45.2504C18.6688 45.0361 18.1952 45.0361 17.7868 45.2504L15.0755 46.6849L15.5818 43.651C15.6635 43.1894 15.5165 42.7277 15.1898 42.4144L13.0012 40.2709L16.0228 39.8257C16.4802 39.7598 16.8722 39.4795 17.0682 39.0508L18.4075 36.2972L19.7632 39.0508C19.9592 39.463 20.3512 39.7433 20.8085 39.8093L23.8302 40.2544L21.6415 42.4144Z" fill="white"/>
<path d="M62.9312 17.7152L57.8515 16.9732L55.5812 12.3235C55.3525 11.8454 54.8625 11.5486 54.3399 11.5486C53.8009 11.5486 53.3272 11.8454 53.0985 12.3235L50.8282 16.9732L45.7485 17.7152C45.2258 17.7977 44.7848 18.1604 44.6215 18.6715C44.4582 19.1827 44.5888 19.7268 44.9808 20.106L48.6558 23.717L47.7902 28.8119C47.7085 29.3395 47.9045 29.8671 48.3455 30.1804C48.5905 30.3618 48.8682 30.4442 49.1622 30.4442C49.3908 30.4442 49.6032 30.3947 49.8155 30.2793L54.3562 27.872L58.8969 30.2793C59.3705 30.5266 59.9259 30.4937 60.3669 30.1804C60.7915 29.8671 61.0039 29.3395 60.9222 28.8119L60.0565 23.717L63.7315 20.106C64.1072 19.7268 64.2542 19.1827 64.0745 18.6715C63.8949 18.1604 63.4539 17.7977 62.9312 17.7152ZM57.5739 22.233C57.2472 22.5628 57.1002 23.0245 57.1819 23.4696L57.7045 26.5035L55.0095 25.069C54.6012 24.8547 54.1275 24.8547 53.7192 25.069L51.0242 26.5035L51.5305 23.4696C51.6122 23.008 51.4652 22.5463 51.1385 22.233L48.9498 20.0895L51.9715 19.6443C52.4289 19.5784 52.8209 19.2981 53.0169 18.8694L54.3562 16.1158L55.7119 18.8694C55.9079 19.2816 56.2999 19.5619 56.7572 19.6279L59.7789 20.073L57.5739 22.233Z" fill="white"/>
<path d="M36.3906 30.197C36.8152 29.8837 37.0276 29.3561 36.9459 28.8285L36.0802 23.7336L39.7552 20.1226C40.1309 19.7434 40.2779 19.1993 40.0982 18.6881C39.9349 18.177 39.5102 17.8143 38.9712 17.7318L33.8916 16.9898L31.6212 12.3401C31.3926 11.862 30.9026 11.5652 30.3799 11.5652C29.8409 11.5652 29.3672 11.862 29.1386 12.3401L26.8682 16.9898L21.7885 17.7318C21.2659 17.8143 20.8249 18.177 20.6615 18.6881C20.4982 19.1993 20.6289 19.7434 21.0209 20.1226L24.6959 23.7336L23.8302 28.8285C23.7322 29.3561 23.9445 29.8837 24.3856 30.197C24.6306 30.3784 24.9082 30.4608 25.2022 30.4608C25.4309 30.4608 25.6432 30.4113 25.8556 30.2959L30.3962 27.8886L34.9369 30.2959C35.4106 30.5597 35.9659 30.5103 36.3906 30.197ZM31.0496 25.0691C30.6412 24.8548 30.1676 24.8548 29.7592 25.0691L27.0642 26.5036L27.5706 23.4698C27.6522 23.0081 27.5052 22.5464 27.1786 22.2331L24.9899 20.0896L28.0116 19.6445C28.4689 19.5785 28.8609 19.2982 29.0569 18.8695L30.3962 16.116L31.7519 18.8695C31.9479 19.2817 32.3399 19.562 32.7972 19.628L35.8189 20.0732L33.6466 22.2166C33.3199 22.5464 33.1729 23.0081 33.2546 23.4533L33.7772 26.4871L31.0496 25.0691Z" fill="white"/>
<path d="M72.7482 0.187744H11.9882C5.81414 0.187744 0.799805 5.24966 0.799805 11.4822V50.7245C0.799805 56.957 5.81414 62.019 11.9882 62.019H22.6865V73.8081C22.6865 74.3852 23.0295 74.8799 23.5358 75.1107C23.6992 75.1766 23.8788 75.2096 24.0585 75.2096C24.4342 75.2096 24.7772 75.0612 25.0385 74.7974L37.7132 62.019H47.2029C47.9705 62.019 48.5912 61.3924 48.5912 60.6175C48.5912 59.8425 47.9705 59.2159 47.2029 59.2159H37.1252C36.7658 59.2159 36.4065 59.3643 36.1452 59.6282L25.4632 70.428V60.6175C25.4632 59.8425 24.8425 59.2159 24.0748 59.2159H11.9882C7.34948 59.2159 3.57647 55.4071 3.57647 50.7245V11.4822C3.57647 6.79956 7.34948 2.99076 11.9882 2.99076H72.7482C72.8626 2.99076 72.9769 2.99076 73.0912 3.00725L73.3199 3.02374V13.0486C73.3199 13.8236 73.9406 14.4501 74.7082 14.4501C75.4759 14.4501 76.0966 13.8236 76.0966 13.0486V3.68327L76.4559 3.86464C79.3632 5.29912 81.1599 8.21756 81.1599 11.4822V50.7245C81.1599 55.4071 77.3869 59.2159 72.7482 59.2159H61.1515C60.3839 59.2159 59.7632 59.8425 59.7632 60.6175C59.7632 61.3924 60.3839 62.019 61.1515 62.019H72.7482C78.9222 62.019 83.9366 56.957 83.9366 50.7245V11.4822C83.9366 5.24966 78.9222 0.187744 72.7482 0.187744Z" fill="white"/>
<path d="M54.3415 59.2156C53.9821 59.2156 53.6228 59.364 53.3615 59.6278C53.1001 59.8916 52.9531 60.2543 52.9531 60.6171C52.9531 60.9798 53.1001 61.3426 53.3615 61.6064C53.6228 61.8702 53.9821 62.0186 54.3415 62.0186C54.7008 62.0186 55.0601 61.8702 55.3215 61.6064C55.5828 61.3426 55.7298 60.9798 55.7298 60.6171C55.7298 60.2543 55.5828 59.8916 55.3215 59.6278C55.0601 59.364 54.7008 59.2156 54.3415 59.2156Z" fill="white"/>
<path d="M75.6886 18.2423C75.4273 17.9785 75.068 17.8301 74.7086 17.8301C74.3493 17.8301 73.99 17.9785 73.7286 18.2423C73.4673 18.5061 73.3203 18.8688 73.3203 19.2316C73.3203 19.5943 73.4673 19.9571 73.7286 20.2209C73.99 20.4847 74.3493 20.6331 74.7086 20.6331C75.068 20.6331 75.4273 20.4847 75.6886 20.2209C75.95 19.9571 76.097 19.5943 76.097 19.2316C76.097 18.8688 75.95 18.5061 75.6886 18.2423Z" fill="white"/>
</svg>
