<svg width="50" height="82" viewBox="0 0 50 82" fill="none" xmlns="http://www.w3.org/2000/svg">
<rect width="49.2662" height="81.2141" fill="black" fill-opacity="0" transform="translate(0.277344 0.0351562)"/>
<path d="M48.2984 12.2173H44.1852V9.4763H41.4089V16.278H38.6325V9.4763C38.6325 4.2989 34.4165 0.0351562 29.0694 0.0351562H20.8431C15.496 0.0351562 11.28 4.2989 11.28 9.4763V16.278H8.50364V9.4763H5.72727V12.2173H1.61412C0.894316 12.2173 0.277344 12.8264 0.277344 13.537V21.6584C0.277344 22.369 0.894316 22.9782 1.61412 22.9782H5.72727V27.0389C5.72727 34.5512 11.897 40.5407 19.4035 40.5407V44.4999C13.3366 47.4439 10.7659 54.7532 13.8507 60.7427C14.7762 62.6716 16.2158 64.2958 18.0667 65.5141V67.5444H15.2903V70.2854H18.0667V73.1279H8.50364C7.78384 73.1279 7.16687 73.737 7.16687 74.4476V79.828C7.16687 80.6402 7.78384 81.2493 8.50364 81.2493H41.4089C42.1287 81.2493 42.7456 80.6402 42.7456 79.9296V74.5491C42.7456 73.8385 42.1287 73.2294 41.4089 73.2294H31.8458V70.4884H34.6222V67.7474H31.8458V65.7171C37.5014 61.9609 39.0438 54.4486 35.2391 48.8652C34.0052 47.1394 32.3599 45.6166 30.4062 44.7029V40.6422C38.0155 40.6422 44.0824 34.5512 44.0824 27.1404V23.0797H48.1955C48.9153 23.0797 49.5323 22.4706 49.5323 21.7599V13.6385C49.6352 12.8264 49.0182 12.2173 48.2984 12.2173ZM5.72727 20.3387H3.05372V14.9583H5.8301V20.3387H5.72727ZM13.9536 24.3994H20.8431V21.6584H13.9536V18.9174H20.8431V16.278H13.9536V13.537H20.8431V10.796H13.9536V9.4763C13.9536 6.83684 15.5988 4.40042 18.0667 3.28372V8.15657H20.8431V2.77613H23.6195V8.15657H26.3959V2.77613H29.0694V8.15657H31.8458V3.28372C34.3137 4.40042 35.9589 6.83684 35.9589 9.4763V10.796H29.0694V13.537H35.9589V16.278H29.0694V19.019H35.9589V21.7599H29.0694V24.3994H35.9589V25.7191C35.9589 28.3586 34.3137 30.795 31.8458 31.9117V27.0389H29.0694V32.5208H26.293V27.1404H23.5166V32.5208H20.8431V27.1404H18.0667V32.0132C15.5988 30.8965 13.9536 28.4601 13.9536 25.8206V24.3994ZM40.0721 75.8689V78.6098H9.84042V75.8689H40.0721ZM20.8431 73.1279V70.3869H29.0694V73.1279H20.8431ZM34.5193 55.5653C34.5193 58.9154 32.6684 62.0625 29.6864 63.7883C29.3779 63.9913 29.0694 64.3974 29.0694 64.905V67.7474H26.293V60.2351L29.9949 56.5805L28.0411 54.6517L24.9562 57.6972L21.7686 54.5501L19.8148 56.479L23.5166 60.1336V67.6459H20.8431V64.8034C20.8431 64.2958 20.5346 63.8898 20.1233 63.5852C15.496 60.9458 13.9536 55.1593 16.6271 50.6925C19.3007 46.2257 25.1619 44.6014 29.6864 47.2409C32.7712 48.9667 34.5193 52.1137 34.5193 55.5653ZM22.1799 43.6878V40.6422H27.6298V43.6878C25.8817 43.2817 24.0308 43.2817 22.1799 43.6878ZM41.4089 27.1404C41.4089 33.1299 36.4731 38.0028 30.4062 38.0028H19.5063C13.4394 37.9013 8.50364 33.1299 8.50364 27.1404V19.019H11.28V25.8206C11.28 31.0996 15.5988 35.2618 20.8431 35.2618H29.0694C34.4165 35.2618 38.6325 30.998 38.6325 25.8206V19.019H41.4089V27.1404ZM46.8588 20.3387H44.0824V14.9583H46.8588V20.3387Z" fill="white"/>
</svg>
