<svg width="81" height="81" viewBox="0 0 81 81" fill="none" xmlns="http://www.w3.org/2000/svg">
<rect width="80.0576" height="79.9836" fill="black" fill-opacity="0" transform="translate(0.297852 0.0351562)"/>
<path d="M77.5378 54.8288C77.4596 54.3135 77.3502 53.8137 77.2252 53.2984C77.2095 53.2359 77.1939 53.1734 77.1783 53.111C76.8656 52.0178 76.4123 50.9871 75.8183 50.0188C79.1322 47.1453 80.7892 42.8038 80.2577 38.4624C80.2421 38.275 80.1952 38.1032 80.1796 37.9158C80.1327 37.6034 80.0701 37.2911 79.992 36.9788C79.9451 36.7601 79.8826 36.5259 79.82 36.3072C79.7575 36.073 79.6637 35.8231 79.5855 35.5889C79.4918 35.339 79.4136 35.0735 79.3042 34.8393C78.9915 34.1209 78.6164 33.4181 78.1943 32.7622C78.1474 32.6841 78.0849 32.5904 78.038 32.5123C77.8348 32.2156 77.6316 31.9345 77.3971 31.669C77.319 31.5753 77.2408 31.4816 77.1626 31.4035C76.9282 31.1381 76.7093 30.8726 76.4592 30.6227C76.4123 30.5759 76.3498 30.529 76.3029 30.4822C75.8809 30.0761 75.4119 29.6857 74.9429 29.3265C74.7397 29.1703 74.5209 29.0142 74.3177 28.8736C74.2395 28.8268 74.1614 28.7487 74.0832 28.7018C74.7085 27.2182 75.0367 25.6253 75.0367 24.0168C75.0367 23.6107 75.0211 23.2203 74.9742 22.8299C74.9586 22.705 74.943 22.58 74.9117 22.4395C74.8804 22.174 74.8492 21.9241 74.7866 21.6743C74.7554 21.5181 74.7085 21.3775 74.6772 21.2214C74.6303 21.0027 74.5678 20.7685 74.5053 20.5655C74.4584 20.4093 74.3958 20.2531 74.349 20.0969C74.2708 19.8939 74.2083 19.6909 74.1301 19.4879C74.0676 19.3317 73.9894 19.1756 73.9269 19.0194C73.8487 18.832 73.755 18.6446 73.6612 18.4572C73.583 18.301 73.4892 18.1605 73.411 18.0043C73.3173 17.8325 73.2078 17.6607 73.0984 17.4889C73.0046 17.3328 72.8952 17.1922 72.8014 17.0517C72.692 16.8955 72.5669 16.7393 72.4575 16.5832C72.3481 16.4426 72.223 16.3021 72.1136 16.1615C71.9886 16.021 71.8635 15.8804 71.7385 15.7399C71.6134 15.5993 71.4884 15.4744 71.3477 15.3494C71.207 15.2245 71.0819 15.0996 70.9412 14.9746C70.8006 14.8497 70.6599 14.7248 70.5036 14.6154C70.3629 14.5061 70.2222 14.3968 70.0659 14.2875C69.9096 14.1782 69.7533 14.0532 69.5969 13.9595C69.4562 13.8658 69.2999 13.7721 69.1436 13.694C68.9717 13.6003 68.7997 13.491 68.6278 13.3973C68.4715 13.3192 68.3151 13.2412 68.1588 13.1787C67.9712 13.085 67.7993 13.0069 67.6117 12.9288C67.4554 12.8664 67.2834 12.8039 67.1271 12.757C66.9395 12.6946 66.752 12.6165 66.5488 12.554C66.3612 12.4915 66.158 12.4603 65.9704 12.3978C65.6578 12.3198 65.3451 12.2573 65.0325 12.1948C64.8136 12.1636 64.5948 12.1167 64.3603 12.0855C64.0946 6.32289 59.9678 1.46606 54.3092 0.294792C48.6349 -0.860854 42.8981 1.91894 40.3345 7.08812C37.7709 1.91894 32.0341 -0.860854 26.3911 0.310409C20.748 1.48167 16.6056 6.33851 16.3399 12.1011C16.0273 12.1324 15.7303 12.1948 15.4333 12.2417C15.3707 12.2573 15.3082 12.2573 15.2301 12.2729C14.8549 12.351 14.4797 12.4447 14.1202 12.554C13.9952 12.5852 13.8857 12.6477 13.7607 12.679C13.5262 12.757 13.2917 12.8351 13.0573 12.9444C12.9166 13.0069 12.7759 13.0694 12.6352 13.1318C12.432 13.2255 12.2288 13.3192 12.0256 13.4286C11.8849 13.5066 11.7442 13.5847 11.6035 13.6784C11.4159 13.7877 11.244 13.8971 11.0564 14.0064C10.9157 14.1001 10.7907 14.1938 10.65 14.2875C10.478 14.4124 10.3061 14.5374 10.1498 14.6623C10.0247 14.7716 9.89967 14.8809 9.77462 14.9902C9.6183 15.1308 9.46198 15.2557 9.3213 15.4119C9.19625 15.5212 9.08682 15.6461 8.96177 15.7711C8.82109 15.9116 8.6804 16.0678 8.55535 16.224C8.44593 16.3489 8.3365 16.4738 8.22708 16.6144C8.10203 16.7706 7.97698 16.9423 7.85192 17.1141C7.75813 17.2547 7.66434 17.3952 7.57056 17.5358C7.46113 17.7076 7.35171 17.895 7.24229 18.0668C7.16413 18.2073 7.07034 18.3479 6.99218 18.504C6.89839 18.6914 6.8046 18.8788 6.71081 19.0819C6.64829 19.238 6.57013 19.3786 6.5076 19.5347C6.42944 19.7378 6.35129 19.9408 6.28876 20.1438C6.24187 20.3 6.17934 20.4405 6.13244 20.5967C6.06992 20.8153 6.00739 21.034 5.96049 21.2682C5.92923 21.4244 5.88234 21.5649 5.85107 21.7055C5.80418 21.9554 5.77292 22.2208 5.72602 22.4707C5.71039 22.5956 5.67913 22.7206 5.67913 22.8455C5.64786 23.2359 5.6166 23.6264 5.6166 24.0324C5.6166 25.6409 5.92923 27.2338 6.57013 28.7174C6.49197 28.7643 6.41381 28.8424 6.32002 28.8892C6.11681 29.0298 5.9136 29.1703 5.71039 29.3265C5.22581 29.6857 4.75686 30.0761 4.31917 30.4978C4.27228 30.5446 4.22538 30.5759 4.19412 30.6227C3.94401 30.8726 3.70954 31.1381 3.47506 31.4035C3.39691 31.4972 3.31875 31.5753 3.25622 31.669C3.03738 31.9501 2.81853 32.2312 2.61532 32.5123C2.5528 32.5904 2.5059 32.6841 2.45901 32.7622C1.88064 33.6524 1.41169 34.605 1.06779 35.6045C0.989632 35.8387 0.895842 36.073 0.833315 36.3229C0.770789 36.5415 0.708262 36.7601 0.661367 36.9944C0.583209 37.3067 0.536314 37.619 0.473788 37.9314C0.442524 38.1188 0.411261 38.2906 0.395629 38.478C-0.135847 42.8351 1.52111 47.1609 4.83502 50.0344C4.24101 51.0027 3.7877 52.0334 3.47506 53.1266C3.45943 53.189 3.4438 53.2515 3.42817 53.314C3.28748 53.8137 3.17806 54.3291 3.11554 54.8444C3.0999 54.9225 3.0999 55.0162 3.08427 55.0943C3.02175 55.6253 2.97485 56.1562 2.97485 56.7028C2.94359 62.606 7.02345 67.7283 12.7759 69.0401C12.8072 69.1807 12.8697 69.3369 12.9009 69.4774C12.9478 69.618 12.9791 69.7585 13.026 69.8991C13.1354 70.227 13.2448 70.5394 13.3699 70.8517C13.4168 70.9454 13.4481 71.0547 13.4949 71.1484C14.0264 72.3978 14.7455 73.569 15.6052 74.6154C15.6521 74.6778 15.7146 74.7403 15.7772 74.8028C16.0116 75.0682 16.2461 75.3337 16.4962 75.5992C16.5744 75.6773 16.6682 75.771 16.7463 75.8491C16.9808 76.0677 17.2153 76.2864 17.4654 76.505C17.5592 76.5987 17.6686 76.6768 17.7624 76.7549C18.0125 76.9579 18.2782 77.1453 18.5283 77.3327C18.6378 77.4108 18.7316 77.4889 18.841 77.5513C19.2005 77.7856 19.5757 78.0198 19.9508 78.2228C20.029 78.2697 20.1071 78.3009 20.1853 78.3322C20.4979 78.4883 20.8106 78.6445 21.1388 78.7851C21.3108 78.8631 21.4671 78.91 21.639 78.9881C21.8891 79.0818 22.1236 79.1755 22.3737 79.2536C22.5613 79.316 22.7489 79.3629 22.9208 79.4253C23.1709 79.5034 23.421 79.5659 23.6868 79.6284C23.8744 79.6752 24.0463 79.7064 24.2339 79.7533C24.5153 79.8001 24.8123 79.847 25.1093 79.8938C25.2656 79.9095 25.4219 79.9407 25.5782 79.9563C26.0315 80.0032 26.5005 80.0188 26.9538 80.0188C32.7062 80.0032 37.9116 76.6612 40.2876 71.4295C42.6636 76.6455 47.8846 80.0032 53.6214 80.0188C54.0903 80.0188 54.5437 79.9875 54.997 79.9563C55.1533 79.9407 55.3096 79.9095 55.4659 79.8938C55.7629 79.8626 56.0443 79.8158 56.3413 79.7533C56.5289 79.7221 56.7164 79.6752 56.8884 79.6284C57.1385 79.5659 57.4042 79.5034 57.6544 79.4253C57.8419 79.3785 58.0295 79.316 58.2015 79.2536C58.4516 79.1755 58.7017 79.0818 58.9361 78.9881C59.1081 78.9256 59.28 78.8631 59.4364 78.7851C59.7646 78.6445 60.0773 78.4883 60.3899 78.3322C60.468 78.2853 60.5462 78.2541 60.6244 78.2228C60.9995 78.0198 61.3747 77.7856 61.7342 77.5513C61.8436 77.4732 61.9374 77.4108 62.0468 77.3327C62.3126 77.1453 62.5627 76.9579 62.8128 76.7549C62.9222 76.6768 63.016 76.5831 63.1098 76.505C63.3599 76.302 63.5944 76.0833 63.8288 75.8491C63.907 75.771 64.0008 75.6773 64.079 75.5992C64.3291 75.3493 64.5635 75.0839 64.798 74.8028C64.8449 74.7403 64.9074 74.6778 64.97 74.6154C65.8297 73.569 66.5488 72.3978 67.0802 71.1484C67.1271 71.0547 67.1584 70.9454 67.2053 70.8517C67.3303 70.5394 67.4554 70.227 67.5492 69.8991C67.5961 69.7585 67.643 69.618 67.6742 69.4774C67.7211 69.3369 67.768 69.1963 67.7993 69.0401C73.5517 67.7283 77.6316 62.606 77.6003 56.7028C77.6003 56.1719 77.5534 55.6253 77.4909 55.0943C77.5691 55.0006 77.5534 54.9069 77.5378 54.8288ZM39.0058 13.3661H36.0983C35.4418 11.5233 33.566 10.4301 31.6433 10.7581C29.7206 11.086 28.3138 12.757 28.3138 14.6935C28.3138 16.63 29.7206 18.301 31.6433 18.629C33.566 18.9569 35.4418 17.8637 36.0983 16.021H39.0058V20.9246L33.2065 29.0298L28.3138 26.8747C28.3138 26.8122 28.3294 26.7497 28.3294 26.6716C28.345 24.7195 26.9694 23.0329 25.0467 22.6581C23.124 22.2833 21.217 23.3453 20.5136 25.1568C19.8101 26.9684 20.4979 29.0454 22.1549 30.0605C23.8118 31.0756 25.969 30.7789 27.2821 29.3265L32.1279 31.4504C32.4561 31.5909 32.8313 31.669 33.1908 31.669C34.0506 31.669 34.8634 31.2474 35.3636 30.5602L38.9902 25.5004V35.9949H28.0793C27.4227 34.1521 25.5469 33.0589 23.6243 33.3869C21.7016 33.7148 20.2947 35.3858 20.2947 37.3223C20.2947 39.2744 21.7016 40.9298 23.6243 41.2578C25.5469 41.5857 27.4227 40.4925 28.0793 38.6498H38.9902V43.9751H36.0827C35.4262 42.1323 33.5504 41.0391 31.6277 41.3671C29.705 41.695 28.2981 43.366 28.2981 45.3025C28.2981 47.2546 29.705 48.91 31.6277 49.238C33.5504 49.5659 35.4262 48.4728 36.0827 46.63H38.9902V51.9553H28.0793C26.8131 51.9553 25.7189 52.8611 25.4688 54.0948L24.5309 58.7955C22.6864 59.3577 21.514 61.1693 21.7485 63.0745C21.9829 64.9954 23.5617 66.4634 25.4844 66.5571C27.4071 66.6508 29.1266 65.3546 29.5643 63.4649C30.002 61.5753 29.0015 59.67 27.2195 58.9204L28.0793 54.6102H38.9902V65.2765C38.9902 71.898 33.6129 77.2702 26.9851 77.2702C26.5943 77.2702 26.2191 77.2546 25.844 77.2077C25.7033 77.1921 25.5782 77.1765 25.4375 77.1609C25.2031 77.1297 24.9686 77.0984 24.7341 77.0516C24.5778 77.0203 24.4215 76.9891 24.2495 76.9423C24.0463 76.8954 23.8431 76.8486 23.6399 76.7861C23.4836 76.7392 23.3116 76.6924 23.1553 76.6299C22.9677 76.5675 22.7801 76.4894 22.5926 76.4269C22.4363 76.3644 22.2799 76.302 22.1236 76.2395C21.936 76.1614 21.7485 76.0677 21.5609 75.9584C21.4202 75.8959 21.2951 75.8178 21.1545 75.7554C20.9356 75.6304 20.7324 75.5055 20.5136 75.365C20.4198 75.3025 20.326 75.2556 20.2322 75.1932C19.6226 74.7715 19.0442 74.303 18.5127 73.772C18.4971 73.7564 18.4814 73.7252 18.4502 73.7096C18.2157 73.4597 17.9812 73.2098 17.7624 72.9444C17.7155 72.8975 17.6842 72.8506 17.6373 72.7882C17.4498 72.5539 17.2622 72.3041 17.0902 72.0542C17.0433 71.9917 16.9964 71.9293 16.9652 71.8512C16.8089 71.6013 16.6525 71.3514 16.5119 71.1016C16.465 71.0235 16.4337 70.9454 16.3868 70.8673C16.2461 70.6174 16.1367 70.352 16.0116 70.1021C15.9804 70.0084 15.9335 69.9303 15.9022 69.8366C15.7928 69.5711 15.699 69.3056 15.6052 69.0245C15.574 68.9308 15.5427 68.8527 15.5114 68.759C15.4176 68.4623 15.3395 68.15 15.277 67.8533C15.2613 67.7908 15.2457 67.7283 15.2301 67.6502C14.5423 64.2926 15.3395 60.8101 17.3872 58.0771C17.8249 57.4837 17.7155 56.656 17.1215 56.2187C16.5275 55.7814 15.699 55.8908 15.2613 56.4842C13.3543 59.0141 12.3226 62.1063 12.3226 65.2765C12.3226 65.542 12.3538 65.7918 12.3695 66.0573C8.3365 64.6674 5.64786 60.8725 5.66349 56.6091C5.66349 56.0625 5.71039 55.516 5.80418 54.9694C5.81981 54.9069 5.83544 54.8444 5.85107 54.782C6.13244 53.2359 6.78897 51.7679 7.75813 50.5186C7.77377 50.5029 7.77377 50.4873 7.77377 50.4873C9.03993 48.8632 10.7594 47.6607 12.7446 47.0516C13.4481 46.833 13.8388 46.0834 13.62 45.3806C13.4012 44.6779 12.6508 44.2874 11.9474 44.5061C9.88404 45.1464 8.00824 46.2864 6.52323 47.8481C4.28791 45.8335 3.02175 42.96 3.00611 39.946C3.00611 39.4931 3.03738 39.0558 3.0999 38.6029C3.11554 38.4624 3.1468 38.3218 3.16243 38.1813C3.20933 37.8845 3.27185 37.5722 3.35001 37.2911C3.38127 37.1349 3.42817 36.9944 3.45943 36.8382C3.56885 36.479 3.69391 36.1198 3.85022 35.7606C3.94401 35.5576 4.0378 35.3546 4.13159 35.1672C4.20975 34.9954 4.30354 34.8393 4.39733 34.6831C4.52238 34.4644 4.64744 34.2614 4.78812 34.0584C4.86628 33.9335 4.96007 33.8242 5.03823 33.7148C5.30397 33.3557 5.58534 33.0121 5.88234 32.6997C6.00739 32.5748 6.11681 32.4499 6.24187 32.3249C6.39818 32.1688 6.57013 32.0126 6.74208 31.8721C6.92966 31.7159 7.13287 31.5597 7.33608 31.4035C7.4924 31.2786 7.66434 31.1693 7.82066 31.06C8.13329 30.857 8.44593 30.6696 8.77419 30.4978C10.2905 29.7169 11.963 29.3109 13.6669 29.3109C14.4016 29.3109 14.9956 28.7174 14.9956 27.9835C14.9956 27.2495 14.4016 26.656 13.6669 26.656C12.0725 26.656 10.5093 26.9527 9.0243 27.4993C8.57098 26.3905 8.3365 25.188 8.3365 23.9855C8.3365 20.6904 10.0872 17.6295 12.9322 15.9429C15.7772 14.2719 19.3099 14.2094 22.2018 15.8179C22.8427 16.1771 23.6555 15.9429 24.015 15.3026C24.3746 14.6623 24.1401 13.8502 23.4992 13.491C22.1236 12.7258 20.6073 12.2573 19.0442 12.0699C19.3568 6.66647 23.9056 2.49677 29.3142 2.65294C34.7227 2.8091 39.0214 7.24429 39.0214 12.6477V13.3661H39.0058ZM33.6598 14.7091C33.6598 15.4431 33.0658 16.0366 32.3311 16.0366C31.5964 16.0366 31.0024 15.4431 31.0024 14.7091C31.0024 13.9751 31.5964 13.3817 32.3311 13.3817C33.0658 13.3661 33.6598 13.9751 33.6598 14.7091ZM25.6564 26.7029C25.6564 27.4369 25.0624 28.0303 24.3277 28.0303C23.593 28.0303 22.999 27.4369 22.999 26.7029C22.999 25.9689 23.593 25.3754 24.3277 25.3754C25.0624 25.3598 25.6564 25.9689 25.6564 26.7029ZM25.6564 37.3536C25.6564 38.0876 25.0624 38.681 24.3277 38.681C23.593 38.681 22.999 38.0876 22.999 37.3536C22.999 36.6196 23.593 36.0261 24.3277 36.0261C25.0624 36.0261 25.6564 36.6196 25.6564 37.3536ZM33.6598 45.3494C33.6598 46.0834 33.0658 46.6768 32.3311 46.6768C31.5964 46.6768 31.0024 46.0834 31.0024 45.3494C31.0024 44.6154 31.5964 44.022 32.3311 44.022C33.0658 44.022 33.6598 44.6154 33.6598 45.3494ZM27.0007 62.6841C27.0007 63.4181 26.4067 64.0115 25.672 64.0115C24.9373 64.0115 24.3433 63.4181 24.3433 62.6841C24.3433 61.9501 24.9373 61.3567 25.672 61.3567C26.3911 61.341 27.0007 61.9501 27.0007 62.6841ZM68.2995 66.1198C68.3151 65.8543 68.3464 65.6044 68.3464 65.339C68.362 62.1687 67.3303 59.0766 65.4076 56.5467C64.97 55.9532 64.1259 55.8439 63.5475 56.2812C62.9691 56.7185 62.8441 57.5618 63.2817 58.1396C65.3295 60.8725 66.1267 64.3551 65.4389 67.7127C65.4233 67.7752 65.4076 67.8376 65.392 67.9157C65.3295 68.2281 65.2513 68.5248 65.1575 68.8215C65.1263 68.9152 65.095 68.9933 65.0638 69.087C64.97 69.3525 64.8762 69.6336 64.7667 69.8991C64.7355 69.9928 64.6886 70.0709 64.6573 70.1646C64.5479 70.43 64.4229 70.6799 64.2822 70.9298C64.2353 71.0079 64.204 71.0859 64.1571 71.164C64.0164 71.4139 63.8601 71.6638 63.7038 71.9136C63.6569 71.9761 63.6256 72.0386 63.5787 72.1167C63.4068 72.3665 63.2192 72.6164 63.0316 72.8507C62.9847 72.8975 62.9535 72.9444 62.9066 73.0068C62.6877 73.2723 62.4533 73.5222 62.2188 73.772C62.2032 73.7877 62.1875 73.8189 62.1563 73.8345C61.6248 74.3655 61.0464 74.834 60.4368 75.2556C60.343 75.3181 60.2492 75.3806 60.1554 75.4274C59.9522 75.568 59.7334 75.6929 59.5145 75.8179C59.3738 75.8959 59.2488 75.9584 59.1081 76.0209C58.9205 76.1146 58.7329 76.2083 58.5454 76.302C58.389 76.3644 58.2327 76.4269 58.0764 76.4894C57.8888 76.5675 57.7012 76.6299 57.5137 76.6924C57.3573 76.7392 57.1854 76.8017 57.0291 76.8486C56.8259 76.911 56.6227 76.9579 56.4194 77.0047C56.2631 77.036 56.1068 77.0828 55.9349 77.1141C55.7004 77.1609 55.4659 77.1921 55.2314 77.2234C55.0908 77.239 54.9657 77.2702 54.825 77.2702C54.4499 77.3015 54.0591 77.3327 53.6839 77.3327C47.0561 77.3327 41.6788 71.9605 41.6788 65.339V60.4353L47.4781 52.3301L52.3709 54.4852C52.3709 54.5477 52.3552 54.6102 52.3552 54.6883C52.3396 56.6404 53.7152 58.327 55.6379 58.7018C57.5606 59.0766 59.4676 58.0146 60.171 56.2031C60.8745 54.3915 60.1867 52.3145 58.5297 51.2994C56.8728 50.2843 54.7156 50.581 53.4025 52.0334L48.5567 49.9095C47.4 49.4098 46.0557 49.7846 45.321 50.7997L41.6944 55.8595V45.365H52.6053C53.2619 47.2078 55.1377 48.301 57.0603 47.973C58.983 47.6451 60.3899 45.9741 60.3899 44.0376C60.3899 42.1011 58.983 40.4301 57.0603 40.1021C55.1377 39.7742 53.2619 40.8674 52.6053 42.7101H41.6944V37.3848H44.6019C45.2585 39.2276 47.1343 40.3208 49.0569 39.9928C50.9796 39.6649 52.3865 37.9939 52.3865 36.0574C52.3865 34.1053 50.9796 32.4499 49.0569 32.1219C47.1343 31.794 45.2585 32.8871 44.6019 34.7299H41.6944V28.0615H45.9306C47.1968 28.0615 48.291 27.1558 48.5411 25.922L49.479 21.2214C51.3235 20.6592 52.4959 18.8476 52.2614 16.9423C52.027 15.0371 50.4482 13.5535 48.5255 13.4598C46.6028 13.3661 44.8833 14.6623 44.4456 16.5519C44.0236 18.4259 45.0083 20.3468 46.7904 21.0964L45.9306 25.4067H41.6944V12.7102C41.6944 7.30676 45.9931 2.87157 51.4017 2.7154C56.8102 2.55923 61.3591 6.72893 61.6717 12.1324C60.0304 12.3198 58.4516 12.8351 57.0291 13.6472C56.3882 14.022 56.185 14.8341 56.5445 15.4587C56.9197 16.099 57.7325 16.3177 58.3578 15.9429C61.2496 14.2719 64.798 14.2875 67.6899 15.9429C70.5817 17.6139 72.3637 20.6904 72.3637 24.0168C72.3637 25.2193 72.1293 26.4218 71.6759 27.5306C70.1909 26.9684 68.6121 26.6873 67.0333 26.6873C66.2987 26.6873 65.7046 27.2807 65.7046 28.0147C65.7046 28.7487 66.2987 29.3421 67.0333 29.3421C68.7372 29.3421 70.4098 29.7482 71.926 30.529C72.2543 30.7008 72.5669 30.8882 72.8796 31.0912C73.0515 31.2005 73.2078 31.3255 73.3642 31.4348C73.5674 31.5909 73.7706 31.7315 73.9582 31.9033C74.1301 32.0438 74.3021 32.2 74.4584 32.3562C74.5834 32.4811 74.6928 32.606 74.8179 32.731C75.1149 33.0589 75.3963 33.4025 75.662 33.7461C75.7402 33.8554 75.834 33.9803 75.9121 34.0896C76.0528 34.2927 76.1778 34.5113 76.3029 34.7143C76.3967 34.8705 76.4749 35.0423 76.5686 35.1984C76.6624 35.4015 76.7719 35.5889 76.85 35.7919C77.0063 36.1354 77.1314 36.4946 77.2408 36.8694C77.2877 37.01 77.319 37.1662 77.3502 37.3223C77.4284 37.619 77.4909 37.9158 77.5378 38.2125C77.5534 38.353 77.5847 38.4936 77.6003 38.6341C77.6629 39.0714 77.6941 39.5243 77.6941 39.9772C77.6941 42.9912 76.4123 45.8491 74.177 47.8793C72.6764 46.3176 70.8162 45.1776 68.7528 44.5373C68.0494 44.3187 67.2991 44.7091 67.0802 45.4119C66.8614 46.1146 67.2522 46.8642 67.9556 47.0829C69.9252 47.6919 71.6603 48.8788 72.9108 50.5186C72.9265 50.5342 72.9265 50.5498 72.9265 50.5654C73.8956 51.8148 74.5522 53.2984 74.8335 54.86C74.8492 54.9069 74.8648 54.9537 74.8648 55.0162C74.9586 55.5628 75.0055 56.1094 75.0055 56.656C75.0367 60.935 72.3325 64.7455 68.2995 66.1198ZM55.0126 54.6883C55.0126 53.9543 55.6066 53.3608 56.3413 53.3608C57.076 53.3608 57.67 53.9543 57.67 54.6883C57.67 55.4223 57.076 56.0157 56.3413 56.0157C55.6066 56.0157 55.0126 55.4223 55.0126 54.6883ZM55.0126 44.022C55.0126 43.288 55.6066 42.6945 56.3413 42.6945C57.076 42.6945 57.67 43.288 57.67 44.022C57.67 44.7559 57.076 45.3494 56.3413 45.3494C55.6066 45.3494 55.0126 44.7559 55.0126 44.022ZM47.0092 36.0261C47.0092 35.2921 47.6032 34.6987 48.3379 34.6987C49.0726 34.6987 49.6666 35.2921 49.6666 36.0261C49.6666 36.7601 49.0726 37.3536 48.3379 37.3536C47.6032 37.3536 47.0092 36.7601 47.0092 36.0261ZM47.0092 17.364C47.0092 16.63 47.6032 16.0366 48.3379 16.0366C49.0726 16.0366 49.6666 16.63 49.6666 17.364C49.6666 18.098 49.0726 18.6914 48.3379 18.6914C47.6032 18.7071 47.0092 18.1136 47.0092 17.364Z" fill="white"/>
</svg>
