<svg width="25" height="24" viewBox="0 0 25 24" xmlns="http://www.w3.org/2000/svg">
<path d="M12.037 0C5.3834 0 0 5.36683 0 12C0 18.6332 5.3834 24 12.037 24C18.6907 24 24.0741 18.6332 24.0741 12C24.0136 5.36683 18.6302 0 12.037 0ZM18.8721 10.5528V16.1608C18.8721 17.608 17.6624 18.8141 16.2107 18.8141H7.8029C6.3512 18.8141 5.14145 17.608 5.14145 16.1608V7.77889C5.14145 6.33166 6.3512 5.12563 7.8029 5.12563H16.2107C17.6624 5.12563 18.8721 6.33166 18.8721 7.77889V10.5528Z"/>
<path d="M12.0369 14.3517C13.3677 14.3517 14.4564 13.2663 14.4564 11.9396C14.4564 11.3969 14.275 10.9145 13.9725 10.5527C13.5491 9.9497 12.8233 9.52759 12.0369 9.52759C11.2506 9.52759 10.5247 9.9497 10.1013 10.5527C9.7989 10.9748 9.61743 11.4572 9.61743 11.9396C9.61743 13.3266 10.7062 14.3517 12.0369 14.3517Z"/>
<path d="M17.239 9.04512V6.75366H16.9365H14.9404V9.04512H17.239Z"/>
<path d="M15.7268 12C15.7268 14.0502 14.0331 15.7387 11.9765 15.7387C9.91996 15.7387 8.22631 14.0502 8.22631 12C8.22631 11.5176 8.34728 11.0351 8.52875 10.613H6.47217V16.2211C6.47217 16.9447 7.07704 17.5477 7.8029 17.5477H16.2107C16.9365 17.5477 17.5414 16.9447 17.5414 16.2211V10.613H15.4848C15.6663 11.0351 15.7268 11.4573 15.7268 12Z"/>
</svg>
