<svg width="16" height="16" viewBox="0 0 16 16" xmlns="http://www.w3.org/2000/svg">
<path d="M9.09207 11.4236L7.15632 13.3591C6.55676 13.9612 5.74306 14.2967 4.90367 14.2881C3.15636 14.2967 1.72596 12.886 1.7174 11.1312C1.70883 10.271 2.05144 9.45376 2.65957 8.85161L4.60388 6.91616C4.93793 6.58068 4.93793 6.03875 4.60388 5.70327C4.26984 5.36779 3.73023 5.36779 3.39618 5.70327L1.44331 7.62152C-0.466741 9.52257 -0.483871 12.6279 1.40905 14.5462C2.33409 15.4838 3.59318 16.0085 4.90367 15.9999H4.91223C6.21415 16.0085 7.46467 15.4924 8.38115 14.5634L10.3169 12.6193C10.6509 12.2838 10.6424 11.7419 10.3083 11.4064C9.96572 11.0795 9.42611 11.0795 9.09207 11.4236Z"/>
<path d="M11.0964 0.000105824C9.78591 -0.00849621 8.53539 0.507626 7.61891 1.43665L5.69173 3.3721C5.35768 3.70758 5.36625 4.24951 5.70029 4.58499C6.03434 4.92047 6.57395 4.91187 6.90799 4.57639L8.84374 2.64093C9.4433 2.03879 10.257 1.70331 11.0964 1.71191C12.8437 1.70331 14.2741 3.11404 14.2827 4.86886C14.2912 5.72906 13.9486 6.54626 13.3405 7.1484L11.3962 9.08386C11.0621 9.41934 11.0536 9.96126 11.3876 10.2967C11.7217 10.6322 12.2613 10.6408 12.5953 10.3053L12.6039 10.2967L14.5568 8.37849C16.4668 6.47744 16.4839 3.3721 14.591 1.45385C13.666 0.516228 12.4069 -0.00849621 11.0964 0.000105824Z"/>
<path d="M4.4583 11.5527C4.79234 11.8882 5.33195 11.8882 5.666 11.5527L11.5332 5.6603C11.8672 5.32482 11.8672 4.78289 11.5332 4.44741C11.1991 4.11193 10.6595 4.11193 10.3255 4.44741L4.4583 10.3398C4.12425 10.6753 4.12425 11.2172 4.4583 11.5527Z"/>
</svg>
