<svg width="18" height="18" viewBox="0 0 18 18" xmlns="http://www.w3.org/2000/svg">
<path d="M9 0C3.98864 0 0 3.98864 0 9C0 14.0114 3.98864 18 9 18C14.0114 18 18 14.0114 18 9C18 3.98864 14.0114 0 9 0ZM6.85227 9.97159L6.28977 10.5341C6.13636 10.6875 5.88068 10.6875 5.72727 10.5341L4.70455 9.51136C4.03977 8.84659 3.68182 7.97727 3.68182 7.05682C3.68182 5.16477 5.21591 3.63068 7.10795 3.63068C8.02841 3.63068 8.89773 3.98864 9.5625 4.65341L10.5852 5.67614C10.7386 5.82955 10.7386 6.08523 10.5852 6.23864L10.0227 6.80114C9.86932 6.95455 9.61364 6.95455 9.46023 6.80114L8.4375 5.77841C8.13068 5.47159 7.67045 5.26705 7.15909 5.26705C6.1875 5.26705 5.36932 6.08523 5.36932 7.05682C5.36932 7.56818 5.57386 7.97727 5.88068 8.33523L6.90341 9.35795C7.00568 9.5625 7.00568 9.81818 6.85227 9.97159ZM7.05682 7.67045L7.61932 7.10795C7.77273 6.95455 8.02841 6.95455 8.18182 7.10795L10.892 9.81818C11.0455 9.97159 11.0455 10.2273 10.892 10.3807L10.3295 10.9432C10.1761 11.0966 9.92045 11.0966 9.76705 10.9432L7.05682 8.23295C6.90341 8.07955 6.90341 7.82386 7.05682 7.67045ZM10.892 14.3182C9.97159 14.3182 9.10227 13.9602 8.4375 13.2955L7.41477 12.2727C7.26136 12.1193 7.26136 11.8636 7.41477 11.7102L7.97727 11.1477C8.13068 10.9943 8.38636 10.9943 8.53977 11.1477L9.5625 12.1705C9.86932 12.4773 10.3295 12.6818 10.8409 12.6818C11.8125 12.6818 12.6307 11.8636 12.6307 10.892C12.6307 10.3807 12.4261 9.97159 12.1193 9.61364L11.0966 8.59091C10.9432 8.4375 10.9432 8.18182 11.0966 8.02841L11.6591 7.46591C11.8125 7.3125 12.0682 7.3125 12.2216 7.46591L13.2443 8.48864C13.9091 9.15341 14.267 10.0227 14.267 10.9432C14.3182 12.7841 12.7841 14.3182 10.892 14.3182Z" />
</svg>
