<svg width="102" height="29" viewBox="0 0 102 29" fill="none" xmlns="http://www.w3.org/2000/svg">
<rect width="102" height="29" fill="white" fill-opacity="0"/>
<rect width="30.6728" height="29" fill="black" fill-opacity="0"/>
<path d="M30.6573 13.6585C30.484 10.7985 29.4377 8.16806 27.76 5.99071C24.2622 6.3026 21.2472 6.997 18.6533 7.92679C18.6657 8.00917 18.6718 8.09156 18.6718 8.17983C22.3306 9.04489 26.3857 10.7279 30.6264 13.6997C30.6388 13.6821 30.645 13.6703 30.6573 13.6585Z" fill="url(#paint0_linear)"/>
<path d="M10.0477 11.4518C11.2363 10.5161 12.5983 9.60399 14.1646 8.76836C14.1398 8.68009 14.1213 8.59181 14.1089 8.49766C12.1216 8.33877 10.3139 8.41527 8.74141 8.60358C8.15327 8.6742 7.58991 8.76247 7.04511 8.86251C7.19369 9.51572 7.35465 10.1454 7.528 10.7515C7.64563 10.7397 7.76325 10.7339 7.88088 10.7339C8.69807 10.7397 9.44716 11.0104 10.0477 11.4518Z" fill="url(#paint1_linear)"/>
<path d="M6.83486 7.85024C7.40441 7.74432 7.99255 7.65605 8.60544 7.57955C10.2522 7.37947 12.1404 7.30296 14.2205 7.46774C14.5363 6.62622 15.3844 6.02009 16.3812 6.02009C17.1612 6.02009 17.8484 6.39083 18.2632 6.95576C20.7643 6.0554 23.6492 5.37277 26.9551 5.02557C24.1383 1.94785 19.9842 0 15.3411 0C11.9175 0 8.76021 1.05925 6.20958 2.84821C6.31482 4.63129 6.5315 6.29667 6.83486 7.85024Z" fill="url(#paint2_linear)"/>
<path d="M3.22545 22.0678C6.45707 22.721 9.37297 22.9152 11.9793 22.7916C12.0165 22.4856 12.1093 22.1972 12.2517 21.9324C11.1064 20.6025 9.99824 19.0548 9.0139 17.2482C8.65483 17.3658 8.27718 17.4306 7.88097 17.4306C7.24331 17.4306 6.64899 17.2658 6.13515 16.9833C4.69268 18.9253 3.77643 20.7437 3.22545 22.0678Z" fill="url(#paint3_linear)"/>
<path d="M14.5546 20.5966C15.6319 20.5966 16.5605 21.2263 16.9505 22.1149C20.1202 21.391 22.6647 20.2082 24.6024 19.0077C27.0168 17.5071 28.7812 15.8241 29.9451 14.5C25.853 11.64 21.9465 10.0158 18.4239 9.18021C18.0463 9.89226 17.2724 10.3807 16.3748 10.3807C15.7061 10.3807 15.1056 10.1041 14.6847 9.67452C13.205 10.4631 11.9112 11.3223 10.7844 12.205C11.1682 12.7405 11.3911 13.3878 11.3911 14.0822C11.3911 15.1826 10.8278 16.1536 9.96722 16.7656C10.8835 18.431 11.8988 19.8787 12.9512 21.1203C13.4031 20.7967 13.9541 20.5966 14.5546 20.5966Z" fill="url(#paint4_linear)"/>
<path d="M5.77004 8.06795C5.50384 6.67915 5.29954 5.20796 5.17572 3.64262C3.25037 5.24916 1.75837 7.30882 0.88546 9.64506C2.16078 9.09778 3.80754 8.5093 5.77004 8.06795Z" fill="url(#paint5_linear)"/>
<path d="M27.3636 23.4566C29.419 20.9261 30.3538 18.6311 30.6695 15.2768C29.4499 16.6362 27.6608 18.3133 25.2092 19.8375C23.1724 21.1027 20.498 22.3503 17.1611 23.1035C17.1425 23.6684 16.932 24.1863 16.5791 24.5923C16.672 24.6688 16.7649 24.7453 16.8639 24.816C19.7551 27.0522 22.6214 28.2997 24.522 28.9588H30.1495C30.5767 28.9588 30.8243 28.4998 30.5705 28.1761L27.3636 23.4566Z" fill="url(#paint6_linear)"/>
<path d="M16.1582 25.6516C16.0034 25.5339 15.8487 25.4103 15.6877 25.2808C15.3472 25.4397 14.9634 25.5339 14.5548 25.5339C13.3971 25.5339 12.4189 24.8159 12.0846 23.8214C11.5584 23.845 11.0198 23.8685 10.4688 23.8685C8.17819 23.8685 5.68327 23.6272 2.97168 23.0741C5.76375 26.6637 10.2645 29 15.341 29C15.3534 29 15.372 29 15.3843 29H21.6866C20.0399 28.235 18.1145 27.1581 16.1582 25.6516Z" fill="url(#paint7_linear)"/>
<path d="M2.14823 21.8324C2.71778 20.4319 3.69594 18.4546 5.2808 16.3361C4.71124 15.7417 4.35836 14.9532 4.35836 14.0881C4.35836 12.717 5.23127 11.54 6.47563 11.0222C6.2961 10.3984 6.13514 9.75105 5.98036 9.08607C3.63403 9.62159 1.74582 10.3748 0.451932 10.9868C0.160962 12.1108 0 13.2878 0 14.4942C0 17.1658 0.767666 19.6727 2.10489 21.8207C2.11727 21.8265 2.12965 21.8265 2.14823 21.8324Z" fill="url(#paint8_linear)"/>
<rect width="67.6727" height="28.6763" fill="black" fill-opacity="0" transform="translate(34.3273 0.323593)"/>
<path d="M35.61 20.4082H40.1788C40.8289 20.4082 41.3737 20.8319 41.386 21.3733C41.4232 22.8916 42.5128 23.5624 44.3081 23.5624C46.543 23.5624 47.8555 22.4973 48.1341 21.1203C49.0689 16.5537 36.161 16.0005 37.882 7.6089C38.7487 3.39543 42.9399 0.323593 49.0689 0.323593C54.8202 0.323593 57.8909 2.99527 57.3894 7.52063C57.3337 8.03849 56.8013 8.43865 56.176 8.43865H51.5948C50.9571 8.43865 50.4185 8.02672 50.3875 7.49709C50.3256 6.31426 49.4899 5.7199 47.9174 5.7199C46.1592 5.7199 44.952 6.50846 44.692 7.76779C43.8067 12.099 56.956 12.3755 55.1545 21.1615C54.2259 25.6927 49.7004 28.9999 43.0947 28.9999C37.1329 28.9999 33.7961 26.2988 34.3966 21.3262C34.4585 20.8025 34.9847 20.4082 35.61 20.4082Z" fill="white"/>
<path d="M67.7153 6.90866L66.9353 10.7279C66.8053 11.3575 67.3934 11.9401 68.1673 11.9401H74.2219C74.9958 11.9401 75.5839 12.5168 75.4539 13.1524L74.7977 16.3595C74.6986 16.8597 74.1724 17.2246 73.5657 17.2246H66.6629C66.0562 17.2246 65.53 17.5895 65.4309 18.0897L63.3632 28.129C63.2641 28.6292 62.7379 28.9941 62.1312 28.9941H57.7109C56.9371 28.9941 56.3489 28.4174 56.4789 27.7818L61.8835 1.42408C61.9826 0.923875 62.5088 0.559021 63.1155 0.559021H77.534C78.3079 0.559021 78.896 1.13573 78.766 1.77128L78.0664 5.18443C77.9674 5.68463 77.4412 6.04948 76.8345 6.04948H68.9473C68.3344 6.0436 67.8144 6.40845 67.7153 6.90866Z" fill="white"/>
<path d="M100.05 6.04361H95.4505C94.8438 6.04361 94.3175 6.40846 94.2185 6.90867L89.8663 28.129C89.7673 28.6292 89.241 28.9941 88.6343 28.9941H84.016C83.2421 28.9941 82.654 28.4174 82.784 27.7818L86.9938 7.25587C87.1238 6.6262 86.5356 6.04361 85.7618 6.04361H82.0101C81.2363 6.04361 80.6481 5.4669 80.7782 4.83135L81.4777 1.4182C81.5768 0.918 82.103 0.553146 82.7097 0.553146H100.75C101.524 0.553146 102.112 1.12985 101.982 1.7654L101.282 5.17855C101.177 5.67876 100.657 6.04361 100.05 6.04361Z" fill="white"/>
<defs>
<linearGradient id="paint0_linear" x1="15.6271" y1="2.61539" x2="31.1046" y2="17.5574" gradientUnits="userSpaceOnUse">
<stop stop-color="white"/>
</linearGradient>
<linearGradient id="paint1_linear" x1="5.2503" y1="7.08062" x2="10.9565" y2="15.3654" gradientUnits="userSpaceOnUse">
<stop stop-color="white"/>
</linearGradient>
<linearGradient id="paint2_linear" x1="0.97965" y1="-3.43716" x2="15.006" y2="19.5435" gradientUnits="userSpaceOnUse">
<stop stop-color="white"/>
</linearGradient>
<linearGradient id="paint3_linear" x1="0.949938" y1="14.4249" x2="12.678" y2="25.6567" gradientUnits="userSpaceOnUse">
<stop stop-color="white"/>
</linearGradient>
<linearGradient id="paint4_linear" x1="4.93082" y1="3.51688" x2="30.8917" y2="28.3763" gradientUnits="userSpaceOnUse">
<stop stop-color="white"/>
</linearGradient>
<linearGradient id="paint5_linear" x1="-0.345938" y1="1.01451" x2="9.35295" y2="5.90778" gradientUnits="userSpaceOnUse">
<stop stop-color="white"/>
</linearGradient>
<linearGradient id="paint6_linear" x1="13.0261" y1="9.28624" x2="37.9633" y2="25.2119" gradientUnits="userSpaceOnUse">
<stop stop-color="white"/>
</linearGradient>
<linearGradient id="paint7_linear" x1="-1.74634" y1="20.4794" x2="7.89834" y2="39.3636" gradientUnits="userSpaceOnUse">
<stop stop-color="white"/>
</linearGradient>
<linearGradient id="paint8_linear" x1="-1.6325" y1="3.5052" x2="13.0426" y2="8.12746" gradientUnits="userSpaceOnUse">
<stop stop-color="white"/>
</linearGradient>
</defs>
</svg>
