<svg width="18" height="14" viewBox="0 0 18 14" xmlns="http://www.w3.org/2000/svg">
<path d="M17.3395 0.673394C16.9145 0.240161 16.3464 0 15.746 0H2.25404C1.01155 0 0 1.03128 0 2.29802V11.702C0 12.9687 1.01155 14 2.25404 14H15.746C16.9885 14 18 12.9687 18 11.702V2.30272C18 1.68584 17.7644 1.11134 17.3395 0.673394ZM16.8637 11.7491C16.836 12.3518 16.3464 12.8369 15.746 12.8369H2.25404C1.63972 12.8369 1.13626 12.3283 1.13626 11.6973V2.30272C1.13626 1.67642 1.6351 1.16313 2.25404 1.16313H15.746C16.3603 1.16313 16.8637 1.67171 16.8637 2.30272V11.702V11.7491Z"/>
<path d="M11.4364 6.88463L15.7505 2.94316C15.9814 2.73125 15.9999 2.36394 15.7921 2.12378C15.5842 1.88833 15.2239 1.86949 14.9884 2.0814L9.00685 7.54861L7.89368 6.53616L7.87521 6.51261C7.84749 6.48436 7.81978 6.46081 7.78745 6.43727L3.00685 2.07669C2.77128 1.86478 2.411 1.88362 2.20315 2.12378C1.9953 2.36394 2.01378 2.73125 2.24934 2.94316L6.61424 6.91759L2.26782 11.0663C2.04149 11.2829 2.02763 11.6502 2.24472 11.8856C2.35558 12.0034 2.508 12.0693 2.66043 12.0693C2.80361 12.0693 2.94218 12.0128 3.04842 11.9139L7.46874 7.69929L8.63271 8.75883C8.73895 8.85301 8.8729 8.90481 9.01147 8.90481C9.15003 8.90481 9.2886 8.8483 9.39022 8.75412L10.5865 7.66162L14.9791 11.9186C15.0854 12.0222 15.2239 12.0787 15.3717 12.0787C15.5288 12.0787 15.672 12.0128 15.7828 11.8998C15.8891 11.7867 15.9399 11.6408 15.9399 11.4854C15.9353 11.33 15.8752 11.184 15.7644 11.0804L11.4364 6.88463Z"/>
</svg>
