<svg width="16" height="16" viewBox="0 0 16 16" xmlns="http://www.w3.org/2000/svg">
<path d="M14.3085 0H1.68335C0.755873 0 0 0.759959 0 1.68744V14.3126C0 15.2441 0.759959 16 1.68744 16H14.3126C15.2441 16 16 15.24 16 14.3126V1.68744C15.9959 0.755873 15.24 0 14.3085 0ZM15.1951 14.3085C15.1951 14.7947 14.7947 15.1951 14.3085 15.1951H1.68335C1.19714 15.1951 0.796731 14.7947 0.796731 14.3085V12.2002L3.8284 9.16854L6.4188 11.7589C6.57406 11.9142 6.82737 11.9142 6.98264 11.7589L11.665 7.07661L15.1869 10.5986V14.3085H15.1951ZM15.1951 9.47089L11.951 6.23085C11.7957 6.07559 11.5424 6.07559 11.3871 6.23085L6.70889 10.9091L4.11849 8.31869C3.96323 8.16343 3.70991 8.16343 3.55465 8.31869L0.804903 11.0684V1.68744C0.804903 1.20123 1.20531 0.800817 1.69152 0.800817H14.3166C14.8029 0.800817 15.2033 1.20123 15.2033 1.68744V9.47089H15.1951Z"/>
<path d="M4.96017 2.33707C3.84066 2.33707 2.92544 3.25229 2.92544 4.3718C2.92544 5.49131 3.83657 6.40653 4.96017 6.40653C6.08376 6.40653 6.9949 5.49131 6.9949 4.3718C6.9949 3.25229 6.07968 2.33707 4.96017 2.33707ZM4.96017 5.60979C4.28192 5.60979 3.72626 5.05412 3.72626 4.37588C3.72626 3.69764 4.27784 3.14197 4.96017 3.14197C5.6425 3.14197 6.19408 3.69764 6.19408 4.37588C6.19408 5.05412 5.63841 5.60979 4.96017 5.60979Z"/>
</svg>
