<svg width="16" height="18" viewBox="0 0 16 18" xmlns="http://www.w3.org/2000/svg">
<path d="M4.00005 12.8672C4.39454 12.8672 4.71434 12.5524 4.71434 12.1641C4.71434 11.7757 4.39454 11.4609 4.00005 11.4609C3.60556 11.4609 3.28577 11.7757 3.28577 12.1641C3.28577 12.5524 3.60556 12.8672 4.00005 12.8672Z" />
<path d="M6.67852 12.8672C7.07301 12.8672 7.3928 12.5524 7.3928 12.1641C7.3928 11.7757 7.07301 11.4609 6.67852 11.4609C6.28403 11.4609 5.96423 11.7757 5.96423 12.1641C5.96423 12.5524 6.28403 12.8672 6.67852 12.8672Z" />
<path d="M9.35711 12.8672C9.7516 12.8672 10.0714 12.5524 10.0714 12.1641C10.0714 11.7757 9.7516 11.4609 9.35711 11.4609C8.96262 11.4609 8.64282 11.7757 8.64282 12.1641C8.64282 12.5524 8.96262 12.8672 9.35711 12.8672Z" />
<path d="M12.0715 12.8672C12.466 12.8672 12.7857 12.5524 12.7857 12.1641C12.7857 11.7757 12.466 11.4609 12.0715 11.4609C11.677 11.4609 11.3572 11.7757 11.3572 12.1641C11.3572 12.5524 11.677 12.8672 12.0715 12.8672Z" />
<path d="M15.2857 12.7266C15.6786 12.7266 16 12.4102 16 12.0234V9.42188C16 7.87148 14.7179 6.60938 13.1429 6.60938H12.2857V4.13086C12.2857 1.85273 10.3607 0 8 0C5.63929 0 3.71429 1.85273 3.71429 4.13086V6.60938H2.85714C1.28214 6.60938 0 7.87148 0 9.42188V15.1875C0 16.7379 1.28214 18 2.85714 18H13.1429C14.7179 18 16 16.7379 16 15.1875C16 14.8008 15.6786 14.4844 15.2857 14.4844C14.8929 14.4844 14.5714 14.8008 14.5714 15.1875C14.5714 15.9645 13.9321 16.5938 13.1429 16.5938H2.85714C2.06786 16.5938 1.42857 15.9645 1.42857 15.1875V9.42188C1.42857 8.64492 2.06786 8.01562 2.85714 8.01562H13.1429C13.9321 8.01562 14.5714 8.64492 14.5714 9.42188V12.0234C14.5714 12.4102 14.8929 12.7266 15.2857 12.7266ZM10.8571 6.60938H5.14286V4.13086C5.14286 2.62969 6.425 1.40625 8 1.40625C9.575 1.40625 10.8571 2.62969 10.8571 4.13086V6.60938Z" />
</svg>
