<svg width="18" height="18" viewBox="0 0 18 18" xmlns="http://www.w3.org/2000/svg">
<path d="M3.93749 12.8672C4.32582 12.8672 4.64061 12.5524 4.64061 12.1641C4.64061 11.7757 4.32582 11.4609 3.93749 11.4609C3.54917 11.4609 3.23438 11.7757 3.23438 12.1641C3.23438 12.5524 3.54917 12.8672 3.93749 12.8672Z" />
<path d="M6.57415 12.8672C6.96247 12.8672 7.27727 12.5524 7.27727 12.1641C7.27727 11.7757 6.96247 11.4609 6.57415 11.4609C6.18583 11.4609 5.87103 11.7757 5.87103 12.1641C5.87103 12.5524 6.18583 12.8672 6.57415 12.8672Z" />
<path d="M9.21087 12.8672C9.59919 12.8672 9.91399 12.5524 9.91399 12.1641C9.91399 11.7757 9.59919 11.4609 9.21087 11.4609C8.82255 11.4609 8.50775 11.7757 8.50775 12.1641C8.50775 12.5524 8.82255 12.8672 9.21087 12.8672Z" />
<path d="M11.8827 12.8672C12.271 12.8672 12.5858 12.5524 12.5858 12.1641C12.5858 11.7757 12.271 11.4609 11.8827 11.4609C11.4944 11.4609 11.1796 11.7757 11.1796 12.1641C11.1796 12.5524 11.4944 12.8672 11.8827 12.8672Z" />
<path d="M8.36712 16.5938H2.81248C2.03553 16.5938 1.40624 15.9645 1.40624 15.1875V9.42188C1.40624 8.64492 2.03553 8.01562 2.81248 8.01562H12.9374C13.7143 8.01562 14.3436 8.64492 14.3436 9.42188V10.8281C14.3436 11.2148 14.66 11.5312 15.0467 11.5312C15.4335 11.5312 15.7499 11.2148 15.7499 10.8281V9.42188C15.7499 7.87148 14.4878 6.60938 12.9374 6.60938H12.0936V4.13086C12.0936 1.85273 10.1987 0 7.87493 0C5.55112 0 3.65622 1.85273 3.65622 4.13086V6.60938H2.81248C1.2621 6.60938 0 7.87148 0 9.42188V15.1875C0 16.7379 1.2621 18 2.81248 18H8.36712C8.75383 18 9.07023 17.6836 9.07023 17.2969C9.07023 16.9102 8.75383 16.5938 8.36712 16.5938ZM5.06246 4.13086C5.06246 2.62969 6.32455 1.40625 7.87493 1.40625C9.42531 1.40625 10.6874 2.62969 10.6874 4.13086V6.60938H5.06246V4.13086Z" />
<path d="M17.7045 11.4504C17.3881 11.2254 16.9487 11.2957 16.7237 11.6121L13.2573 16.4531C13.1624 16.5621 13.0428 16.5867 12.9796 16.5902C12.9128 16.5938 12.7897 16.5867 12.6772 16.4813L10.4413 14.2981C10.1636 14.0274 9.7171 14.0309 9.44639 14.3086C9.17569 14.5863 9.17921 15.0328 9.45694 15.3035L11.6999 17.4938C11.7034 17.4973 11.7034 17.4973 11.7069 17.5008C12.0444 17.8207 12.4909 18 12.955 18C12.9936 18 13.0358 18 13.0745 17.9965C13.5772 17.9613 14.0483 17.7188 14.3647 17.325C14.3717 17.3145 14.3823 17.3039 14.3893 17.2934L17.8698 12.4313C18.0948 12.1184 18.0209 11.6789 17.7045 11.4504Z" />
</svg>
