<svg width="20" height="20" viewBox="0 0 20 20" xmlns="http://www.w3.org/2000/svg">
<path d="M18.8613 8.38887H12.0141C11.8127 8.38887 11.6113 8.18748 11.6113 7.98609V1.13887C11.6113 0.635396 11.3092 0.333313 10.8057 0.333313H9.19461C8.69114 0.333313 8.38905 0.635396 8.38905 1.13887V7.98609C8.38905 8.18748 8.18766 8.38887 7.98627 8.38887H1.13905C0.635579 8.38887 0.333496 8.69095 0.333496 9.19442V10.8055C0.333496 11.309 0.635579 11.6111 1.13905 11.6111H7.98627C8.18766 11.6111 8.38905 11.8125 8.38905 12.0139V18.8611C8.38905 19.3646 8.69114 19.6666 9.19461 19.6666H10.8057C11.3092 19.6666 11.6113 19.3646 11.6113 18.8611V12.0139C11.6113 11.8125 11.8127 11.6111 12.0141 11.6111H18.8613C19.3647 11.6111 19.6668 11.309 19.6668 10.8055V9.19442C19.6668 8.69095 19.3647 8.38887 18.8613 8.38887Z"/>
</svg>
