<svg width="7" height="7" viewBox="0 0 7 7" fill="none" xmlns="http://www.w3.org/2000/svg">
<path d="M0.893745 2.40479C0.896674 2.846 0.978678 3.20209 1.1134 3.54967C1.36527 4.19801 1.75625 4.76264 2.20581 5.29606C2.60118 5.76281 3.04049 6.187 3.50762 6.58565C3.67016 6.72468 3.67455 6.72609 3.8371 6.58706C4.31447 6.18132 4.7611 5.74862 5.16233 5.27195C5.40981 4.97828 5.63825 4.67043 5.8374 4.34413C6.0512 3.9923 6.22985 3.62486 6.34114 3.23047C6.44804 2.8531 6.48611 2.47005 6.41875 2.08133C6.347 1.66992 6.16688 1.30532 5.89451 0.983275C5.61336 0.649885 5.26191 0.405872 4.85775 0.234211C4.62931 0.137741 4.38916 0.0753189 4.14022 0.0370146C3.86052 -0.00696455 3.58083 -0.0112206 3.30261 0.0214091C3.00974 0.0554574 2.72565 0.132066 2.45328 0.249817C2.10184 0.403034 1.79432 0.61158 1.53513 0.885386C1.25105 1.18473 1.05629 1.5323 0.953784 1.92528C0.909853 2.10403 0.89521 2.28846 0.893745 2.40479ZM3.67309 4.3569C3.67309 4.5087 3.67309 4.65908 3.67309 4.81088C3.67309 4.8279 3.6848 4.85344 3.66137 4.86053C3.64087 4.86762 3.62769 4.84634 3.61305 4.83499C3.26746 4.55268 2.95116 4.2434 2.68026 3.89299C2.41667 3.55109 2.19555 3.19074 2.12527 2.75946C2.07841 2.4658 2.09744 2.1778 2.23509 1.90967C2.49135 1.41172 2.92627 1.15635 3.48126 1.08258C3.63941 1.0613 3.80049 1.06981 3.96157 1.09819C4.18415 1.13649 4.39062 1.20884 4.57806 1.32943C4.91632 1.54649 5.14476 1.83874 5.21652 2.23455C5.29266 2.65306 5.17551 3.01908 4.8885 3.33261C4.58684 3.66033 4.19879 3.82205 3.74777 3.84192C3.68627 3.84475 3.67016 3.86036 3.67162 3.91853C3.67602 4.06323 3.67309 4.21077 3.67309 4.3569Z" fill="#FF7052"/>
</svg>
