<svg width="24" height="27" viewBox="0 0 24 27" xmlns="http://www.w3.org/2000/svg">
<path d="M20.4643 5.16797L18 7.59375C19.6072 9.17578 20.4643 11.2852 20.4643 13.6055C20.4643 18.2461 16.6072 22.043 11.8929 22.043V20.3555L8.57147 23.625L12 27V25.3125C18.6429 25.3125 24 20.0391 24 13.5C24 10.3359 22.7143 7.38281 20.4643 5.16797Z"/>
<path d="M15.4286 3.375L12 0V1.6875C5.35714 1.6875 0 6.96094 0 13.5C0 16.6641 1.28571 19.6172 3.53571 21.832L6 19.4062C4.28571 17.9297 3.42857 15.7148 3.42857 13.5C3.42857 8.85938 7.28571 5.0625 12 5.0625V6.75L15.4286 3.375Z"/>
</svg>
