<svg width="11" height="11" viewBox="0 0 11 11" fill="none" xmlns="http://www.w3.org/2000/svg">
<path opacity="0.9" fill-rule="evenodd" clip-rule="evenodd" d="M7.85714 6.91429H7.35429L7.16571 6.72571C7.79429 6.03429 8.17143 5.09143 8.17143 4.08571C8.17143 1.82286 6.34857 0 4.08571 0C1.82286 0 0 1.82286 0 4.08571C0 6.34857 1.82286 8.17143 4.08571 8.17143C5.09143 8.17143 6.03429 7.79429 6.72571 7.16571L6.91429 7.35429V7.85714L10.0571 11L11 10.0571L7.85714 6.91429ZM4.08614 6.91428C2.51471 6.91428 1.25757 5.65713 1.25757 4.0857C1.25757 2.51428 2.51471 1.25713 4.08614 1.25713C5.65757 1.25713 6.91471 2.51428 6.91471 4.0857C6.91471 5.65713 5.65757 6.91428 4.08614 6.91428Z" fill="black"/>
</svg>
