<svg width="19" height="19" viewBox="0 0 19 19" xmlns="http://www.w3.org/2000/svg">
<path d="M4.74985 7.46244H0.679685C0.306057 7.46244 0.00397477 7.7646 0 8.14229V18.3202C0 18.6978 0.306057 19 0.679685 19H4.74985C5.12745 19 5.42953 18.6939 5.42953 18.3202V8.14229C5.42953 7.7646 5.12348 7.46244 4.74985 7.46244Z" />
<path d="M11.534 0H7.46387C7.09024 0 6.78418 0.302155 6.78418 0.675874V18.3201C6.78418 18.6978 7.09024 19 7.46387 19H11.534C11.9116 19 12.2137 18.6939 12.2137 18.3201V0.679849C12.2137 0.302155 11.9077 0 11.534 0Z"/>
<path d="M18.3202 5.42687H14.25C13.8724 5.42687 13.5703 5.72903 13.5703 6.10672V18.3202C13.5703 18.6978 13.8764 19 14.25 19H18.3202C18.6978 19 18.9998 18.6939 18.9998 18.3202V6.10672C18.9998 5.72903 18.6938 5.42687 18.3202 5.42687Z"/>
</svg>
