<svg width="24" height="24" viewBox="0 0 24 24" xmlns="http://www.w3.org/2000/svg">
<path d="M12 0C5.4375 0 0 5.4375 0 12C0 18.5625 5.4375 24 12 24C18.5625 24 24 18.5625 24 12C24 5.4375 18.5625 0 12 0ZM18 9.375V9.75C18 13.6875 15 18.1875 9.5625 18.1875C7.875 18.1875 6.375 17.625 5.0625 16.875C5.25 16.875 5.4375 16.875 5.8125 16.875C7.125 16.875 8.4375 16.3125 9.5625 15.5625C8.25 15.5625 7.125 14.625 6.75 13.5C6.9375 13.5 7.125 13.5 7.3125 13.5C7.5 13.5 7.875 13.5 8.0625 13.3125C6.5625 13.125 5.625 12 5.625 10.5C6 10.6875 6.5625 10.875 6.9375 10.875C6.1875 10.3125 5.625 9.375 5.625 8.4375C5.625 7.875 5.8125 7.3125 6 6.9375C7.5 8.8125 9.5625 9.9375 12 9.9375C12 9.75 12 9.5625 12 9.1875C12 7.5 13.3125 6.1875 15 6.1875C15.9375 6.1875 16.6875 6.5625 17.25 7.125C18 6.9375 18.5625 6.75 19.125 6.375C18.75 7.3125 18.375 7.875 17.8125 8.25C18.375 8.25 18.9375 8.0625 19.5 7.6875C19.125 8.4375 18.5625 8.8125 18 9.375Z"/>
</svg>
