<svg width="14" height="14" viewBox="0 0 14 14" xmlns="http://www.w3.org/2000/svg">
<path d="M11.9492 9.05078C11.1863 8.28789 10.2785 7.72461 9.28867 7.38281C10.3496 6.65273 11.0469 5.43047 11.0469 4.04688C11.0469 1.81562 9.23125 0 7 0C4.76875 0 2.95312 1.81562 2.95312 4.04688C2.95312 5.42773 3.65039 6.65273 4.71133 7.38281C3.72148 7.72461 2.81367 8.28789 2.05078 9.05078C0.727344 10.3715 0 12.1297 0 14H1.09375C1.09375 10.7434 3.74336 8.09375 7 8.09375C10.2566 8.09375 12.9062 10.7434 12.9062 14H14C14 12.1297 13.2727 10.3715 11.9492 9.05078ZM7 7C5.37031 7 4.04688 5.67656 4.04688 4.04688C4.04688 2.41719 5.37031 1.09375 7 1.09375C8.62969 1.09375 9.95312 2.41719 9.95312 4.04688C9.95312 5.67656 8.62969 7 7 7Z"/>
</svg>
