<svg width="24" height="24" viewBox="0 0 24 24" xmlns="http://www.w3.org/2000/svg">
<path d="M12 0C5.37084 0 0 5.37084 0 12C0 18.6292 5.37084 24 12 24C18.6292 24 24 18.6292 24 12C24 5.37084 18.6292 0 12 0ZM16.9105 13.4731C17.4015 13.9642 17.9233 14.3939 18.3529 14.9156C18.5371 15.1611 18.7212 15.4067 18.8747 15.6522C19.0588 16.0512 18.9054 16.4501 18.5371 16.4808H16.3887C15.8363 16.5422 15.376 16.2967 15.0077 15.9284C14.7008 15.6215 14.4246 15.3146 14.1483 14.977C14.0256 14.8542 13.9028 14.7315 13.7494 14.6394C13.4425 14.4552 13.1969 14.5166 13.0435 14.8235C12.8593 15.1304 12.8286 15.468 12.8286 15.8363C12.798 16.3581 12.6445 16.4808 12.1535 16.5115C11.0793 16.5729 10.0358 16.3887 9.0844 15.8363C8.22506 15.3453 7.58056 14.6701 6.99744 13.9028C5.89258 12.399 5.03325 10.7417 4.26598 9.05371C4.08184 8.68542 4.2046 8.47059 4.63427 8.47059C5.34015 8.47059 6.04604 8.47059 6.75192 8.47059C7.02813 8.47059 7.21228 8.62404 7.33504 8.90026C7.70332 9.82097 8.19437 10.711 8.77749 11.5396C8.93095 11.7545 9.0844 11.9693 9.32992 12.1228C9.57545 12.3069 9.75959 12.2455 9.88235 11.9693C9.94373 11.7852 9.97442 11.601 10.0051 11.4169C10.0665 10.7724 10.0665 10.1279 9.97443 9.48338C9.91304 9.0844 9.69821 8.80818 9.26854 8.7468C9.05371 8.71611 9.0844 8.62404 9.20716 8.50128C9.3913 8.28645 9.54476 8.16368 9.88235 8.16368H12.2762C12.6445 8.22506 12.7366 8.40921 12.798 8.80818V11.509C12.798 11.6624 12.8593 12.0921 13.1356 12.2148C13.3504 12.2762 13.5038 12.1228 13.6266 11.9693C14.2097 11.3555 14.6394 10.6189 15.0077 9.85166C15.1611 9.51407 15.3146 9.17647 15.4373 8.83887C15.5294 8.59335 15.7136 8.47059 15.9898 8.47059H18.3223C18.3836 8.47059 18.4757 8.47059 18.5371 8.47059C18.9361 8.53197 19.0281 8.71611 18.9054 9.0844C18.7212 9.69821 18.3529 10.1893 17.9847 10.711C17.5857 11.2634 17.1867 11.7852 16.7877 12.3069C16.4501 12.798 16.4808 13.0435 16.9105 13.4731Z"/>
</svg>
