<svg width="24" height="24" viewBox="0 0 24 24" xmlns="http://www.w3.org/2000/svg">

<path d="M14.0918 12.0762L10.3359 13.9805C10.2363 14.0332 10.1191 13.957 10.1191 13.8457V10.1484C10.1191 10.0371 10.2363 9.9668 10.3359 10.0137L14.0918 11.8066C14.1973 11.8594 14.2031 12.0176 14.0918 12.0762Z"/>
<path d="M12 24C5.37305 24 0 18.627 0 12C0 5.37305 5.37305 0 12 0C18.627 0 24 5.37305 24 12C24 18.627 18.627 24 12 24ZM18.8672 9.99023C18.8672 8.41406 17.5898 7.13672 16.0137 7.13672H11.918H7.98633C6.41016 7.13672 5.13281 8.41406 5.13281 9.99023V14.0039C5.13281 15.5801 6.41016 16.8574 7.98633 16.8574H11.918H16.0137C17.5898 16.8574 18.8672 15.5801 18.8672 14.0039V9.99023Z"/>
</svg>
